<svg width="71" height="100" fill="none" xmlns="http://www.w3.org/2000/svg"><path d="M50.65 83.886L3.273 72.999a2.93 2.93 0 01-2.199-3.512L16.518 2.274A2.93 2.93 0 0120.029.075l47.379 10.887a2.93 2.93 0 012.199 3.511L54.162 81.686a2.93 2.93 0 01-3.511 2.2z" fill="#3935D8"/><path d="M67.409 10.962l-2.548-.585-14.84 64.585a3.012 3.012 0 01-3.611 2.261L1.659 66.94l-.585 2.548a2.93 2.93 0 002.198 3.51l47.38 10.888a2.93 2.93 0 003.51-2.2l15.446-67.213a2.93 2.93 0 00-2.2-3.51z" fill="#201DAD"/><path d="M51.543 89.456H2.93A2.93 2.93 0 010 86.526V17.561a2.93 2.93 0 012.93-2.93h48.613a2.93 2.93 0 012.93 2.93v68.965a2.93 2.93 0 01-2.93 2.93z" fill="#D8E2F1"/><path d="M20.678 31.738H7.393a1.506 1.506 0 110-3.012h13.285a1.506 1.506 0 110 3.012zm0 8.292H7.393a1.506 1.506 0 110-3.012h13.285a1.506 1.506 0 110 3.012zm0 8.294H7.393a1.506 1.506 0 110-3.012h13.285a1.506 1.506 0 110 3.012zm0 8.293H7.393a1.506 1.506 0 110-3.012h13.285a1.506 1.506 0 110 3.012zm0 8.293H7.393a1.506 1.506 0 110-3.012h13.285a1.506 1.506 0 110 3.012zm0 8.293H7.393a1.506 1.506 0 110-3.012h13.285a1.506 1.506 0 110 3.012z" fill="#fff"/><path d="M51.129 25.176H19.458a3.013 3.013 0 00-3.013 3.013v68.798A3.013 3.013 0 0019.458 100h48.447a3.013 3.013 0 003.013-3.013V44.964a4.018 4.018 0 00-1.177-2.84L53.969 26.352a4.017 4.017 0 00-2.84-1.176z" fill="#fff"/><path d="M69.741 42.124L53.97 26.353a4.015 4.015 0 00-2.011-1.088v16.861c0 1.11.899 2.009 2.008 2.009H70.83a4.015 4.015 0 00-1.088-2.011zm-9.282 23.833a1.506 1.506 0 100-3.012H30.643v-5.28h29.816a1.506 1.506 0 100-3.012H30.643v-2.006a1.506 1.506 0 10-3.012 0v2.006h-4.387a1.506 1.506 0 100 3.012h4.387v5.28h-4.387a1.506 1.506 0 100 3.012h4.387v5.281h-4.387a1.506 1.506 0 100 3.012h4.387v5.281h-4.387a1.506 1.506 0 100 3.012h4.387v2.004a1.506 1.506 0 103.012 0v-2.004h29.816a1.506 1.506 0 100-3.012H30.643v-5.28h29.816a1.506 1.506 0 100-3.013H30.643v-5.28h29.816z" fill="#C4D3EA"/></svg>