<svg width="110" height="76" fill="none" xmlns="http://www.w3.org/2000/svg"><path d="M35.2 3.853c-19.44 0-35.2 15.76-35.2 35.2 0 19.44 15.76 35.2 35.2 35.2 19.44 0 35.2-15.76 35.2-35.2 0-19.44-15.76-35.2-35.2-35.2zm0 57.2c-12.15 0-22-9.85-22-22s9.85-22 22-22 22 9.85 22 22-9.85 22-22 22z" fill="#D8E2F1"/><path d="M59.723 39.053c0-13.543-10.98-24.523-24.523-24.523-13.544 0-24.523 10.98-24.523 24.523 0 13.544 10.979 24.523 24.523 24.523 13.543 0 24.523-10.979 24.523-24.523zm-46.523 0c0-12.15 9.85-22 22-22s22 9.85 22 22-9.85 22-22 22-22-9.85-22-22z" fill="#C4D3EA"/><path d="M70.4 39.053H55.125a.687.687 0 01-.686-.666c-.16-4.694-2-8.962-4.939-12.22a19.2 19.2 0 00-13.635-6.353.687.687 0 01-.665-.685V3.853c19.44 0 35.2 15.76 35.2 35.2z" fill="#201DAD"/><path d="M67.375 39.053H57.2c0-12.15-9.85-22-22-22V3.984c18.024 1.535 32.175 16.648 32.175 35.07zm3.016-.687zm-31.023 5.341c.127.267.19.528.19.781 0 .465-.19.86-.57 1.183a1.856 1.856 0 01-1.267.486c-.324 0-.62-.085-.887-.254-.268-.169-.48-.422-.634-.76l-.95-2.133h-6.843l-.972 2.133a1.664 1.664 0 01-.655.76 1.627 1.627 0 01-.887.254c-.478 0-.915-.162-1.31-.486-.38-.324-.57-.718-.57-1.183 0-.253.064-.514.19-.781L29.78 32.26c.183-.38.451-.669.803-.866a2.367 2.367 0 011.204-.317c.422 0 .816.106 1.183.317.366.197.64.486.823.866l5.576 11.447zm-9.652-3.612h4.224l-2.112-4.71-2.112 4.71zM43.1 46.22c-.59 0-1.062-.169-1.414-.507-.338-.352-.507-.823-.507-1.415V33c0-.577.169-1.035.507-1.373.352-.352.823-.528 1.415-.528.605 0 1.084.176 1.436.528.352.338.528.796.528 1.373v11.3c0 .59-.176 1.062-.528 1.414-.352.338-.83.507-1.436.507zm23.456-34.334a.363.363 0 00.4.171l1.837-.407c3.812-.845 7.776.062 10.696 2.425l-1.735 1.307c-.262.198-.159.612.164.647l6.347.699a.39.39 0 00.427-.322l.983-6.22c.05-.316-.327-.524-.59-.326l-1.91 1.439A16.489 16.489 0 0076.478 7.6a17.596 17.596 0 00-8.505-.214l-1.838.408a.382.382 0 00-.3.436l.684 3.552c.007.038.02.072.037.103z" fill="#3935D8"/><path d="M83.96 58.24a.363.363 0 00-.417.119l-1.17 1.475c-2.425 3.06-6.073 4.855-9.83 4.862l.522-2.108c.08-.32-.262-.575-.535-.399l-5.367 3.46a.39.39 0 00-.128.52l3.16 5.447c.16.277.584.2.663-.12l.575-2.32a16.49 16.49 0 007.53-1.353 17.598 17.598 0 006.735-5.197l1.17-1.476a.381.381 0 00-.043-.527l-2.77-2.326a.34.34 0 00-.094-.057z" fill="#C4D3EA"/><path d="M94.6 54.893c8.505 0 15.4-7.091 15.4-15.84 0-8.748-6.895-15.84-15.4-15.84s-15.4 7.092-15.4 15.84c0 8.749 6.895 15.84 15.4 15.84z" fill="#3935D8"/><path d="M95.04 26.733v11.44c2.916 0 5.28-2.56 5.28-5.72 0-3.159-2.364-5.72-5.28-5.72z" fill="#fff"/><path d="M96.8 32.453c0-3.159-.887-5.72-1.98-5.72-3.28 0-5.94 2.561-5.94 5.72 0 3.16 2.66 5.72 5.94 5.72 1.093 0 1.98-2.56 1.98-5.72zm-8.8 9.24c-1.936 0-3.52 1.73-3.52 3.842v.297A12.184 12.184 0 0088 49.613l3.52-7.92H88zm13.2 0h-3.52l3.52 7.92a12.188 12.188 0 003.52-3.781v-.297c0-2.113-1.584-3.842-3.52-3.842z" fill="#fff"/><path d="M97.429 41.693h-5.658A3.782 3.782 0 0088 45.465v4.003a12.32 12.32 0 006.6 1.905c2.427 0 4.69-.698 6.6-1.905v-4.003a3.782 3.782 0 00-3.771-3.772z" fill="#fff"/></svg>