<svg width="90" height="76" fill="none" xmlns="http://www.w3.org/2000/svg"><path opacity=".5" fill-rule="evenodd" clip-rule="evenodd" d="M15.77 0h73.18C89.527 0 90 .473 90 1.056v58.27a1.06 1.06 0 01-1.051 1.056H15.77a1.059 1.059 0 01-1.052-1.056V1.056A1.059 1.059 0 0115.771 0z" fill="#C4D3EA"/><path opacity=".5" fill-rule="evenodd" clip-rule="evenodd" d="M8.416 7.36H81.59a1.06 1.06 0 011.056 1.056v58.27a1.06 1.06 0 01-1.056 1.05H8.416a1.056 1.056 0 01-1.056-1.05V8.415c0-.583.473-1.056 1.056-1.056z" fill="#C4D3EA"/><path fill-rule="evenodd" clip-rule="evenodd" d="M1.056 75.096H74.23a1.06 1.06 0 001.057-1.056V15.77a1.06 1.06 0 00-1.057-1.05H1.056C.474 14.72 0 15.192 0 15.77v58.27c0 .583.473 1.056 1.056 1.056z" fill="#fff"/><path fill-rule="evenodd" clip-rule="evenodd" d="M1.056 75.096h21.606l9.701-7.36 5.028-7.369-13.787-13.788c-.633-.627-1.201-.667-1.87 0L0 68.315v5.725c0 .583.473 1.056 1.056 1.056z" fill="#3935D8"/><path fill-rule="evenodd" clip-rule="evenodd" d="M22.662 75.096H74.23a1.06 1.06 0 001.057-1.056V48.857L63.023 36.599c-.603-.608-1.246-.618-1.864 0L22.662 75.096z" fill="#3935D8"/><path fill-rule="evenodd" clip-rule="evenodd" d="M75.286 54.128v-5.271L63.023 36.599c-.603-.608-1.246-.618-1.864 0l-1.704 1.704 15.83 15.825zm-40.53 8.875l2.636-2.636-13.788-13.788c-.633-.627-1.2-.667-1.869 0l-1.704 1.704 14.725 14.72z" fill="#201DAD"/></svg>