<svg width="760" height="721" fill="none" xmlns="http://www.w3.org/2000/svg"><path d="M397.467 223.678c26.5-1.673 64.6-11.512 78.927-28.841 10.019-12.13 12.372-21.637 3.585-37.79 0 0-2.298 42.536-82.512 66.626v.005z" fill="#F5F9FC"/><path d="M375.535 203.377c3.48 16.241 14.41 19.368 18.569 20.064 8.042 1.37 45.523-.613 72.957-20.218-43.667 17.92-91.526.149-91.526.149v.005z" fill="#F5F9FC"/><path d="M215.748 284.472c18.447 5.883 47.859 33.293 76.767 38.248 0 0 21.922-16.92 40.226-16.042 0 0-53.509-21.902-62.888-30.73-14.36-2.988-24.965 6.419-54.105 8.524z" fill="#fff"/><path d="M300.949 292.858c-6.865-.254-15.006-1.16-23.661-2.751-14.482-2.663-26.959-6.596-34.084-10.402-7.147 1.917-15.808 3.928-27.456 4.767 18.447 5.883 47.859 33.294 76.767 38.249 0 0 21.922-16.92 40.226-16.042 0 0-15.84-6.48-31.792-13.821zM68.328 423.371s54.154-14.837 82.936-35.436c0 0 23.298 7.504 43.254 2.655 0 0-54.532 28.994-89.885 34.711-35.355 5.712-36.303-1.925-36.303-1.925l-.002-.005zm257.461 58.876s-58.601 6.408-94.713-1.983c0 0-19.784 15.644-41.137 18.577 0 0 64.501 6.585 101.198-1.281 36.702-7.866 34.652-15.313 34.652-15.313zm32.927-289.839l60.596-41.221s-23.938-38.955-45.202-94.55l-66.407 43.978s15.305 34.337 51.019 91.793h-.006z" fill="#F5F9FC"/><path d="M356.706 121.892c.944-22.45 4.441-43.214 9.599-60.08l-58.602 38.807s15.305 34.338 51.019 91.793l4.43-3.016c-5.016-17.936-7.529-41.568-6.446-67.498v-.006z" fill="#fff"/><path d="M335.872 128.018l14.134-9.341-.448-1.293-14.283 9.64.597.994zm8.6 16.682l9.08-5.954-.834-1.249-9.102 5.845.856 1.358zm10.619-6.89l2.546-1.807-.828-1.243-2.58 1.68.862 1.37zm-15.85-17.599l9.284-5.966-.486-1.459-9.24 6.082.442 1.343zm21.634-15.875l-11.345 7.469.486 1.469 11.4-7.325-.541-1.613zm1.462-.97l.541 1.63 4.822-3.099.061-2.105-5.424 3.574zm-25.029 16.476l-4.579 3.01.823 1.006 4.187-2.702-.431-1.314zm29.001-8.407l-12.902 8.568.475 1.453 12.875-8.678-.448-1.343zm-21.256 15.776l7.103-4.646-.492-1.475-7.147 4.503.536 1.618zm-1.463.973l-.541-1.63-5.347 3.961.47 1.237 5.418-3.568zm38.514-9.963l-7.744 5.027.486 1.453 7.705-5.143-.447-1.337zm-16.059 12.235l7.102-4.645-.491-1.47-7.147 4.502.536 1.613zm-1.49.98l-.542-1.635-5.357 3.955.475 1.248 5.424-3.568zm27.15-1.748l-7.749 5.021.486 1.453 7.71-5.137-.447-1.337zm-16.065 12.23l7.108-4.64-.497-1.475-7.147 4.508.536 1.607zm-1.469.979l-.541-1.63-5.341 3.955.464 1.243 5.418-3.568zm-33.644-29.537l11.118-7.148-.563-1.685-11.069 7.292.514 1.541zm20.9-15.649l-8.881 5.839.574 1.707 8.915-5.734-.608-1.812zm-22.401 16.583l-.503-1.502-8.771 5.767.917 1.127 8.473-5.442-.116.05zm23.898-17.555l.607 1.828 5.496-3.53.061-2.364-6.164 4.066zm-11.153 60.901l14.134-9.353-.447-1.281-14.283 9.639.596.995zm3.332-7.823l9.29-5.966-.486-1.452-9.246 6.087.442 1.331zm21.639-15.86l-11.351 7.463.492 1.475 11.4-7.325-.541-1.613zm1.495-.98l.536 1.64 4.821-3.104.061-2.099-5.418 3.563zm-25.068 16.486l-4.578 3.005.823 1.006 4.192-2.696-.437-1.315zm29.013-8.406l-12.913 8.562.486 1.453 12.863-8.684-.436-1.331zm-21.223 15.771l7.097-4.652-.486-1.469-7.153 4.508.542 1.613zm-1.502.972l-.541-1.629-5.352 3.961.475 1.243 5.418-3.575zm-3.069-14.829l11.119-7.153-.564-1.68-11.068 7.287.513 1.546zm20.895-15.648l-8.876 5.845.569 1.696 8.915-5.729-.608-1.812zM354.887 143.9l-.497-1.497-8.776 5.773.922 1.121 8.467-5.447-.116.05zm23.898-17.555l.614 1.834 5.49-3.53.066-2.359-6.17 4.055zm-29.898 10.18l9.279-5.972-.486-1.453-9.246 6.088.453 1.337zm15.419-11.699l-5.142 3.304.492 1.464 5.181-3.149-.531-1.619zm2.691-1.766l.552 1.635 9.821-6.48.06-2.099-10.433 6.944zm-20.06 13.101l-4.573 3.01.823 1 4.187-2.69-.437-1.32zm1.86-5.235l10.56-6.789-.53-1.602-10.511 6.916.481 1.475zm19.859-14.859l-8.434 5.546.541 1.613 8.462-5.441-.569-1.718zm-21.293 15.742l-.475-1.43-8.323 5.485.873 1.061 8.041-5.16-.116.044zm22.689-16.67l.58 1.74 5.225-3.353.055-2.242-5.86 3.855z" fill="#C4D3EA"/><path d="M348.12 409.524l64.12 35.487s23.96-38.939 63.976-82.999l-69.201-39.436s-23.734 29.15-58.895 86.948z" fill="#F5F9FC"/><path d="M410.141 375.91c20.458-9.286 40.563-15.533 57.939-18.538l-61.065-34.796s-23.734 29.15-58.895 86.948l4.695 2.597c13.737-12.568 33.698-25.477 57.326-36.211z" fill="#fff"/><path d="M395.273 360.103l14.714 8.402.95-.983-15.045-8.397-.619.978zm-11.005 15.18l9.406 5.419.74-1.315-9.318-5.491-.828 1.387zm10.927 6.366l2.762 1.458.734-1.303-2.667-1.547-.829 1.392zm8.576-22.082l9.511 5.596 1.077-1.089-9.593-5.507-.995 1zm23.919 12.145l-11.781-6.755-1.094 1.099 11.682 6.866 1.193-1.21zm1.533.882l-1.209 1.221 4.943 2.906 1.906-.895-5.64-3.232zm-26.017-14.901l-4.745-2.735-.524 1.188 4.297 2.519.972-.972zm20.591 22.073l-13.46-7.656-1.083 1.083 13.549 7.579.994-1.006zm-23.667-11.837l7.346 4.242 1.099-1.105-7.247-4.347-1.198 1.21zm-1.539-.885l1.21-1.215-5.938-2.983-.9.972 5.628 3.226zm26.296 29.908l-7.976-4.646-1.077 1.088 8.058 4.557.995-.999zm-18.178-8.826l7.346 4.237 1.094-1.1-7.241-4.353-1.199 1.216zm-1.533-.884l1.204-1.215-5.938-2.995-.9.978 5.634 3.232zm13.802 23.454l-7.975-4.656-1.083 1.088 8.07 4.568.988-1zm-18.144-8.838l7.346 4.253 1.099-1.104-7.252-4.353-1.193 1.204zm-1.539-.878l1.21-1.216-5.943-2.988-.895.978 5.628 3.226zm11.173-43.358l11.389 6.695 1.254-1.26-11.5-6.595-1.143 1.16zm23.407 11.603l-9.224-5.292-1.259 1.276 9.136 5.375 1.347-1.359zm-24.933-12.521l1.116-1.127-9.108-5.225-.586 1.325 8.677 5.11-.099-.083zm26.462 13.408l-1.359 1.37 5.623 3.309 2.137-1.011-6.401-3.668zm-59.399 17.521l14.72 8.402.95-.983-15.051-8.396-.619.977zm8.498-.535l9.517 5.595 1.077-1.088-9.605-5.507-.989 1zm23.919 12.146l-11.781-6.761-1.094 1.104 11.682 6.872 1.193-1.215zm1.544.891l-1.221 1.215 4.949 2.906 1.895-.895-5.623-3.226zm-26.028-14.922l-4.745-2.724-.525 1.183 4.297 2.53.973-.989zm20.591 22.089l-13.466-7.662-1.077 1.089 13.549 7.562.994-.989zm-23.668-11.838l7.357 4.243 1.089-1.105-7.247-4.348-1.199 1.21zm-1.533-.883l1.21-1.22-5.943-2.989-.9.983 5.633 3.226zm11.872-9.434l11.4 6.7 1.248-1.259-11.499-6.596-1.149 1.155zm23.401 11.608l-9.218-5.286-1.259 1.276 9.135 5.369 1.342-1.359zm-24.922-12.52l1.111-1.127-9.108-5.226-.586 1.331 8.683 5.105-.1-.083zm26.456 13.403l-1.359 1.375 5.629 3.309 2.132-1.005-6.402-3.679zm-22.585-22.095l9.511 5.59 1.083-1.088-9.605-5.502-.989 1zm17.396 8.489l-5.264-3.105-1.088 1.099 5.153 3.21 1.199-1.204zm2.813 1.591l-1.215 1.232 10.212 5.844 1.9-.895-10.897-6.181zm-20.731-11.965l-4.75-2.723-.525 1.182 4.297 2.524.978-.983zm5.496-.719l10.825 6.364 1.188-1.199-10.914-6.259-1.099 1.094zm22.211 11.026l-8.754-5.016-1.199 1.205 8.677 5.098 1.276-1.287zm-23.659-11.896l1.055-1.066-8.644-4.955-.558 1.254 8.235 4.85-.088-.083zm25.141 12.732l-1.292 1.303 5.346 3.149 2.027-.967-6.081-3.485z" fill="#C4D3EA"/><path d="M0 338.689c26.17-9.706 61.557-31.139 70.731-52.921 6.424-15.24 5.91-25.526-7.821-39.121 0 0-.282 47.943-62.91 92.042z" fill="#fff"/><path d="M186.285 18.012c-6.07-14.18-17.52-17.07-21.8-17.749-8.28-1.32-26.457 4.96-47.953 15.6 36.16-14.23 69.753 2.155 69.753 2.155v-.006z" fill="#F5F9FC"/><path d="M161.063 0c-26.296 1.033-62.926 8.982-74.536 23.83-8.12 10.391-8.964 18.622 2.414 32.808 0 0 6.484-37.718 72.122-56.638z" fill="#fff"/><path d="M661.295 303.909l63.385-37.508s-26.042-38.083-49.571-92.031l-69.489 39.95s16.824 33.387 55.675 89.589z" fill="#F5F9FC"/><path d="M657.876 236.294c.585-21.466 3.91-41.242 9.058-57.229l-61.314 35.254s16.824 33.388 55.675 89.589l4.639-2.745c-5.639-17.34-8.732-40.06-8.058-64.863v-.006z" fill="#fff"/><path d="M635.958 241.491l14.792-8.485-.497-1.254-14.946 8.767.651.972zm9.373 16.26l9.5-5.408-.911-1.232-9.528 5.303.939 1.337zm11.123-6.265l2.662-1.641-.911-1.221-2.69 1.525.939 1.337zm-17.093-17.378l9.716-5.408-.542-1.408-9.665 5.518.491 1.298zm22.624-14.483l-11.875 6.778.541 1.425 11.936-6.645-.602-1.558zm1.519-.885l.602 1.575 5.048-2.806.023-2.017-5.673 3.248zm-26.184 14.961l-4.795 2.734.89.989 4.385-2.441-.48-1.282zm30.524-7.094l-13.504 7.777.53 1.404 13.46-7.894-.486-1.287zm-22.19 14.409l7.435-4.22-.547-1.426-7.484 4.077.596 1.569zm-1.533.88l-.608-1.58-5.584 3.618.519 1.199 5.673-3.237zm40.611-8.283l-8.108 4.563.536 1.403 8.063-4.674-.491-1.292zm-16.793 11.192l7.428-4.221-.541-1.414-7.484 4.077.597 1.558zm-1.566.886l-.602-1.586-5.595 3.618.519 1.205 5.678-3.237zm28.71-.783l-8.12 4.558.547 1.408 8.07-4.673-.497-1.293zm-16.772 11.193l7.44-4.22-.552-1.426-7.479 4.083.591 1.563zm-1.56.884l-.607-1.58-5.59 3.619.519 1.198 5.678-3.237zm-36.176-29.393l11.638-6.48-.619-1.63-11.588 6.624.569 1.486zm21.885-14.303l-9.295 5.303.635 1.657 9.329-5.203-.669-1.757zm-23.447 15.147l-.552-1.453-9.185 5.243.999 1.104 8.865-4.933-.127.039zm24.999-16.029l.68 1.773 5.75-3.199.022-2.265-6.452 3.691zm-10.71 57.972l14.792-8.496-.497-1.249-14.941 8.762.646.983zm3.409-7.377l9.721-5.408-.542-1.42-9.671 5.53.492 1.298zm22.585-14.491l-11.875 6.773.546 1.43 11.931-6.645-.602-1.558zm1.558-.895l.596 1.586 5.054-2.812.022-2.011-5.672 3.237zm-26.19 14.967l-4.789 2.734.884.984 4.391-2.442-.486-1.276zm30.535-7.095l-13.51 7.778.547 1.403 13.455-7.888-.492-1.293zm-22.189 14.405l7.428-4.22-.546-1.425-7.484 4.088.602 1.557zm-1.571.884l-.608-1.579-5.59 3.618.525 1.21 5.673-3.249zm-3.509-14.297l11.643-6.486-.629-1.629-11.588 6.618.574 1.497zm21.874-14.304l-9.29 5.303.635 1.652 9.329-5.198-.674-1.757zm-23.442 15.143l-.558-1.458-9.18 5.247.994 1.105 8.871-4.938-.127.044zm24.961-16.036l.685 1.779 5.744-3.199.028-2.265-6.457 3.685zm-31.459 8.773l9.715-5.414-.541-1.403-9.671 5.524.497 1.293zm16.121-10.7l-5.38 2.994.547 1.42 5.43-2.845-.597-1.569zm2.806-1.609l.607 1.586 10.285-5.883.022-2.011-10.914 6.308zm-20.98 11.901l-4.789 2.734.889.984 4.386-2.442-.486-1.276zm1.857-4.961l11.052-6.154-.591-1.552-10.997 6.281.536 1.425zm20.776-13.576l-8.821 5.032.597 1.563 8.865-4.927-.641-1.668zm-22.261 14.375l-.53-1.381-8.705 4.983.945 1.044 8.412-4.684-.122.038zm23.702-15.221l.647 1.684 5.457-3.038.027-2.143-6.131 3.497z" fill="#C4D3EA"/><path d="M431.937 637.465l14.874-8.872 7.108 12.512-21.982-3.64z" fill="#F5F9FC"/><path d="M698.716 431.534s-94.454 4.088-134.978-16.578c0 0-29.069 20.594-55.708 20.831 0 0 75.304 21.853 121.982 18.799 33.045-2.166 68.704-23.052 68.704-23.052z" fill="#C4D3EA"/><path d="M488.689 720.184h271.143c-38.702-85.8-59.596-162.783-56.31-251.261l-64.965-32.537-132.828 28.918c10.041 62.207-.172 155.342-17.045 254.88h.005z" fill="#F5F9FC"/><path d="M759.836 720.184c-29.091-87.021-52.034-165.733-56.309-251.261l-64.965-32.537c10.897 90.721 9.257 174.107 7.219 283.798h114.055z" fill="#fff"/><path d="M675.135 720.185H424.886c19.227-50.562 24.336-84.562 21.177-144.614l123.202-21.693 96.254 30.73c-10.108 52.291-5.502 85.004 9.621 135.577h-.005z" fill="#fff"/><path d="M460.974 580.988s-5.777-15.356-7.694-24.852c0 0 38.497 10.396 91.438 5.424l-83.739 19.428h-.005z" fill="#C4D3EA"/><path d="M553.38 720.185H424.886c17.863-54.671 19.84-87.479 21.177-144.614l123.202-21.693c-.31 64.388-7.181 118.436-15.88 166.307h-.005z" fill="#F5F9FC"/><path d="M476.505 529.436s53.1 23.024 98.943 13.91l35.449-44.938s-100.944.613-121.197-14.794l-13.195 45.822z" fill="#fff"/><path d="M489.729 483.614l-.066.227c.398.171.784.326 1.182.508-.376-.249-.784-.486-1.121-.735h.005z" fill="#F4E3BD"/><path d="M586.795 502.044l-51.389-46.546s34.984-30.382 71.664-75.916l56.647 49.948s-24.882 27.758-76.922 72.514z" fill="#F5F9FC"/><path d="M607.618 440.108c4.999-19.981 6.927-38.906 6.109-54.661l49.986 44.082s-24.883 27.758-76.923 72.514l-3.761-3.408c9.936-14.992 18.812-35.448 24.595-58.527h-.006z" fill="#fff"/><path d="M627.402 449.014l-12.063-10.622.806-1.061 12.135 10.905-.878.778zm-13.238 13.297l-7.755-6.778 1.188-.967 7.821 6.678-1.254 1.067zm-9.097-7.872l-2.143-2.016 1.193-.962 2.198 1.917-1.248 1.061zm20.972-12.89l-7.959-6.823.884-1.204 7.887 6.916-.812 1.111zm-18.053-17.638l9.694 8.496-.89 1.215-9.792-8.374.988-1.337zm-1.263-1.111l-.988 1.354-4.143-3.541.497-1.867 4.634 4.054zm21.4 18.751l3.91 3.425-1.115.752-3.596-3.083.801-1.094zm-27.604-12.274l11.002 9.722-.872 1.204-10.936-9.821.806-1.105z" fill="#CCCCE0"/><path d="M618.164 446.767l-6.076-5.303.9-1.215 6.153 5.176-.977 1.342zm1.286 1.102l.994-1.348 4.447 4.386-.807 1.017-4.634-4.055zm-37.014-15.258l6.634 5.74-.89 1.199-6.561-5.834.817-1.105zm13.282 13.495l-6.07-5.298.889-1.21 6.159 5.176-.978 1.332zm1.253 1.107l.995-1.348 4.451 4.392-.817 1.027-4.629-4.071zm-27.458-6.082l6.639 5.734-.884 1.204-6.573-5.833.818-1.105zm13.291 13.489l-6.081-5.286.9-1.227 6.153 5.187-.972 1.326zm1.244 1.113l.988-1.348 4.452 4.391-.812 1.017-4.628-4.06zm42.519-20.448l-9.545-8.175 1.022-1.392 9.461 8.291-.938 1.276zm-17.375-17.323l7.589 6.651-1.044 1.409-7.644-6.558 1.099-1.502zm18.638 18.399l.911-1.243 7.496 6.563-1.249.834-7.274-6.22.116.066zm-19.902-19.51l-1.116 1.519-4.711-4.032.557-2.099 5.27 4.612zm-4.735 55.656l-12.058-10.623.807-1.066 12.134 10.904-.883.785zm-1.385-7.467l-7.97-6.822.889-1.204 7.898 6.921-.817 1.105zm-18.031-17.628l9.693 8.49-.889 1.216-9.787-8.375.983-1.331zm-1.257-1.115l-.989 1.354-4.142-3.547.502-1.867 4.629 4.06zm21.399 18.746l3.911 3.42-1.11.751-3.602-3.082.801-1.089zm-27.598-12.279l11.008 9.722-.884 1.199-10.936-9.817.812-1.104zm17.635 17.485l-6.07-5.292.9-1.216 6.153 5.171-.983 1.337zm1.291 1.112l.994-1.348 4.446 4.391-.812 1.017-4.628-4.06zm7.073-12.574l-9.539-8.181 1.022-1.387 9.456 8.286-.939 1.282zm-17.364-17.323l7.578 6.645-1.032 1.403-7.65-6.557 1.104-1.491zm18.666 18.388l.917-1.243 7.484 6.574-1.243.834-7.268-6.225.11.06zm-19.935-19.504l-1.122 1.514-4.705-4.033.552-2.094 5.275 4.613z" fill="#C4D3EA"/><path d="M611.751 454.336l-7.964-6.822.889-1.199 7.893 6.922-.818 1.099zm-12.745-12.907l4.418 3.773-.9 1.216-4.496-3.646.978-1.343zm-2.28-2.012l-1.005 1.353-8.385-7.363.497-1.868 8.893 7.878zm17.136 14.928l3.911 3.431-1.11.746-3.596-3.088.795-1.089zm-.505-4.941l-9.063-7.756.972-1.325 8.975 7.871-.884 1.21zm-16.517-16.445l7.202 6.309-.983 1.336-7.263-6.22 1.044-1.425zm17.737 17.467l.872-1.182 7.109 6.237-1.182.795-6.899-5.911.1.061zm-18.92-18.52l-1.06 1.447-4.48-3.834.542-1.999 4.998 4.386z" fill="#CCCCE0"/><path d="M529.296 629.344l37.531-6.773 49.571 19.881-50.052-14.014-37.05.906z" fill="#fff"/><path d="M532.076 603.02l37.006-8.999 70.919 20.412-71.002-14.512-36.923 3.099z" fill="#F5F9FC"/><path d="M610.403 544.612l35.371-9.491 35.371 16.948-34.647-10.164-36.095 2.707z" fill="#E6E5F0"/><path d="M359.042 720.186H108.793c17.564-41.652 21.475-65.83 5.778-106.653 43.38-7.701 65.848-22.577 98.17-46.999l136.679 18.075c-7.318 40.773-4.761 84.849 9.622 135.577z" fill="#fff"/><path d="M233.923 720.186h-125.13c11.135-42.845 14.974-67.957 5.778-106.653 42.159-11.181 64.357-22.82 98.17-46.999-6.837 46.982 2.596 100.102 21.177 153.652h.005z" fill="#F5F9FC"/><path d="M158.648 607.236l52.405-19.898 66.064 28.267-65.048-17.727-53.421 9.358zm2.428 34.563l54.608 8.827 61.684-15.942-62.092 10.573-54.2-3.458z" fill="#F5F9FC"/><path d="M79.95 642.207l-12.67 2.11 23.402 75.839 13.974-4.004-24.705-73.945z" fill="#E05434"/><path d="M81.043 651.303c0-2.767-2.044-5.12-4.568-5.12-2.524 0-4.38 2.353-4.165 5.12.21 2.641 2.243 4.685 4.552 4.685 2.303 0 4.18-2.044 4.18-4.685z" fill="#FFF4A6"/><path d="M80.206 651.134c0-2.055-1.502-3.801-3.353-3.801-1.855 0-3.22 1.746-3.06 3.801.155 1.955 1.646 3.48 3.342 3.48 1.696 0 3.071-1.519 3.071-3.48z" fill="#A52D19"/><path d="M83.733 663.579l-5.684 1.419 13.836 47.203 8.346-2.43-16.498-46.192z" fill="#FFF4A6"/><path d="M79.25 651.235c-.216-1.58-1.547-2.768-2.972-2.574-1.425.193-2.292 1.674-1.955 3.237.32 1.491 1.624 2.502 2.927 2.326 1.304-.172 2.204-1.486 2-2.989z" fill="#CC9B6A"/><path d="M54.16 720.185c8.203-30.045 8.772-47.833 10.467-78.513l153.724-37.293c-1.574 44.485.37 77.486 11.118 115.806H54.161z" fill="#C4D3EA"/><path d="M157.518 619.145c-3.402 39.458-7.048 65.973-24.17 101.04h96.143c-10.753-38.32-12.692-71.315-11.118-115.806l-60.855 14.766z" fill="#F5F9FC"/><path d="M124.416 713.073l80.833 6.977h-84.903l4.07-6.977zm41.521-87.146l-27.301 8.253 24.667-1.353 2.634-6.9zm-88.614 19.099l-21.519-2.038 63.098-14.54-41.58 16.578zm.573 56.507l-28.24 3.828 24.562 2.569 3.678-6.397zm63.481-36.872l27.313-8.28-24.7 1.381-2.613 6.899zm-7.481 36.939l28.379 3.027-23.281-8.358-5.098 5.331z" fill="#C4D3EA"/><path d="M217.925 623.352l-27.986 3.347 28.009-.392-.023-2.955zm-5.38-11.485l15.409-10.176-27.284 7.242 11.875 2.934zM68.61 683.41l18.028 2.033 29.947-7.269-47.975 5.236z" fill="#F5F9FC"/><path d="M79.342 643.567l41.005-6.104 10.754-6.983-51.759 13.087z" fill="#C4D3EA"/><path d="M190.996 695.913l-32.857-4.359 51.178.58-18.321 3.779zm18.33-53.799l19.773.585-13.957 4.066-5.816-4.651zm-2.899 21.229l19.768.586L212.237 668l-5.81-4.657z" fill="#F5F9FC"/></svg>