<svg width="576" height="546" fill="none" xmlns="http://www.w3.org/2000/svg"><g opacity=".9"><path d="M300.885 169.326c20.062-1.267 48.903-8.714 59.749-21.832 7.585-9.183 9.366-16.38 2.714-28.608 0 0-1.74 32.2-62.463 50.436v.004z" fill="#F0F0F7"/><path d="M284.283 153.958c2.634 12.295 10.908 14.662 14.057 15.188 6.088 1.038 34.461-.464 55.229-15.305-33.057 13.566-69.286.113-69.286.113v.004z" fill="#F0F0F7"/><path d="M163.323 215.347c13.965 4.454 36.229 25.204 58.113 28.955 0 0 16.595-12.809 30.452-12.144 0 0-40.507-16.581-47.607-23.263-10.871-2.262-18.899 4.859-40.958 6.452z" fill="#fff"/><path d="M227.821 221.696c-5.197-.193-11.36-.879-17.912-2.083-10.963-2.015-20.408-4.993-25.802-7.874-5.41 1.451-11.966 2.973-20.784 3.609 13.965 4.453 36.229 25.203 58.113 28.954 0 0 16.595-12.809 30.452-12.144 0 0-11.992-4.905-24.067-10.462zM51.725 320.495s40.995-11.232 62.783-26.825c0 0 17.637 5.68 32.744 2.01 0 0-41.282 21.948-68.044 26.276-26.764 4.324-27.481-1.457-27.481-1.457l-.002-.004zm194.9 44.57s-44.362 4.85-71.698-1.502c0 0-14.977 11.843-31.142 14.064 0 0 48.828 4.984 76.607-.971 27.784-5.954 26.233-11.591 26.233-11.591zm24.926-219.411l45.871-31.204s-18.121-29.49-34.218-71.575l-50.27 33.291s11.586 25.994 38.621 69.488h-.004z" fill="#F0F0F7"/><path d="M270.029 92.274c.715-16.995 3.362-32.714 7.267-45.48L232.934 76.17s11.586 25.994 38.621 69.488l3.353-2.283c-3.796-13.578-5.698-31.468-4.879-51.097v-.004z" fill="#fff"/><path d="M254.257 96.91l10.7-7.07-.339-.98-10.812 7.298.451.753zm6.511 12.63l6.874-4.508-.632-.945-6.89 4.424.648 1.029zm8.039-5.217l1.927-1.367-.627-.941-1.953 1.271.653 1.037zM256.808 91l7.029-4.516-.368-1.104-6.995 4.605.334 1.016zm16.377-12.017l-8.588 5.654.368 1.112 8.63-5.545-.41-1.22zm1.107-.733l.41 1.233 3.65-2.346.046-1.593-4.106 2.705zm-18.947 12.471l-3.466 2.28.623.76 3.169-2.044-.326-.996zm21.954-6.363l-9.767 6.485.359 1.1 9.747-6.57-.339-1.016zM261.208 96.3l5.377-3.517-.372-1.117-5.411 3.409.406 1.225zm-1.108.737l-.409-1.234-4.048 2.998.356.937 4.101-2.701zm29.156-7.542l-5.862 3.805.368 1.1 5.832-3.894-.338-1.011zm-12.157 9.262l5.377-3.517-.373-1.112-5.41 3.408.406 1.22zm-1.128.741l-.41-1.238-4.056 2.994.36.945 4.106-2.701zm20.552-1.323l-5.866 3.801.368 1.1 5.837-3.89-.339-1.011zm-12.161 9.258l5.381-3.512-.376-1.117-5.41 3.413.405 1.216zm-1.111.741l-.41-1.233-4.043 2.994.351.941 4.102-2.702zm-25.47-22.36l8.417-5.41-.427-1.276-8.379 5.52.389 1.166zm15.822-11.845l-6.723 4.42.435 1.292 6.748-4.34-.46-1.372zm-16.958 12.553l-.38-1.138-6.64 4.366.694.853 6.414-4.119-.088.038zm18.091-13.29l.46 1.384 4.16-2.672.046-1.79-4.666 3.078zm-8.443 46.102l10.7-7.079-.339-.971-10.812 7.298.451.752zm2.522-5.921l7.033-4.516-.368-1.1-6.999 4.608.334 1.008zm16.381-12.006l-8.592 5.649.372 1.117 8.63-5.545-.41-1.221zm1.132-.742l.406 1.241 3.65-2.35.046-1.589-4.102 2.698zm-18.976 12.48l-3.466 2.275.623.761 3.173-2.041-.33-.995zm21.963-6.364l-9.776 6.482.368 1.1 9.738-6.574-.33-1.008zm-16.067 11.939l5.373-3.521-.368-1.113-5.414 3.413.409 1.221zm-1.136.736l-.41-1.233-4.051 2.998.359.941 4.102-2.706zm-2.323-11.225l8.416-5.416-.426-1.271-8.379 5.516.389 1.171zm15.817-11.846l-6.719 4.424.431 1.284 6.748-4.337-.46-1.371zm-16.953 12.549l-.377-1.134-6.644 4.37.699.849 6.409-4.123-.087.038zm18.09-13.29l.465 1.388 4.156-2.672.05-1.785-4.671 3.069zm-22.633 7.706l7.024-4.52-.368-1.1-6.999 4.608.343 1.012zm11.673-8.855l-3.893 2.5.372 1.108 3.922-2.383-.401-1.225zm2.036-1.338l.418 1.238 7.435-4.905.046-1.59-7.899 5.257zm-15.185 9.918l-3.462 2.279.623.757 3.169-2.037-.33-.999zm1.408-3.963l7.994-5.14-.401-1.212-7.957 5.235.364 1.117zm15.034-11.248l-6.385 4.198.41 1.221 6.405-4.119-.43-1.3zM262.957 99.78l-.36-1.082-6.301 4.152.661.803 6.088-3.906-.088.034zm17.175-12.619l.439 1.318 3.956-2.539.042-1.697-4.437 2.918z" fill="#D4D4E5"/><path d="M263.53 310.013l48.539 26.863s18.138-29.477 48.43-62.83l-52.386-29.854s-17.966 22.067-44.583 65.821z" fill="#F0F0F7"/><path d="M310.48 284.567c15.487-7.03 30.706-11.759 43.86-14.034l-46.227-26.341s-17.966 22.067-44.583 65.821l3.554 1.965c10.398-9.513 25.509-19.286 43.396-27.411z" fill="#fff"/><path d="M299.225 272.601l11.138 6.36.72-.744-11.39-6.357-.468.741zm-8.331 11.491l7.12 4.102.561-.995-7.054-4.157-.627 1.05zm8.272 4.819l2.09 1.104.556-.987-2.019-1.171-.627 1.054zm6.492-16.716l7.2 4.236.815-.824-7.262-4.169-.753.757zm18.107 9.194l-8.919-5.114-.828.832 8.844 5.198.903-.916zm1.16.668l-.915.924 3.742 2.2 1.442-.678-4.269-2.446zm-19.695-11.281l-3.592-2.07-.397.899 3.253 1.907.736-.736zm15.588 16.71l-10.19-5.796-.819.819 10.256 5.738.753-.761zm-17.917-8.961l5.561 3.211.832-.836-5.485-3.291-.908.916zm-1.165-.67l.916-.92-4.495-2.258-.681.736 4.26 2.442zm19.906 22.64l-6.037-3.516-.816.823 6.101 3.45.752-.757zm-13.76-6.681l5.561 3.208.828-.833-5.482-3.295-.907.92zm-1.161-.669l.912-.92-4.495-2.266-.682.74 4.265 2.446zM317.17 310.9l-6.038-3.525-.819.824 6.109 3.458.748-.757zm-13.736-6.69l5.561 3.22.832-.837-5.49-3.295-.903.912zm-1.165-.665l.916-.92-4.499-2.262-.677.74 4.26 2.442zm8.458-32.823l8.622 5.069.949-.954-8.705-4.993-.866.878zm17.72 8.784l-6.983-4.006-.953.966 6.916 4.069 1.02-1.029zm-18.875-9.479l.845-.853-6.895-3.955-.443 1.003 6.568 3.868-.075-.063zm20.032 10.15l-1.029 1.038 4.257 2.504 1.618-.765-4.846-2.777zm-44.965 13.265l11.142 6.36.72-.744-11.394-6.357-.468.741zm6.433-.406l7.204 4.236.815-.824-7.271-4.169-.748.757zm18.106 9.194l-8.918-5.118-.828.836 8.843 5.202.903-.92zm1.169.675l-.924.92 3.747 2.2 1.434-.678-4.257-2.442zm-19.703-11.296l-3.592-2.062-.397.895 3.253 1.915.736-.748zm15.588 16.722l-10.194-5.8-.815.824 10.256 5.724.753-.748zm-17.917-8.961l5.569 3.211.824-.836-5.486-3.291-.907.916zm-1.161-.669l.916-.924-4.499-2.262-.681.744 4.264 2.442zm8.987-7.142l8.63 5.073.945-.954-8.705-4.993-.87.874zm17.715 8.788l-6.978-4.002-.953.966 6.915 4.064 1.016-1.028zm-18.866-9.478l.841-.853-6.895-3.956-.443 1.007 6.572 3.864-.075-.062zm20.027 10.146l-1.028 1.041 4.26 2.505 1.614-.761-4.846-2.785zm-17.097-16.726l7.2 4.232.82-.824-7.271-4.165-.749.757zm13.169 6.426l-3.985-2.35-.823.832 3.901 2.43.907-.912zm2.13 1.204l-.92.933 7.731 4.424 1.438-.677-8.249-4.68zm-15.694-9.057l-3.596-2.062-.397.895 3.253 1.911.74-.744zm4.16-.544l8.195 4.817.899-.908-8.262-4.737-.832.828zm16.815 8.347l-6.628-3.797-.907.911 6.569 3.86.966-.974zm-17.91-9.006l.798-.807-6.543-3.751-.423.95 6.234 3.671-.066-.063zm19.032 9.638l-.979.987 4.047 2.383 1.535-.732-4.603-2.638z" fill="#D4D4E5"/><path d="M0 256.39c19.81-7.348 46.599-23.573 53.544-40.061 4.863-11.538 4.474-19.324-5.92-29.615 0 0-.214 36.293-47.624 69.676z" fill="#fff"/><path d="M141.019 13.635C136.424 2.9 127.757.713 124.516.199c-6.267-1-20.028 3.755-36.3 11.81 27.373-10.773 52.803 1.63 52.803 1.63v-.004z" fill="#F0F0F7"/><path d="M121.926 0C102.02.782 74.29 6.8 65.502 18.04c-6.147 7.866-6.786 14.097 1.827 24.835 0 0 4.909-28.553 54.597-42.875z" fill="#fff"/><path d="M500.605 230.061l47.983-28.394s-19.714-28.829-37.526-69.668l-52.603 30.243s12.736 25.274 42.146 67.819z" fill="#F0F0F7"/><path d="M498.017 178.877c.443-16.251 2.96-31.221 6.857-43.323l-46.415 26.688s12.736 25.274 42.146 67.819l3.512-2.078c-4.269-13.127-6.61-30.326-6.1-49.102v-.004z" fill="#fff"/><path d="M481.425 182.811l11.197-6.424-.376-.949-11.314 6.637.493.736zm7.095 12.309l7.192-4.094-.69-.933-7.212 4.015.71 1.012zm8.42-4.743l2.015-1.242-.689-.924-2.037 1.154.711 1.012zm-12.939-13.155l7.355-4.094-.41-1.066-7.317 4.177.372.983zm17.126-10.964l-8.989 5.131.409 1.078 9.036-5.03-.456-1.179zm1.15-.67l.456 1.192 3.822-2.124.016-1.527-4.294 2.459zm-19.822 11.325l-3.629 2.07.673.749 3.32-1.848-.364-.971zm23.108-5.37l-10.223 5.888.401 1.062 10.19-5.976-.368-.974zm-16.798 10.908l5.628-3.195-.414-1.079-5.666 3.086.452 1.188zm-1.161.666l-.46-1.196-4.227 2.739.393.907 4.294-2.45zm30.743-6.27l-6.138 3.454.405 1.062 6.105-3.538-.372-.978zm-12.713 8.472l5.624-3.195-.41-1.071-5.666 3.087.452 1.179zm-1.185.671l-.456-1.2-4.235 2.739.393.911 4.298-2.45zm21.733-.593l-6.146 3.45.414 1.067 6.109-3.538-.377-.979zm-12.696 8.474l5.632-3.195-.418-1.079-5.661 3.09.447 1.184zm-1.181.669l-.46-1.196-4.231 2.739.393.907 4.298-2.45zm-27.385-22.251l8.81-4.905-.469-1.234-8.772 5.014.431 1.125zm16.567-10.827l-7.037 4.014.481 1.255 7.062-3.94-.506-1.329zm-17.749 11.466l-.419-1.1-6.953 3.969.757.836 6.711-3.734-.096.029zm18.924-12.135l.514 1.342 4.353-2.421.017-1.714-4.884 2.793zm-8.107 43.886l11.197-6.432-.377-.945-11.31 6.633.49.744zm2.58-5.585l7.358-4.094-.409-1.074-7.321 4.186.372.982zm17.097-10.969l-8.99 5.127.414 1.083 9.031-5.03-.455-1.18zm1.179-.677l.452 1.2 3.825-2.129.017-1.522-4.294 2.451zm-19.826 11.33l-3.625 2.07.669.744 3.324-1.848-.368-.966zm23.116-5.371l-10.227 5.888.413 1.062 10.186-5.972-.372-.978zm-16.798 10.904l5.624-3.194-.414-1.079-5.666 3.094.456 1.179zm-1.189.67l-.46-1.196-4.232 2.739.398.916 4.294-2.459zm-2.656-10.824l8.814-4.909-.477-1.234-8.772 5.01.435 1.133zm16.559-10.828l-7.033 4.015.481 1.25 7.062-3.935-.51-1.33zm-17.747 11.464l-.422-1.104-6.949 3.972.753.837 6.714-3.739-.096.034zm18.896-12.14l.519 1.347 4.348-2.422.021-1.714-4.888 2.789zm-23.815 6.641l7.355-4.098-.41-1.062-7.321 4.181.376.979zm12.204-8.1l-4.072 2.267.414 1.075 4.11-2.154-.452-1.188zm2.124-1.217l.46 1.2 7.785-4.454.017-1.522-8.262 4.776zm-15.882 9.008l-3.625 2.07.674.745 3.319-1.849-.368-.966zm1.406-3.755l8.366-4.658-.447-1.175-8.325 4.754.406 1.079zm15.728-10.277l-6.678 3.809.452 1.184 6.711-3.73-.485-1.263zm-16.852 10.882l-.401-1.045-6.59 3.772.715.79 6.368-3.546-.092.029zm17.943-11.523l.489 1.276 4.131-2.3.021-1.623-4.641 2.647z" fill="#D4D4E5"/><path d="M326.979 482.566l11.26-6.716 5.381 9.472-16.641-2.756z" fill="#F0F0F7"/><path d="M528.933 326.675s-71.502 3.094-102.179-12.55c0 0-22.006 15.59-42.172 15.769 0 0 57.006 16.543 92.341 14.231 25.016-1.639 52.01-17.45 52.01-17.45z" fill="#D4D4E5"/><path d="M369.941 545.185h205.257c-29.297-64.951-45.115-123.228-42.627-190.207l-49.179-24.63-100.552 21.891c7.601 47.091-.13 117.595-12.903 192.946h.004z" fill="#F0F0F7"/><path d="M575.202 545.185c-22.023-65.875-39.391-125.461-42.627-190.207l-49.179-24.63c8.249 68.677 7.008 131.8 5.465 214.837h86.341z" fill="#fff"/><path d="M511.082 545.186h-189.44c14.555-38.276 18.422-64.014 16.031-109.474l93.264-16.422 72.865 23.263c-7.651 39.585-4.164 64.349 7.284 102.633h-.004z" fill="#fff"/><path d="M348.96 439.813s-4.373-11.626-5.824-18.814c0 0 29.143 7.87 69.219 4.106l-63.39 14.708h-.005z" fill="#D4D4E5"/><path d="M418.912 545.186h-97.27c13.522-41.387 15.019-66.222 16.031-109.474l93.264-16.422c-.234 48.743-5.435 89.657-12.02 125.896h-.005z" fill="#F0F0F7"/><path d="M360.717 400.787s40.198 17.43 74.901 10.53l26.835-34.018s-76.415.464-91.747-11.199l-9.989 34.687z" fill="#fff"/><path d="M370.728 366.1l-.05.171c.301.13.594.247.895.385-.284-.188-.594-.368-.849-.556h.004z" fill="#F4E3BD"/><path d="M444.208 380.051l-38.902-35.235s26.483-23 54.251-57.47l42.881 37.812s-18.836 21.013-58.23 54.893z" fill="#F0F0F7"/><path d="M459.971 333.165c3.784-15.125 5.244-29.452 4.625-41.378l37.839 33.37s-18.836 21.013-58.231 54.894l-2.847-2.581c7.522-11.349 14.241-26.834 18.619-44.305h-.005z" fill="#fff"/><path d="M474.947 339.908l-9.131-8.042.61-.803 9.186 8.255-.665.59zm-10.021 10.065l-5.87-5.131.899-.732 5.921 5.056-.95.807zm-6.886-5.959l-1.623-1.526.904-.728 1.664 1.451-.945.803zm15.876-9.758l-6.025-5.165.669-.911 5.971 5.235-.615.841zm-13.666-13.352l7.338 6.432-.673.92-7.414-6.34.749-1.012zm-.956-.841l-.749 1.025-3.135-2.681.376-1.413 3.508 3.069zm16.199 14.195l2.961 2.593-.845.569-2.722-2.334.606-.828zm-20.896-9.292l8.329 7.36-.661.912-8.278-7.435.61-.837z" fill="#CCCCE0"/><path d="M467.954 338.207l-4.599-4.015.681-.92 4.658 3.918-.74 1.017zm.974.834l.753-1.021 3.366 3.321-.611.769-3.508-3.069zm-28.02-11.551l5.022 4.345-.673.908-4.968-4.416.619-.837zm10.055 10.216l-4.595-4.011.673-.916 4.662 3.919-.74 1.008zm.949.838l.752-1.02 3.37 3.324-.619.778-3.503-3.082zm-20.787-4.605l5.026 4.341-.669.912-4.976-4.416.619-.837zm10.062 10.212l-4.604-4.002.682-.928 4.658 3.927-.736 1.003zm.941.842l.749-1.02 3.37 3.324-.615.77-3.504-3.074zm32.187-15.479l-7.225-6.188.774-1.054 7.162 6.277-.711.965zm-13.152-13.113l5.744 5.035-.79 1.066-5.787-4.964.833-1.137zm14.109 13.928l.69-.941 5.674 4.968-.945.631-5.507-4.708.088.05zm-15.067-14.769l-.844 1.15-3.567-3.053.423-1.589 3.988 3.492zm-3.584 42.131l-9.127-8.041.61-.807 9.186 8.255-.669.593zm-1.048-5.652l-6.034-5.164.674-.912 5.979 5.24-.619.836zm-13.65-13.344l7.338 6.427-.673.92-7.409-6.339.744-1.008zm-.951-.844l-.749 1.024-3.136-2.684.381-1.414 3.504 3.074zm16.199 14.191l2.96 2.588-.84.569-2.726-2.334.606-.823zm-20.892-9.296l8.333 7.36-.669.907-8.279-7.431.615-.836zm13.35 13.236l-4.595-4.006.681-.92 4.658 3.914-.744 1.012zm.977.842l.752-1.021 3.366 3.325-.614.769-3.504-3.073zm5.355-9.519l-7.221-6.193.773-1.05 7.158 6.273-.71.97zm-13.145-13.114l5.737 5.031-.782 1.062-5.791-4.964.836-1.129zm14.13 13.921l.694-.941 5.666 4.977-.941.631-5.502-4.713.083.046zm-15.091-14.765l-.849 1.146-3.562-3.053.418-1.585 3.993 3.492z" fill="#D4D4E5"/><path d="M463.1 343.936l-6.029-5.164.673-.907 5.975 5.239-.619.832zm-9.649-9.77l3.345 2.856-.681.92-3.404-2.76.74-1.016zm-1.725-1.524l-.761 1.024-6.347-5.574.376-1.413 6.732 5.963zm12.972 11.301l2.96 2.597-.84.564-2.722-2.337.602-.824zm-.382-3.74l-6.862-5.871.736-1.004 6.795 5.959-.669.916zm-12.504-12.45l5.452 4.776-.744 1.012-5.498-4.709.79-1.079zm13.427 13.223l.66-.895 5.381 4.721-.894.602-5.223-4.474.076.046zm-14.322-14.02l-.803 1.096-3.391-2.903.41-1.513 3.784 3.32z" fill="#CCCCE0"/><path d="M400.681 476.418l28.411-5.127 37.526 15.05-37.89-10.609-28.047.686z" fill="#fff"/><path d="M402.786 456.491l28.013-6.812 53.686 15.451-53.748-10.985-27.951 2.346z" fill="#F0F0F7"/><path d="M462.079 412.275l26.777-7.184 26.776 12.83-26.229-7.695-27.324 2.049z" fill="#E6E5F0"/><path d="M271.797 545.186H82.357c13.296-31.531 16.257-49.834 4.374-80.737 32.839-5.83 49.848-17.091 74.316-35.578l103.466 13.682c-5.54 30.866-3.604 64.232 7.284 102.633z" fill="#fff"/><path d="M177.081 545.186H82.357c8.43-32.434 11.335-51.444 4.374-80.737 31.915-8.464 48.719-17.275 74.316-35.578-5.177 35.565 1.965 75.777 16.03 116.315h.004z" fill="#F0F0F7"/><path d="M120.098 459.682l39.67-15.063 50.011 21.398-49.241-13.419-40.44 7.084zm1.838 26.164l41.339 6.682 46.695-12.068-47.005 8.004-41.029-2.618z" fill="#F0F0F7"/><path d="M60.523 486.155l-9.591 1.598 17.715 57.411 10.578-3.032-18.702-55.977z" fill="#E05434"/><path d="M61.35 493.042c0-2.096-1.547-3.877-3.458-3.877-1.91 0-3.316 1.781-3.153 3.877.16 1.998 1.698 3.546 3.446 3.546 1.743 0 3.165-1.548 3.165-3.546z" fill="#FFF4A6"/><path d="M60.717 492.913c0-1.556-1.138-2.877-2.538-2.877-1.405 0-2.438 1.321-2.317 2.877.117 1.48 1.246 2.635 2.53 2.635 1.283 0 2.325-1.15 2.325-2.635z" fill="#A52D19"/><path d="M63.386 502.334l-4.302 1.075 10.474 35.733 6.317-1.84-12.489-34.968z" fill="#FFF4A6"/><path d="M59.992 492.99c-.163-1.196-1.17-2.095-2.249-1.949-1.079.147-1.735 1.267-1.48 2.451.242 1.129 1.23 1.894 2.216 1.76.987-.129 1.668-1.125 1.514-2.262z" fill="#CC9B6A"/><path d="M41 545.186c6.209-22.745 6.64-36.21 7.923-59.435l116.37-28.231c-1.192 33.675.28 58.657 8.417 87.666H41z" fill="#D4D4E5"/><path d="M119.242 468.698c-2.576 29.87-5.335 49.942-18.297 76.488h72.782c-8.141-29.009-9.609-53.987-8.417-87.666l-46.068 11.178z" fill="#F0F0F7"/><path d="M94.184 539.802l61.191 5.281H91.103l3.081-5.281zm31.432-65.97l-20.668 6.247 18.673-1.024 1.995-5.223zM58.534 488.29l-16.29-1.543L90.01 475.74l-31.476 12.55zm.434 42.776l-21.378 2.898 18.593 1.944 2.785-4.842zm48.055-27.912l20.676-6.269-18.698 1.046-1.978 5.223zm-5.663 27.963l21.483 2.291-17.623-6.327-3.86 4.036z" fill="#D4D4E5"/><path d="M164.971 471.882l-21.186 2.534 21.203-.297-.017-2.237zm-4.073-8.694l11.665-7.703-20.655 5.482 8.99 2.221zm-108.96 54.159l13.648 1.539 22.67-5.503-36.318 3.964z" fill="#F0F0F7"/><path d="M60.063 487.185l31.04-4.621 8.141-5.285-39.181 9.906z" fill="#D4D4E5"/><path d="M144.586 526.811l-24.874-3.299 38.742.439-13.868 2.86zm13.875-40.726l14.968.443-10.565 3.078-4.403-3.521zm-2.194 16.071l14.964.443-10.566 3.082-4.398-3.525z" fill="#F0F0F7"/></g></svg>