<svg width="674" height="461" fill="none" xmlns="http://www.w3.org/2000/svg"><path d="M343.946 277.744c-26.5 1.673-64.6 11.512-78.927 28.841-10.019 12.13-12.372 21.637-3.585 37.79 0 0 2.298-42.535 82.512-66.626v-.005z" fill="#F5F9FC"/><path d="M365.878 298.045c-3.48-16.241-14.41-19.368-18.569-20.064-8.042-1.37-45.523.614-72.957 20.218 43.667-17.92 91.526-.149 91.526-.149v-.005z" fill="#F5F9FC"/><path d="M525.665 216.95c-18.447-5.883-47.859-33.293-76.767-38.248 0 0-21.922 16.92-40.226 16.042 0 0 53.509 21.902 62.888 30.73 14.36 2.988 24.965-6.419 54.105-8.524z" fill="#fff"/><path d="M440.464 208.564c6.865.255 15.006 1.16 23.661 2.751 14.482 2.663 26.959 6.596 34.084 10.402 7.147-1.917 15.808-3.927 27.456-4.767-18.447-5.883-47.859-33.293-76.767-38.249 0 0-21.922 16.921-40.226 16.042 0 0 15.84 6.48 31.792 13.821zM673.085 78.05s-54.154 14.838-82.936 35.437c0 0-23.298-7.503-43.254-2.655 0 0 54.532-28.994 89.885-34.71 35.355-5.712 36.303 1.924 36.303 1.924l.002.005zM415.624 19.175s58.601-6.408 94.713 1.983c0 0 19.784-15.644 41.137-18.577 0 0-64.501-6.585-101.197 1.281-36.703 7.867-34.653 15.313-34.653 15.313zm-32.927 289.839l-60.596 41.221s23.938 38.955 45.202 94.549l66.406-43.977s-15.305-34.337-51.018-91.793h.006z" fill="#F5F9FC"/><path d="M384.707 379.53c-.944 22.449-4.441 43.214-9.599 60.079l58.601-38.806s-15.305-34.338-51.018-91.793l-4.43 3.016c5.016 17.937 7.529 41.568 6.446 67.498v.006z" fill="#fff"/><path d="M405.541 373.404l-14.134 9.341.448 1.293 14.283-9.639-.597-.995zm-8.6-16.682l-9.08 5.955.834 1.248 9.102-5.844-.856-1.359zm-10.619 6.891l-2.546 1.806.828 1.243 2.58-1.679-.862-1.37zm15.85 17.598l-9.284 5.966.486 1.459 9.24-6.082-.442-1.343zm-21.634 15.875l11.345-7.469-.486-1.469-11.4 7.325.541 1.613zm-1.462.97l-.541-1.63-4.822 3.099-.061 2.105 5.424-3.574zm25.029-16.476l4.579-3.01-.823-1.006-4.187 2.702.431 1.314zm-29.001 8.407l12.902-8.568-.475-1.453-12.875 8.679.448 1.342zm21.256-15.776l-7.103 4.646.492 1.475 7.147-4.502-.536-1.619zm1.463-.973l.541 1.63 5.347-3.961-.47-1.237-5.418 3.568zm-38.514 9.963l7.744-5.027-.486-1.453-7.705 5.143.447 1.337zm16.06-12.235l-7.103 4.645.491 1.47 7.147-4.502-.535-1.613zm1.489-.98l.542 1.635 5.357-3.955-.475-1.248-5.424 3.568zm-27.15 1.748l7.749-5.021-.486-1.453-7.71 5.137.447 1.337zm16.065-12.23l-7.108 4.64.497 1.475 7.147-4.508-.536-1.607zm1.469-.979l.541 1.63 5.341-3.955-.464-1.243-5.418 3.568zm33.644 29.537l-11.118 7.148.563 1.685 11.069-7.292-.514-1.541zm-20.9 15.649l8.881-5.839-.574-1.707-8.915 5.734.608 1.812zm22.401-16.583l.503 1.502 8.771-5.767-.917-1.127-8.473 5.442.116-.05zm-23.897 17.555l-.608-1.828-5.496 3.53-.061 2.364 6.165-4.066zm11.152-60.901l-14.134 9.353.447 1.281 14.283-9.639-.596-.995zm-3.332 7.823l-9.29 5.966.486 1.453 9.246-6.088-.442-1.331zm-21.639 15.86l11.351-7.463-.492-1.475-11.4 7.325.541 1.613zm-1.495.98l-.536-1.64-4.821 3.104-.061 2.099 5.418-3.563zm25.068-16.486l4.578-3.005-.823-1.006-4.192 2.696.437 1.315zm-29.013 8.406l12.913-8.562-.486-1.453-12.863 8.684.436 1.331zm21.223-15.77l-7.097 4.651.486 1.469 7.153-4.507-.542-1.613zm1.502-.973l.541 1.629 5.352-3.961-.475-1.242-5.418 3.574zm3.069 14.829l-11.119 7.153.564 1.68 11.068-7.287-.513-1.546zm-20.895 15.648l8.876-5.845-.569-1.695-8.915 5.728.608 1.812zm22.396-16.577l.497 1.497 8.776-5.773-.922-1.121-8.467 5.447.116-.05zm-23.898 17.555l-.614-1.834-5.49 3.53-.066 2.359 6.17-4.055zm29.899-10.179l-9.28 5.971.486 1.453 9.246-6.088-.452-1.336zm-15.421 11.698l5.143-3.304-.492-1.464-5.181 3.149.53 1.619zm-2.69 1.766l-.552-1.635-9.82 6.48-.061 2.099 10.433-6.944zm20.06-13.1l4.573-3.011-.823-1-4.187 2.69.437 1.321zm-1.86 5.234l-10.56 6.789.53 1.602 10.511-6.916-.481-1.475zm-19.859 14.859l8.434-5.546-.541-1.613-8.462 5.441.569 1.718zm21.293-15.742l.475 1.43 8.323-5.485-.873-1.061-8.041 5.16.116-.044zm-22.689 16.67l-.58-1.74-5.225 3.353-.055 2.243 5.86-3.856z" fill="#D0D0E4"/><path d="M393.293 91.898l-64.12-35.486s-23.96 38.938-63.976 82.998l69.201 39.436s23.733-29.15 58.895-86.948z" fill="#F5F9FC"/><path d="M331.272 125.512c-20.458 9.286-40.563 15.533-57.939 18.538l61.065 34.796s23.733-29.15 58.895-86.948l-4.695-2.596c-13.737 12.567-33.698 25.477-57.326 36.21z" fill="#fff"/><path d="M346.14 141.319l-14.714-8.402-.95.984 15.045 8.396.619-.978zm11.005-15.18l-9.406-5.419-.74 1.315 9.318 5.491.828-1.387zm-10.927-6.366l-2.762-1.458-.734 1.303 2.667 1.547.829-1.392zm-8.576 22.082l-9.511-5.596-1.077 1.089 9.593 5.507.995-1zm-23.919-12.145l11.781 6.756 1.094-1.1-11.682-6.866-1.193 1.21zm-1.533-.882l1.209-1.221-4.943-2.906-1.906.895 5.64 3.232zm26.017 14.901l4.745 2.735.524-1.188-4.297-2.519-.972.972zm-20.591-22.073l13.46 7.656 1.083-1.082-13.549-7.579-.994 1.005zm23.667 11.838l-7.346-4.243-1.099 1.105 7.247 4.347 1.198-1.209zm1.539.884l-1.21 1.215 5.938 2.983.9-.972-5.628-3.226zm-26.295-29.907l7.975 4.645 1.077-1.088-8.058-4.557-.994 1zm18.177 8.826l-7.346-4.237-1.094 1.099 7.241 4.353 1.199-1.215zm1.533.883l-1.204 1.216 5.938 2.994.9-.978-5.634-3.232zm-13.802-23.454l7.975 4.657 1.083-1.089-8.07-4.568-.988 1zm18.144 8.838l-7.346-4.253-1.099 1.104 7.252 4.353 1.193-1.204zm1.539.878l-1.21 1.216 5.943 2.988.895-.978-5.628-3.226zM330.945 143.8l-11.389-6.695-1.254 1.26 11.5 6.595 1.143-1.16zm-23.407-11.603l9.224 5.292 1.259-1.276-9.136-5.375-1.347 1.359zm24.933 12.521l-1.116 1.127 9.108 5.226.586-1.326-8.677-5.11.099.083zm-26.462-13.408l1.359-1.37-5.622-3.309-2.138 1.011 6.401 3.668zm59.399-17.521l-14.72-8.402-.95.983 15.051 8.397.619-.978zm-8.498.536l-9.517-5.596-1.077 1.088 9.605 5.507.989-.999zm-23.919-12.147l11.781 6.761 1.094-1.104-11.682-6.872-1.193 1.215zm-1.544-.891l1.221-1.215-4.949-2.906-1.895.895 5.623 3.226zm26.028 14.922l4.745 2.724.525-1.182-4.297-2.53-.973.988zM336.884 94.12l13.466 7.662 1.077-1.089-13.549-7.562-.994.989zm23.668 11.838l-7.357-4.243-1.089 1.105 7.247 4.348 1.199-1.21zm1.533.883l-1.21 1.221 5.943 2.988.9-.983-5.633-3.226zm-11.872 9.434l-11.4-6.7-1.248 1.259 11.499 6.596 1.149-1.155zm-23.401-11.608l9.218 5.286 1.259-1.276-9.135-5.369-1.342 1.359zm24.922 12.52l-1.11 1.127 9.107 5.226.586-1.331-8.683-5.104.1.082zm-26.456-13.402l1.359-1.376-5.628-3.309-2.132 1.006 6.401 3.679zm22.585 22.095l-9.511-5.591-1.083 1.088 9.605 5.502.989-.999zm-17.396-8.49l5.264 3.105 1.088-1.099-5.153-3.21-1.199 1.204zm-2.813-1.591l1.215-1.232-10.212-5.844-1.9.895 10.897 6.181zm20.731 11.965l4.75 2.724.525-1.183-4.297-2.524-.978.983zm-5.496.719l-10.825-6.364-1.188 1.199 10.914 6.259 1.099-1.094zm-22.211-11.026l8.754 5.016 1.199-1.205-8.677-5.098-1.276 1.287zm23.659 11.896l-1.055 1.066 8.644 4.955.558-1.254-8.235-4.85.088.083zm-25.141-12.731l1.292-1.304-5.346-3.149-2.027.967 6.081 3.486z" fill="#D0D0E4"/><path d="M55.675 460.539l63.385-37.508S93.017 384.948 69.488 331L0 370.95s16.824 33.387 55.675 89.589z" fill="#F5F9FC"/><path d="M52.256 392.924c.585-21.467 3.91-41.243 9.058-57.229L0 370.949s16.824 33.388 55.675 89.589l4.64-2.745c-5.64-17.34-8.733-40.061-8.06-64.864v-.005z" fill="#fff"/><path d="M30.338 398.121l14.791-8.485-.497-1.254-14.946 8.767.652.972zm9.372 16.26l9.5-5.408-.91-1.232-9.528 5.303.939 1.337zm11.124-6.266l2.662-1.64-.912-1.221-2.69 1.525.94 1.336zM33.74 390.738l9.716-5.408-.541-1.409-9.666 5.519.492 1.298zm22.624-14.483l-11.875 6.778.542 1.425 11.935-6.645-.602-1.558zm1.519-.885l.602 1.575 5.049-2.807.022-2.016-5.673 3.248zm-26.184 14.961l-4.794 2.734.889.989 4.385-2.441-.48-1.282zm30.525-7.095l-13.505 7.778.53 1.403 13.46-7.894-.485-1.287zm-22.19 14.41l7.434-4.22-.547-1.426-7.483 4.077.596 1.569zm-1.534.88l-.607-1.58-5.584 3.618.519 1.199 5.672-3.237zm40.611-8.283l-8.108 4.563.536 1.403 8.064-4.674-.492-1.292zm-16.793 11.192l7.428-4.221-.54-1.414-7.485 4.077.597 1.558zm-1.566.885l-.602-1.585-5.595 3.618.52 1.204 5.677-3.237zm28.71-.782l-8.12 4.557.548 1.409 8.07-4.673-.498-1.293zM72.69 412.731l7.44-4.22-.552-1.426-7.478 4.083.59 1.563zm-1.56.884l-.607-1.58-5.59 3.618.52 1.199 5.678-3.237zm-36.175-29.393l11.637-6.48-.618-1.63-11.588 6.624.569 1.486zm21.885-14.303l-9.296 5.303.635 1.657 9.329-5.203-.668-1.757zm-23.447 15.147l-.553-1.453-9.185 5.243 1 1.104 8.865-4.933-.127.039zm24.999-16.03l.679 1.773 5.75-3.198.022-2.265-6.451 3.69zm-10.71 57.973l14.791-8.496-.497-1.249-14.94 8.761.646.984zm3.408-7.378l9.721-5.408-.541-1.419-9.671 5.529.491 1.298zm22.585-14.49L61.8 411.914l.547 1.43 11.93-6.645-.602-1.558zm1.558-.895l.596 1.586 5.054-2.812.022-2.011-5.672 3.237zm-26.19 14.967l-4.789 2.734.884.984 4.391-2.442-.486-1.276zm30.536-7.095l-13.51 7.778.547 1.403 13.454-7.888-.491-1.293zM57.39 426.523l7.428-4.22-.547-1.426-7.484 4.088.602 1.558zm-1.572.885l-.608-1.58-5.59 3.618.525 1.21 5.673-3.248zm-3.508-14.299l11.643-6.485-.63-1.629-11.588 6.617.575 1.497zm21.874-14.303l-9.29 5.303.635 1.651 9.328-5.198-.673-1.756zM50.74 413.949l-.557-1.459-9.18 5.248.995 1.105 8.87-4.939-.127.045zm24.963-16.036l.684 1.778 5.745-3.198.027-2.265-6.456 3.685zm-31.46 8.772l9.716-5.413-.542-1.403-9.67 5.524.496 1.292zm16.121-10.699l-5.38 2.994.548 1.42 5.429-2.845-.596-1.569zm2.806-1.609l.608 1.586 10.284-5.883.022-2.011-10.914 6.308zm-20.98 11.901l-4.788 2.734.89.984 4.385-2.442-.486-1.276zm1.857-4.961l11.052-6.154-.59-1.552-10.998 6.281.536 1.425zm20.776-13.576l-8.82 5.032.596 1.563 8.865-4.927-.64-1.668zm-22.26 14.375l-.53-1.381-8.705 4.983.944 1.044 8.412-4.685-.121.039zm23.702-15.222l.646 1.685 5.457-3.038.028-2.144-6.131 3.497z" fill="#D0D0E4"/></svg>