<svg width="129" height="18" fill="none" xmlns="http://www.w3.org/2000/svg"><path d="M104.58 11.092c.472.088.86.324 1.164.708.304.384.456.824.456 1.32 0 .448-.112.844-.336 1.188-.216.336-.532.6-.948.792-.416.192-.908.288-1.476.288h-3.612V7.012h3.456c.568 0 1.056.092 1.464.276.416.184.728.44.936.768.216.328.324.7.324 1.116 0 .488-.132.896-.396 1.224-.256.328-.6.56-1.032.696zm-3.072-.624h1.536c.4 0 .708-.088.924-.264.216-.184.324-.444.324-.78s-.108-.596-.324-.78c-.216-.184-.524-.276-.924-.276h-1.536v2.1zm1.692 3.552c.408 0 .724-.096.948-.288.232-.192.348-.464.348-.816 0-.36-.12-.64-.36-.84-.24-.208-.564-.312-.972-.312h-1.656v2.256h1.692zm6.019-5.652v2.1h2.82V11.8h-2.82v2.22h3.18v1.368h-4.86V7h4.86v1.368h-3.18zm10.407-1.356v1.356h-2.232v7.02h-1.68v-7.02h-2.232V7.012h6.144zm6.362 6.78h-3.336l-.552 1.596h-1.764L123.348 7h1.956l3.012 8.388h-1.776l-.552-1.596zm-.456-1.344l-1.212-3.504-1.212 3.504h2.424z" opacity=".5" fill="#141923"/><path d="M7.128 4.44c2.224 0 3.968.568 5.232 1.704 1.28 1.12 1.92 2.76 1.92 4.92s-.64 3.808-1.92 4.944c-1.264 1.12-3.008 1.68-5.232 1.68s-3.968-.56-5.232-1.68C.632 14.888 0 13.24 0 11.064S.632 7.24 1.896 6.12C3.16 5 4.904 4.44 7.128 4.44zm0 3.24c-1.568 0-2.352.904-2.352 2.712v1.368c0 1.792.784 2.688 2.352 2.688 1.584 0 2.376-.896 2.376-2.688v-1.368c0-1.808-.792-2.712-2.376-2.712zm16.008-3.24c2.08 0 3.76.448 5.04 1.344 1.296.88 1.944 2.232 1.944 4.056h-4.632c0-1.44-.784-2.16-2.352-2.16-1.568 0-2.352.904-2.352 2.712v1.368c0 1.792.816 2.688 2.448 2.688 1.632 0 2.448-.736 2.448-2.208h4.44c0 1.84-.648 3.208-1.944 4.104-1.28.896-2.96 1.344-5.04 1.344-2.224 0-3.968-.56-5.232-1.68-1.264-1.12-1.896-2.768-1.896-4.944s.632-3.824 1.896-4.944c1.264-1.12 3.008-1.68 5.232-1.68zm17.16-.024c.368 0 .696.048.984.144.288.08.432.128.432.144v4.008h-1.536c-.992 0-1.712.256-2.16.768-.432.512-.648 1.272-.648 2.28v5.64h-4.776V4.728h3.912l.312 1.92c.288-.736.744-1.288 1.368-1.656.624-.384 1.328-.576 2.112-.576zm9.622.024c1.936 0 3.512.328 4.728.984 1.216.64 1.824 1.688 1.824 3.144v4.944c0 .272.064.496.192.672.128.176.32.264.576.264h.864v2.76a2.654 2.654 0 01-.384.168 6.178 6.178 0 01-.84.192 6.03 6.03 0 01-1.272.12c-.928 0-1.696-.136-2.304-.408-.592-.288-1-.68-1.224-1.176a7.731 7.731 0 01-2.04 1.152c-.752.288-1.632.432-2.64.432-2.976 0-4.464-1.184-4.464-3.552 0-1.232.328-2.168.984-2.808.672-.656 1.632-1.104 2.88-1.344s2.88-.36 4.896-.36V9c0-.496-.176-.872-.528-1.128-.336-.256-.776-.384-1.32-.384-.496 0-.928.088-1.296.264-.352.176-.528.456-.528.84v.096h-4.704a1.811 1.811 0 01-.024-.336c0-1.2.568-2.152 1.704-2.856 1.152-.704 2.792-1.056 4.92-1.056zm1.776 7.44c-1.36 0-2.368.152-3.024.456-.64.288-.96.68-.96 1.176 0 .8.544 1.2 1.632 1.2.624 0 1.168-.168 1.632-.504.48-.336.72-.752.72-1.248v-1.08zm22.224-7.44c1.936 0 3.512.328 4.728.984 1.216.64 1.824 1.688 1.824 3.144v4.944c0 .272.064.496.192.672.128.176.32.264.576.264h.864v2.76a2.654 2.654 0 01-.384.168 6.178 6.178 0 01-.84.192 6.03 6.03 0 01-1.272.12c-.928 0-1.696-.136-2.304-.408-.592-.288-1-.68-1.224-1.176a7.731 7.731 0 01-2.04 1.152c-.752.288-1.632.432-2.64.432-2.976 0-4.464-1.184-4.464-3.552 0-1.232.328-2.168.984-2.808.672-.656 1.632-1.104 2.88-1.344s2.88-.36 4.896-.36V9c0-.496-.176-.872-.528-1.128-.336-.256-.776-.384-1.32-.384-.496 0-.928.088-1.296.264-.352.176-.528.456-.528.84v.096h-4.704a1.811 1.811 0 01-.024-.336c0-1.2.568-2.152 1.704-2.856 1.152-.704 2.792-1.056 4.92-1.056zm1.776 7.44c-1.36 0-2.368.152-3.024.456-.64.288-.96.68-.96 1.176 0 .8.544 1.2 1.632 1.2.624 0 1.168-.168 1.632-.504.48-.336.72-.752.72-1.248v-1.08zm8.136-8.64V0h4.776v3.24H83.83zm0 14.16V4.728h4.776V17.4H83.83zm-18.694-2.5a2.5 2.5 0 11-5 0 2.5 2.5 0 015 0z" fill="#3935D8"/></svg>