<svg width="80" height="80" fill="none" xmlns="http://www.w3.org/2000/svg"><path d="M40 80c22.091 0 40-17.909 40-40S62.091 0 40 0 0 17.909 0 40s17.909 40 40 40z" fill="#2CA01C"/><path d="M11.107 39.997c0 8.591 6.965 15.556 15.556 15.556h2.222v-5.778h-2.222c-5.392 0-9.777-4.386-9.777-9.778 0-5.391 4.385-9.778 9.777-9.778h5.34v30.222a5.778 5.778 0 005.778 5.778V24.441H26.664c-8.592 0-15.557 6.966-15.557 15.556zM53.34 24.444h-2.222v5.778h2.222c5.39 0 9.777 4.387 9.777 9.778 0 5.391-4.387 9.777-9.777 9.777h-5.343V19.555a5.777 5.777 0 00-5.777-5.777v41.777h11.12c8.59 0 15.556-6.964 15.556-15.555S61.93 24.444 53.34 24.444z" fill="#fff"/></svg>