<svg width="80" height="84" fill="none" xmlns="http://www.w3.org/2000/svg"><path d="M67.48 72.656C75.19 65.364 80 55.04 80 43.59c0-22.09-17.909-40-40-40S0 21.5 0 43.59c0 22.092 17.909 40 40 40 1.731 0 3.437-.11 5.11-.323l22.37-10.612z" fill="#9D35C6"/><path d="M62.994 59.684a11.517 11.517 0 01-.366-3.964l.653-6.153c.319-3.86-.27-7.728-1.978-11.204-4.416-8.982-3.403-9.633-3.54-18.547a3.297 3.297 0 00-6.595 0c0 36.25.068 33.59-.156 34.652v4.747c0 4-3.254 7.253-7.253 7.253H25.71a25.611 25.611 0 0011.05 8.739c3.402 1.436 7.2 4.303 7.834 7.86l.061.254c8.957-1.039 17.011-5.034 23.161-10.988l-4.822-12.65zm-49.531-43.05l-1.004-.93a3.849 3.849 0 00-5.423.206 3.849 3.849 0 00.207 5.423l6.22 5.764V16.633z" fill="#F9BA8F"/><path d="M9.284 18.448a3.838 3.838 0 01-1.187-3.337 3.797 3.797 0 00-1.06.799 3.849 3.849 0 00.206 5.423l6.22 5.764V22.32l-4.18-3.873z" fill="#FCAD6D"/><path d="M63.294 60.471c-1.362 9.392-9.445 16.607-19.215 16.607-1.686 0-3.323-.215-4.883-.619 2.587 1.581 4.914 3.893 5.398 6.608l.061.254c8.957-1.039 17.011-5.035 23.161-10.988l-4.522-11.862z" fill="#FD995B"/><path d="M45.488 66.624H19.001a5.687 5.687 0 01-5.68-5.68V5.68A5.687 5.687 0 0119 0h26.487a5.687 5.687 0 015.68 5.68v55.264a5.687 5.687 0 01-5.68 5.68z" fill="#2A428C"/><path d="M19 0a5.687 5.687 0 00-5.68 5.68v55.264a5.687 5.687 0 005.68 5.68h7.897c-1.752-1.787.292-3.534.292-3.534-2.885-.757-2.64-3.788-2.64-3.788V10.078c0-2.898 2.944-3.63 2.944-3.63-1.16-1.159 0-2.377 0-2.377V2.107c-1.07-.678-.86-1.6-.626-2.107H19z" fill="#142766"/><path d="M28.06 4.07h-.567a.982.982 0 110-1.963h.567a.982.982 0 110 1.964zm8.8 0h-5.45a.982.982 0 110-1.963h5.45a.982.982 0 110 1.964z" fill="#3C58A0"/><path d="M45.488 3.534h-3.98c-.743 0-1.344.602-1.344 1.344 0 .864-.707 1.57-1.571 1.57H25.896c-.864 0-1.57-.706-1.57-1.57 0-.742-.602-1.344-1.344-1.344H19a2.146 2.146 0 00-2.146 2.146v55.264c0 1.185.96 2.146 2.146 2.146h26.487a2.146 2.146 0 002.146-2.146V5.68a2.146 2.146 0 00-2.146-2.146z" fill="#fff"/><path d="M24.26 13.91h15.97a1.818 1.818 0 100-3.637H24.26a1.818 1.818 0 100 3.636z" fill="#E9EFFF"/><path d="M24.26 10.273h3.358v3.636h-3.359a1.818 1.818 0 110-3.636z" fill="#9BD8F9"/><path d="M43.457 30.505H21.032a1.64 1.64 0 01-1.636-1.636v-9.41a1.64 1.64 0 011.636-1.635h22.425c.9 0 1.636.736 1.636 1.636v9.409c0 .9-.737 1.636-1.636 1.636zm0 15.206H21.032a1.64 1.64 0 01-1.636-1.636v-9.409c0-.9.736-1.635 1.636-1.635h22.425c.9 0 1.636.736 1.636 1.635v9.41c0 .899-.737 1.635-1.636 1.635zm0 15.206H21.032a1.64 1.64 0 01-1.636-1.635v-9.41a1.64 1.64 0 011.636-1.635h22.425c.9 0 1.636.736 1.636 1.636v9.409c0 .9-.737 1.636-1.636 1.636z" fill="#E9EFFF"/><path d="M43.457 30.505H21.032a1.64 1.64 0 01-1.636-1.636v-9.41a1.64 1.64 0 011.636-1.635h22.425c.9 0 1.636.736 1.636 1.636v9.409c0 .9-.737 1.636-1.636 1.636zm0 15.206H21.032a1.64 1.64 0 01-1.636-1.636v-9.409c0-.9.736-1.635 1.636-1.635h22.425c.9 0 1.636.736 1.636 1.635v9.41c0 .899-.737 1.635-1.636 1.635zm0 15.206H21.032a1.64 1.64 0 01-1.636-1.635v-9.41a1.64 1.64 0 011.636-1.635h22.425c.9 0 1.636.736 1.636 1.636v9.409c0 .9-.737 1.636-1.636 1.636z" fill="#E9EFFF"/><path d="M27.188 28.869v-9.41a1.64 1.64 0 011.635-1.635h-7.79c-.9 0-1.637.736-1.637 1.636v9.409c0 .9.736 1.636 1.636 1.636h7.791a1.64 1.64 0 01-1.636-1.636zm0 15.206v-9.409c0-.9.736-1.635 1.635-1.635h-7.79c-.9 0-1.637.736-1.637 1.635v9.41a1.64 1.64 0 001.636 1.635h7.791a1.64 1.64 0 01-1.636-1.636zm0 15.207v-9.41a1.64 1.64 0 011.635-1.635h-7.79c-.9 0-1.637.736-1.637 1.636v9.409c0 .9.736 1.636 1.636 1.636h7.791a1.64 1.64 0 01-1.636-1.636z" fill="#D3DCFB"/><path d="M31.36 23.084h-6.558a1.224 1.224 0 110-2.45h6.558a1.224 1.224 0 110 2.45z" fill="#3C58A0"/><path d="M39.687 27.695H24.802a1.224 1.224 0 110-2.45h14.885a1.224 1.224 0 110 2.45zm-3.211-4.611h-.925a1.224 1.224 0 110-2.45h.925a1.224 1.224 0 110 2.45z" fill="#BEC8F7"/><path d="M31.36 38.29h-6.558a1.224 1.224 0 110-2.45h6.558a1.224 1.224 0 110 2.45z" fill="#3C58A0"/><path d="M39.687 42.9H24.802a1.224 1.224 0 110-2.448h14.885a1.224 1.224 0 110 2.449zm-3.211-4.61h-.925a1.224 1.224 0 110-2.45h.925a1.224 1.224 0 110 2.45z" fill="#BEC8F7"/><path d="M31.36 53.496h-6.558a1.225 1.225 0 010-2.449h6.558a1.224 1.224 0 110 2.45z" fill="#3C58A0"/><path d="M39.687 58.107H24.802a1.224 1.224 0 110-2.449h14.885a1.224 1.224 0 110 2.45zm-3.211-4.611h-.925a1.225 1.225 0 010-2.449h.925a1.224 1.224 0 110 2.45z" fill="#BEC8F7"/><path d="M19.048 36.872a3.362 3.362 0 01-4.752.181l-5.632-5.218a3.362 3.362 0 114.57-4.933l5.633 5.218a3.362 3.362 0 01.181 4.752z" fill="#F9BA8F"/><path d="M16.613 34.681l-5.632-5.219a3.361 3.361 0 01-.966-3.32c-.568.164-1.1.476-1.532.941a3.362 3.362 0 00.181 4.752l5.632 5.218a3.363 3.363 0 005.537-1.612 3.357 3.357 0 01-3.22-.76z" fill="#FCAD6D"/><path d="M19.048 55.215a3.362 3.362 0 01-4.752.18l-5.632-5.218a3.362 3.362 0 114.57-4.933l5.633 5.219a3.362 3.362 0 01.181 4.752z" fill="#F9BA8F"/><path d="M16.613 53.023l-5.632-5.218a3.361 3.361 0 01-.966-3.32c-.568.163-1.1.475-1.532.94a3.362 3.362 0 00.181 4.752l5.632 5.219a3.363 3.363 0 005.537-1.613 3.357 3.357 0 01-3.22-.76z" fill="#FCAD6D"/><path d="M19.048 46.043a3.362 3.362 0 01-4.752.181l-5.632-5.218a3.362 3.362 0 114.57-4.933l5.633 5.219a3.362 3.362 0 01.181 4.751z" fill="#F9BA8F"/><path d="M16.613 43.852l-5.632-5.218a3.361 3.361 0 01-.966-3.32 3.34 3.34 0 00-1.532.94 3.362 3.362 0 00.181 4.752l5.632 5.218a3.362 3.362 0 005.537-1.612 3.357 3.357 0 01-3.22-.76z" fill="#FCAD6D"/><path d="M67.113 14.185c-2.171 2.762-4.13 6.73-2.564 11.06 2.939 8.123 7.619 15.02 5.442 27.027-.988 5.448 2.254 7.732 6.09 8.602A39.832 39.832 0 0080 43.592c0-11.63-4.964-22.098-12.887-29.407z" fill="#9D35C6"/></svg>