<svg width="80" height="80" fill="none" xmlns="http://www.w3.org/2000/svg"><path d="M40 80c22.092 0 40-17.908 40-40C80 17.909 62.092 0 40 0 17.91 0 0 17.909 0 40c0 22.092 17.909 40 40 40z" fill="#1AB4D7"/><path d="M19.147 39.884l6.827-6.843a1.222 1.222 0 00-1.74-1.719l-6.821 6.817-6.85-6.827a1.224 1.224 0 00-2.086.868c-.001.33.13.638.366.87l6.825 6.825-6.822 6.834a1.224 1.224 0 101.716 1.74l6.84-6.83 6.814 6.806a1.22 1.22 0 002.11-.84c0-.325-.127-.631-.356-.862l-6.823-6.839zm40.582-.002c0 1.226.996 2.223 2.224 2.223a2.225 2.225 0 002.22-2.223 2.225 2.225 0 00-2.22-2.222 2.225 2.225 0 00-2.224 2.222z" fill="#fff"/><path d="M55.514 39.883a6.444 6.444 0 016.436-6.436 6.444 6.444 0 016.436 6.436 6.443 6.443 0 01-6.436 6.435 6.443 6.443 0 01-6.437-6.434zm-2.533 0c0 4.945 4.024 8.968 8.97 8.968 4.944 0 8.97-4.023 8.97-8.968s-4.026-8.969-8.97-8.969c-4.946 0-8.97 4.024-8.97 8.97zm-.636-8.815l-.377-.002c-1.13 0-2.219.357-3.129 1.058a1.226 1.226 0 00-1.194-.962 1.21 1.21 0 00-1.213 1.213l.004 15.105c.002.673.55 1.22 1.223 1.22s1.221-.547 1.223-1.221v-9.288c0-3.096.284-4.346 2.936-4.677.245-.03.511-.026.512-.026.726-.025 1.242-.523 1.242-1.197 0-.675-.551-1.223-1.227-1.223zM28.86 38.407c0-.034.003-.068.004-.103a6.479 6.479 0 0112.583.103H28.86zm15.092-.231c-.527-2.495-1.893-4.545-3.973-5.861-3.041-1.931-7.057-1.824-9.994.264-2.396 1.705-3.78 4.493-3.78 7.365 0 .72.088 1.447.268 2.163.905 3.559 3.965 6.253 7.612 6.7a8.538 8.538 0 003.227-.215 8.83 8.83 0 002.68-1.144c.868-.557 1.593-1.293 2.295-2.173l.043-.047c.487-.605.396-1.464-.139-1.874-.452-.346-1.21-.486-1.806.277-.128.183-.271.37-.429.559a7.02 7.02 0 01-1.767 1.425c-.898.48-1.92.754-3.007.76-3.558-.04-5.461-2.523-6.138-4.295a6.43 6.43 0 01-.273-1.028 2.335 2.335 0 01-.017-.19l12.766-.001c1.75-.037 2.692-1.272 2.432-2.685z" fill="#fff"/></svg>