<svg width="460" height="252" fill="none" xmlns="http://www.w3.org/2000/svg"><path d="M234.777 224.507l-.333.457-.339.454-.343.45c-.114.15-.231.3-.348.447-.116.15-.233.297-.35.445l-.355.442a66.188 66.188 0 01-19.595 16.328 61.596 61.596 0 01-10.089 4.4c-.184.06-.365.121-.548.179a58.264 58.264 0 01-1.103.342l-.553.164a60.873 60.873 0 01-2.225.602c-.56.14-1.12.271-1.685.395h-.002a59.602 59.602 0 01-19.619 1.004 74.537 74.537 0 01-4.941-.738h-.002l-.61-.114h-.003l-.609-.119h-.003c-.202-.04-.405-.081-.607-.124h-.003l-.607-.128h-.003c-10.546-2.265-20.6-6.496-30.57-10.476-6.335-2.514-12.696-4.99-19.255-6.891a91.843 91.843 0 00-7.788-1.905h-.002l-.327-.064h-.002l-.326-.062h-.003l-.326-.062h-.002l-.327-.059h-.002l-.327-.06h-.002l-.326-.057h-.003a82.595 82.595 0 00-11.292-1.189c-15.34-.552-30.84 2.302-46.064-.559a53.75 53.75 0 01-10.651-3.178h-.003c-.169-.072-.338-.141-.507-.214h-.002c-.17-.072-.339-.145-.506-.219h-.002c-.17-.074-.336-.148-.503-.224h-.002l-.117-.054c-6.842-3.105-13.008-7.579-18.163-13.038a63.804 63.804 0 01-3.89-4.519l-.332-.429-.328-.43a64.502 64.502 0 01-7.18-12.041l-.223-.49-.216-.492-.215-.495c-.071-.164-.14-.331-.21-.497a62.618 62.618 0 01-4.014-14.032v-.007l-.004-.007c-1.263-7.852-.958-15.904.626-23.706l.003.002a72.56 72.56 0 01.567-2.567l.002-.011.036-.15.074-.302.038-.15.062-.252.007-.031.004-.019v-.003l.115-.449.024-.091.016-.059.12-.45.014-.052a77.027 77.027 0 011.534-4.995 81.771 81.771 0 013.407-8.333l.26-.542.262-.54.266-.538.272-.535.274-.533.279-.533v-.002l.28-.53v-.003a89.045 89.045 0 019.764-14.498l.386-.464.388-.463.393-.46a93.455 93.455 0 014.093-4.46c7.452-7.597 16.243-13.886 25.706-18.93l.143-.075.56-.295.562-.293.562-.29.565-.288a130.63 130.63 0 015.148-2.455c6.895-3.09 14.064-5.152 21.375-6.707 1.33-.352 4.014-.816 4.024-.816 4.655-.902 38.356-4.113 50.237-2.667a139.37 139.37 0 0111.486 1.882l.631.133.631.135.632.139.631.14.629.145.629.147.629.15a139.822 139.822 0 0114.22 4.239l.605.219.606.221h.002l.603.224.602.226c2.414.91 4.801 1.89 7.159 2.933h.005c12.541 5.535 24.246 12.921 34.461 21.91a121.705 121.705 0 017.908 7.614v.004c5.391 5.681 10.196 11.877 14.229 18.526l.227.375.002.005.165.276.059.098.153.259.028.05.265.452.014.026a95.22 95.22 0 013.736 7.077l.262.559.259.561.255.561c2.873 6.389 4.996 13.074 6.256 19.924l.11.604c.036.202.069.405.105.604l.1.607c.033.202.064.404.095.607l.091.606c.412 2.84.676 5.702.781 8.582.238 6.423-.3 12.891-1.663 19.182v.002c-.088.405-.179.812-.274 1.214v.002c-.047.202-.095.404-.145.604v.003c-.05.202-.098.402-.15.604v.002c-.05.2-.103.402-.155.602v.002c-.053.2-.105.4-.16.6v.002l-.164.6v.002c-.057.2-.112.4-.172.597v.002c-.057.2-.116.398-.176.597v.003a68.003 68.003 0 01-5.822 13.787 63.038 63.038 0 01-3.967 6.191l.026-.019z" fill="#7A18A0"/><path d="M33.442 127.077h35.495V86.782a86.094 86.094 0 00-6.21 2.496c-10.643 4.785-20.69 11.03-29.285 18.813v18.986zm41.194.008h35.496V86.712H74.636v40.373zM33.71 172.328h35.495v-40.373H33.71v40.373zm41.202 0h35.495v-40.373H74.912v40.373z" fill="#9D35C6"/><path d="M29.4 111.979v66.587m0 0h88.973V79.063L29.4 178.566z" stroke="#FEFEFE" stroke-width=".106" stroke-miterlimit="10"/><path d="M69.275 216.217h2.342v-59.063h-2.342v59.063zm11.597.001h2.354v-58.965h-2.354v58.965z" fill="#F18D74"/><path d="M71.617 216.209h9.26v-57.167h-9.26v57.167z" fill="#DCDDDC"/><path d="M59.901 216.21h1.577v-47.575h-1.577v47.575zm7.794.006h1.578v-47.497h-1.578v47.497z" fill="#377BFF"/><path d="M61.474 216.216h6.22v-46.384h-6.22v46.384z" fill="#DCDDDC"/><path d="M83.228 216.21h.736v-47.575h-.736v47.575zm3.632.006h.734v-47.497h-.733v47.497z" fill="#DFDD6D"/><path d="M83.962 216.216h2.894v-46.384h-2.894v46.384z" fill="#DCDDDC"/><path d="M62.433 170.33v42.557c0 .513.8.513.8 0V170.33c0-.514-.8-.514-.8 0zm3.337.507v23.092c0 .514.8.514.8 0v-23.092c0-.514-.8-.514-.8 0zm-.07 25.396v16.506c0 .514.8.516.8 0v-16.506c0-.514-.8-.514-.8 0zm7.413-36.045v54.322c0 .514.8.514.8 0v-54.322c0-.514-.8-.514-.8 0zm1.925 1.479v39.522c0 .513.801.516.801 0v-39.522c0-.514-.8-.514-.8 0z" fill="#2C2A2A"/><path d="M26.823 185.997c1.449 4.273 2.895 8.554 4.343 12.826h-3.495c-1.415-4.112-4.312-7.604-7.47-10.63-3.441-3.292-7.272-6.182-10.481-9.705C4.24 172.451.77 164.606 0 156.492c4.655 2.94 9.303 5.88 13.958 8.825 2.4 1.518 4.815 3.045 6.878 4.993.72.685 1.408 1.42 2.001 2.212.977 4.57 2.48 9.042 3.984 13.475h.002zm30.512-29.871c-4.607 3.635-6.863 9.472-8.271 15.174-1.415 5.695-2.24 11.622-4.865 16.87a26.913 26.913 0 01-9.703 10.647h-1.09c5.433-8.88 7.591-19.729 5.921-30.007a7.907 7.907 0 00-.081-.471c4.36-5.999 10.854-10.479 18.087-12.213h.002z" fill="#0C802C"/><path d="M39.246 168.343c.034.159.057.311.081.471 1.673 10.278-.488 21.125-5.92 30.007h-2.24c-1.448-4.272-2.896-8.554-4.343-12.826-1.503-4.434-3.006-8.906-3.983-13.475a50.559 50.559 0 01-.879-5.614c-.984-10.311 1.944-20.942 8.072-29.289 1.863 10.543 7.383 20.184 9.215 30.726h-.003z" fill="#0C802C"/><path d="M41.523 198.82l-2.4 19.512h-8.37a59.47 59.47 0 01-8.244-7.252 75.705 75.705 0 01-1.215-1.32l-1.346-10.94h21.575z" fill="#FBC358"/><path d="M37.985 178.788l-4.58 9.168c.025-2.978-.185-5.966-.53-8.923a123.938 123.938 0 00-.48-3.556l4.475-8.884c.23-.457-.46-.864-.691-.402-1.33 2.636-2.657 5.273-3.986 7.911-.667-4.324-1.45-8.632-2.01-12.973 0 0 .002 0 .002-.002l3.083-6.028c.233-.457-.458-.861-.691-.402l-2.573 5.031c-.024-.212-.057-.423-.081-.635-.417-3.804-.593-7.638-.3-11.458.038-.512-.76-.509-.8 0-.29 3.758-.108 7.512.29 11.249l-3.324-5.704c-.26-.445-.95-.043-.69.404l4.24 7.279c.284 2.259.629 4.514.996 6.758.338 2.076.688 4.155 1.01 6.239a19703.26 19703.26 0 00-4.867-8.183c-.262-.442-.956-.04-.691.402l5.768 9.693c.021.036.057.057.09.086.546 3.784.96 7.583.982 11.413.002.373-.003.744-.01 1.115-1.889-3.406-3.778-6.812-5.665-10.218-.25-.45-.941-.048-.691.402l6.31 11.379c-.13 2.807-.506 5.595-1.219 8.318-.128.498.641.709.772.212.741-2.835 1.108-5.73 1.234-8.637 1.775-3.551 3.548-7.103 5.32-10.652.229-.459-.462-.863-.69-.402h-.003zm13.301-18.89c-4.403 3.33-6.018 8.834-6.943 14.029-.538 3.031-.924 6.099-1.758 9.068a32.351 32.351 0 01-3.166 7.481 32.748 32.748 0 01-5.748 7.274c-.375.354.192.92.564.563a33.453 33.453 0 008.581-13.375c1.913-5.588 1.861-11.644 3.917-17.186 1.017-2.75 2.587-5.373 4.958-7.167.405-.307.007-1.001-.405-.69v.003zm-29.34 23.057c-3.952-4.598-8.667-8.473-12.59-13.095-2.15-2.531-4.039-5.29-5.342-8.354-.2-.473-.891-.064-.691.402 4.696 11.049 16.17 16.963 22.07 27.177 1.59 2.747 2.733 5.77 3.043 8.944.05.506.85.511.8 0-.557-5.728-3.604-10.79-7.29-15.079v.005z" fill="#2C2A2A"/><path d="M48.622 168.75c-.146-.146-.424-.162-.567 0l-3.495 3.986c-.143.162-.16.405 0 .564.145.145.424.162.567 0l3.495-3.987c.143-.161.16-.406 0-.563zm-2.648 11.944a.405.405 0 00-.564 0l-2.824 2.583c-.16.146-.147.417 0 .564.16.16.405.148.565 0l2.823-2.583c.16-.145.148-.416 0-.564zm-3.073 7.384c-.107-.164-.37-.278-.548-.142l-2.447 1.848c-.166.126-.271.349-.143.545.108.166.37.278.548.145.815-.616 1.632-1.235 2.447-1.849.167-.126.272-.352.143-.547zm-16.797 1.209l-3.786-1.689c-.198-.088-.429-.057-.548.143-.1.171-.055.459.143.547 1.263.561 2.523 1.125 3.786 1.689.197.088.428.057.548-.145.1-.172.054-.457-.143-.545zm-4.266-6.208c-1.95-.59-3.902-1.182-5.856-1.777-.493-.149-.705.621-.211.771l5.855 1.777c.494.15.706-.621.212-.771zm-7.267-7.553l-4.893-1.698c-.488-.169-.696.602-.212.771l4.893 1.698c.486.169.696-.602.212-.771z" fill="#2C2A2A"/><path d="M44.404 225.65h56.677v-2.772h-62.97a55.816 55.816 0 006.29 2.772h.003z" fill="#4D3938"/><path d="M38.111 222.88h64.439v-7.664H26.819a57.802 57.802 0 0011.292 7.664z" fill="#684949"/><path d="M27.065 163.704l13.327 51.515h60.413l-1.4-3.201-56.511-1.294-13.825-47.02h-2.004z" fill="#9D9E9E"/><path d="M238.903 201.122c-2.578 6.427-4.96 14.952-5.463 25.159a66.1 66.1 0 01-20.326 17.25c-10.928 5.976-23.374 8.523-35.829 7.091l-.657-.078v-62.992h53.132c7.006 0 11.742 7.067 9.143 13.57z" fill="#F18D74"/><path d="M110.381 208.199l-.641-7.388-.095-1.063 48.476-7.986 23.493-31.484c.007.057.024.105.033.16a29.84 29.84 0 00-1.208 6.812c-.047.911-.04 1.894.513 2.619.607.79 1.727 1.047 2.704.871.984-.169 1.856-.685 2.711-1.206 7.095-4.344 12.043-8.547 18.306-14.042l.048.065s14.146 3.97 14.706 22.283c.553 18.323-4.231 48.849-4.231 48.849l4.465 12.747a66.231 66.231 0 01-6.542 4.096c-10.928 5.975-23.374 8.523-35.829 7.091-3.138-.359-6.228-.93-9.277-1.656l1.806-20.342a31.464 31.464 0 01-4.872.504c-6.449.167-55.3-11.47-55.3-11.47l.126-1.582.615-7.747-.007-.136v.005z" fill="#FBC358"/><path d="M197.785 139.796a53.553 53.553 0 01-2.704-9.807c-1.017-5.847-1.096-12.012-3.752-17.314-2.657-5.322-7.943-9.123-13.742-10.343.465-5.464 4.808-10.407 10.199-11.517 5.489-1.135 11.569 1.798 14.097 6.795 1.872 3.73 2.063 8.53 5.31 11.149 2.087 1.694 4.96 2.02 7.335 3.283 3.336 1.765 5.527 5.502 5.439 9.272-.088 3.77-2.456 7.398-5.87 9.008 3.776.633 6.888 3.939 7.502 7.707.617 3.78-1.167 7.778-4.255 10.04-3.087 2.27-7.311 2.788-10.942 1.575-2.368-.799-4.462-2.293-6.073-4.203a49.44 49.44 0 01-2.544-5.647v.002z" fill="#2C2A2A"/><path d="M158.072 148.38a49.425 49.425 0 01-4.841-10.558 48.477 48.477 0 01-2.199-11.095l-.017-.088c2.042-.454 3.993-1.284 6.009-1.853 6.839-1.917 14.511-.613 20.326 3.459-1.222-2.262-1.32-5.585.882-6.941 1.598-.99 3.864-.4 5.103 1.03 1.231 1.42 1.567 3.456 1.289 5.326-.282 1.869-1.096 3.601-1.937 5.295 3.511 4.553 4.162 6.715 9.896 6.363l12.091 16.177c-6.264 5.495-11.212 9.696-18.307 14.041-.855.521-1.727 1.038-2.711 1.206-.977.176-2.096-.078-2.704-.87-.552-.726-.56-1.71-.512-2.619.136-2.31.543-4.6 1.208-6.813.031-.111.071-.23.105-.345l-.136.184a31.995 31.995 0 00-2.871-7.812c-1.151 1.392-2.423 2.652-3.928 3.651-2.742 1.83-6.464 2.565-9.358.992-1.327-.728-2.376-1.877-3.336-3.042a48.213 48.213 0 01-4.045-5.688h-.007z" fill="#FACDAD"/><path d="M177.588 102.331c5.798 1.223 11.087 5.024 13.741 10.343 2.654 5.304 2.735 11.467 3.753 17.314.583 3.347-3.71 6.156-2.502 9.325-5.734.352-6.385-1.811-9.896-6.363.841-1.694 1.655-3.426 1.936-5.295.279-1.87-.057-3.906-1.288-5.326-1.239-1.43-3.505-2.022-5.103-1.03-2.202 1.358-2.104 4.681-.882 6.941-5.815-4.075-13.487-5.376-20.326-3.459-2.016.566-3.967 1.397-6.009 1.853-.136.041-.279.065-.417.098-2.192.44-4.624.359-6.487-.878-1.863-1.239-2.887-3.882-1.792-5.83.51-.902 1.375-1.549 2.216-2.158 3.528-2.58 7.057-5.149 10.585-7.723 4.624-3.371 9.439-6.82 15.047-7.907 2.456-.478 4.984-.416 7.424.095z" fill="#2C2A2A"/><path d="M158.071 148.374l-4.281 1.142c-.183-3.899-.374-7.805-.56-11.701a49.504 49.504 0 004.841 10.559zm-61.253 54.802c4.496 1.703 8.863 4.034 13.558 5.017l.007.135-.614 7.748a21.093 21.093 0 01-11.831 2.124 21.02 21.02 0 01-11.512-5.193c-.96.847-1.92 1.694-2.88 2.548-.56.494-1.32 1.022-1.992.694-.705-.352-.705-1.375-.4-2.093.312-.728.815-1.413.791-2.196l-4.56 2.517c-.679.366-1.625.702-2.127.119-.448-.511-.153-1.301.2-1.877a15.493 15.493 0 013.23-3.794 1205.6 1205.6 0 00-4.824 1.159c-.431.104-.96.176-1.241-.169-.327-.39-.04-.975.264-1.389 3.56-4.746 9.544-7.572 15.478-7.324 2.928.128 5.711.935 8.446 1.972l.007.002z" fill="#FACDAD"/><path d="M109.738 200.806l.641 7.388c-4.696-.982-9.063-3.313-13.558-5.016 4.312-.79 8.614-1.58 12.919-2.372h-.002z" fill="#FACDAD"/><path d="M109.32 208.54l-11.066-5.323c-.462-.224-.867.466-.402.689l11.066 5.324c.462.221.867-.466.402-.69zm-18.487-1.055c-3.24-.181-6.483 1.158-8.648 3.573-.343.38.221.949.565.564a10.141 10.141 0 018.08-3.338c.515.029.513-.77 0-.799h.003zm-4.222-2.271a31.415 31.415 0 00-7.826 2.921c-.453.243-.05.933.405.69a30.505 30.505 0 017.633-2.842c.503-.112.29-.883-.212-.771v.002zm95.675-59.555a18.542 18.542 0 01-3.34 6.32c-.322.397.24.966.564.566a19.497 19.497 0 003.545-6.675c.148-.492-.621-.704-.771-.211h.002zm-13.784-.559c-.124-.499-.896-.287-.77.212.541 2.165-.257 4.517-1.967 5.937-.396.331.173.892.567.566 1.927-1.6 2.777-4.293 2.172-6.715h-.002zm-7.704-13.691a14.026 14.026 0 00-4.986.659c-.596.193-1.043.84-.839 1.475.193.595.837 1.044 1.475.837a12.779 12.779 0 011.696-.43c.086-.017.174-.031.26-.045.033-.005.379-.048.191-.029.069-.009.166-.019.183-.021.086-.01.174-.017.262-.024a12.991 12.991 0 011.754-.026c.629.033 1.229-.573 1.2-1.197-.031-.678-.526-1.163-1.2-1.199h.004zm.908 5.7a2.241 2.241 0 01-4.483 0 2.24 2.24 0 014.483 0z" fill="#2C2A2A"/><path d="M176.632 139.347a4.222 4.222 0 01-4.226 4.22 4.225 4.225 0 01-4.229-4.22 4.225 4.225 0 014.229-4.222 4.224 4.224 0 014.226 4.222z" fill="#F18D74"/><path d="M196.554 249.684l-17.787.114-6.618.043c1.696.316 3.406.578 5.134.775a59.588 59.588 0 0019.271-.932zm21.154-15.819a614.866 614.866 0 01-36.951 1.689c-3.854.06-7.709.081-11.564.069l-.212 2.396a615.289 615.289 0 0049.544-1.818l-.817-2.336zm-1.471-14.438a947.09 947.09 0 01-28.977 3.916 967.03 967.03 0 01-35.991 3.615c3.39.681 6.428 1.249 8.827 1.637a971.9 971.9 0 0055.802-6.706c.105-.749.22-1.57.339-2.459v-.003zm1.4-11.406l-34.028.456c-16.376.219-32.75.44-49.125.662l-24.19.326-.191 2.397 45.949-.618c16.377-.221 32.751-.443 49.125-.661l12.188-.165c.091-.785.184-1.584.274-2.4l-.002.003zm1.278-13.708a1127.631 1127.631 0 00-106.349 4.955l-2.928.482.095 1.064.098 1.113a1128.826 1128.826 0 0141.529-3.233 1133.258 1133.258 0 0167.372-1.984c.064-.799.126-1.598.183-2.395v-.002zm.549-14.013c-3.959.123-7.917.23-11.876.323-13.83.328-27.664.483-41.499.457l-1.784 2.39a1631.585 1631.585 0 0055.15-.778c.011-.813.014-1.612.009-2.395v.003zm-1.69-11.551a1440.004 1440.004 0 00-44.625 2.874l-1.903 2.55a1432.069 1432.069 0 0147.257-3.066 26.277 26.277 0 00-.729-2.36v.002z" fill="#EAA22D"/><path d="M194.424 166.3a778.776 778.776 0 01-25.23 27.971c-2.435 2.574-4.989 5.321-7.457 7.862-.059.059.012-.067 0 0-6.48.542-12.96 1.087-19.438 1.632l-19.962 1.679c-3.74.314-7.48.628-11.223.944-.507.043-.515.842 0 .797l19.864-1.67c6.654-.559 13.308-1.118 19.962-1.679l10.488-.88c.295-.026 1.105-.588 1.105-.588a779.734 779.734 0 0032.46-35.501c.334-.388-.229-.957-.565-.567h-.004zm16.92 24.687a386.005 386.005 0 01-15.362 15.214 382.127 382.127 0 01-25.62 21.943c-.405.316.164.88.565.564a381.213 381.213 0 0016.643-13.806 381.92 381.92 0 0024.338-23.354c.355-.373-.209-.937-.564-.564v.003z" fill="#2C2A2A"/><path d="M178.814 165.044a100.934 100.934 0 00-11.621 25.382 101.146 101.146 0 00-1.954 7.619c-.107.502.662.716.77.214a100.258 100.258 0 019.52-26.02 101.475 101.475 0 013.973-6.791c.279-.435-.414-.835-.691-.402l.003-.002z" fill="#2C2A2A"/><path d="M458.68 113.491c-1.454 7.76-4.129 15.272-7.791 22.279-3.411 7.531-8.221 14.47-13.958 20.435-11.49 11.96-26.48 19.919-42.559 23.768-17.706 4.239-36.31 3.77-54.08.24-16.348-3.247-32.246-9.238-46.452-17.973a123.238 123.238 0 01-17.677-13.173c-8.193-6.27-15.409-13.744-21.051-22.507-5.918-9.172-9.963-19.548-11.328-30.295a95.77 95.77 0 01-2.628-15.09c-1.529-16.332 1.444-33.111 9.263-47.6 7.745-14.327 20.276-25.847 35.936-30.859l.162-.052.162-.052.04-.012.124-.038.162-.05.081-.024.084-.026.164-.05.005-.002.157-.048.164-.048.162-.047h.003l.164-.048.165-.047.038-.01.126-.036.164-.045.079-.021.086-.024.164-.045.119-.031.048-.012.324-.086.007-.002C296.218.045 303.467-.488 310.541.466c7.781 1.04 15.037 4.018 21.556 8.342.381.252.76.51 1.134.768l.002.005c8.445 5.83 15.547 13.304 23.202 20.098l.04.038.475.418.085.076.429.376.115.1.4.35.181.155.288.247.281.24.281.238.241.205.264.22.279.234.3.25.229.188.326.266.212.171.313.252.259.21.281.223.267.212.281.221.269.212.346.266.195.15.296.226.302.229.208.157.338.252.369.27.174.13.426.306.155.112.422.3.143.102.036.024c.183.128.367.257.55.383l.019.012c.191.13.381.261.574.39 6.435 4.343 13.442 7.11 21.041 8.618 7.676 1.527 15.517 1.976 23.298 2.797 7.571.804 15.266 1.881 22.361 4.803 7.14 2.94 13.222 7.654 17.579 14.05 8.825 12.962 10.142 30.086 7.333 45.138l-.016-.005z" fill="#7A18A0"/><path d="M389.139 142.158c-5.932 1.83-12.496 1.518-18.225-.856l-.92-11.244a126.861 126.861 0 0117.713-.459c2.692.114 5.47.347 7.841 1.629 2.334 1.266 4.028 3.426 5.653 5.524 2.223 2.871 4.522 5.939 4.889 9.536-1.442-.557-2.883-1.111-4.324-1.665.364.511.745 1.032.841 1.648.102.616-.158 1.344-.746 1.551-.679.243-1.372-.269-1.911-.744-1.319-1.164-2.63-2.324-3.94-3.485.453.735.912 1.515.962 2.383.062.866-.433 1.837-1.291 2.003-.905.174-1.694-.564-2.318-1.239-1.406-1.525-2.823-3.059-4.219-4.579l-.005-.003z" fill="#FACDAD"/><path d="M303.939 89.053c.591.58 1.129 1.16 1.605 1.743l5.654 13.014 18.825 11.332 24.26-26.025 1.613 1.256 11.15 8.723.331.261-17.68 29.225 20.215.537.078.938.92 11.244.105 1.282-48.112 11.322 5.167 21.858h-4.839c-10.282-3.356-20.19-7.862-29.391-13.518a123.238 123.238 0 01-17.677-13.173c-8.193-6.27-15.41-13.744-21.051-22.507l-.25-.39v-.015l.059-.835c.031-.43.067-.863.1-1.296l.069-.823a306.908 306.908 0 01.208-2.276c.045-.459.09-.919.138-1.38l.081-.771c.052-.48.107-.963.162-1.444l.086-.716c.059-.49.121-.98.185-1.47l.086-.654c.069-.523.143-1.044.217-1.567l.107-.74c.079-.53.16-1.059.243-1.589l.091-.552c.085-.533.176-1.063.267-1.591l.092-.528c.098-.552.201-1.104.305-1.656l.084-.44c.119-.614.24-1.225.369-1.834l.093-.44c.119-.564.241-1.125.369-1.684l.098-.426c.129-.564.262-1.125.4-1.684l.088-.364c.15-.602.305-1.201.463-1.796l.069-.264c.166-.623.34-1.241.519-1.86l.093-.319c.167-.573.341-1.146.517-1.712l.095-.305c.181-.575.367-1.146.558-1.712l.085-.257c.21-.616.424-1.225.646-1.832l.055-.152c.219-.597.443-1.19.674-1.777l.091-.228c.221-.557.445-1.106.679-1.651l.104-.248c.243-.563.489-1.122.744-1.674l.059-.13a61.23 61.23 0 01.844-1.761l.045-.088a67.2 67.2 0 01.855-1.653l.091-.167c.283-.525.574-1.042.869-1.553l.091-.16c.309-.532.629-1.056.953-1.572l.043-.066a49.57 49.57 0 011.034-1.573l.071-.102c.334-.485.674-.963 1.022-1.432l.117-.157c.343-.459.695-.911 1.053-1.356l.1-.126c.388-.478.784-.944 1.189-1.4 0 0 .755.32 2.049.91 5.643 2.583 21.551 10.23 29.191 17.833l.012-.007z" fill="#377BFF"/><path d="M271.096 123.782c-.651-.342-1.382-.14-1.782.467a2927.28 2927.28 0 00-3.319 5.047c-.374.569-.133 1.461.467 1.779.653.345 1.384.143 1.782-.466 1.105-1.682 2.211-3.366 3.319-5.047.374-.571.133-1.463-.467-1.78zm-6.572 1.536c-.853-1.582-1.706-3.166-2.562-4.748-.321-.599-1.203-.839-1.782-.466-.61.393-.812 1.137-.467 1.779l2.559 4.748c.324.6 1.206.838 1.782.467.61-.393.813-1.138.467-1.78h.003zm6.193-10.101c-.486-.447-1.368-.552-1.842 0l-3.383 3.934c-.226.267-.381.559-.381.921 0 .318.141.699.381.918.489.447 1.368.552 1.842 0l3.383-3.934c.228-.267.381-.559.381-.919 0-.318-.141-.699-.381-.918v-.002zm-6.464.183l-2.251-4.338c-.314-.605-1.21-.835-1.782-.467-.617.398-.803 1.133-.467 1.78.753 1.446 1.503 2.892 2.254 4.338.314.607 1.213.835 1.782.467.617-.398.803-1.133.467-1.78h-.003zm12.014-11.022c-.715.181-1.12.82-1.008 1.539.31 1.988.622 3.977.931 5.966.108.673.884 1.175 1.542 1.008.714-.183 1.122-.821 1.007-1.539a4325.11 4325.11 0 00-.931-5.966c-.105-.673-.884-1.175-1.541-1.006v-.002zm-3.846 5.545c-1.696-.602-3.39-1.206-5.087-1.808-.643-.228-1.458.186-1.636.847-.189.702.162 1.389.848 1.634 1.696.602 3.392 1.204 5.089 1.808.643.228 1.455-.186 1.634-.847a1.327 1.327 0 00-.848-1.632v-.002zm-2.178-11.633c-.662-.005-1.384.507-1.365 1.235l.133 5.183c.01.35.093.668.334.937.214.238.577.426.901.426.662.005 1.386-.507 1.367-1.235l-.136-5.183c-.007-.35-.093-.67-.333-.937-.215-.238-.574-.423-.901-.426zm-4.68 4.465c-1.529-.571-3.056-1.139-4.586-1.708-.638-.238-1.458.193-1.634.847-.191.709.164 1.377.848 1.632 1.529.57 3.057 1.139 4.586 1.707.639.238 1.458-.192 1.634-.846.191-.707-.164-1.378-.848-1.632zm20.268 39.142c-.65-.342-1.382-.143-1.782.466-1.105 1.682-2.213 3.364-3.319 5.048-.374.571-.133 1.463.467 1.779.651.343 1.382.14 1.782-.466 1.106-1.684 2.211-3.366 3.319-5.048.374-.571.133-1.463-.467-1.779zm-6.038.042l-2.559-4.748c-.324-.6-1.205-.838-1.782-.466-.61.392-.812 1.137-.467 1.779l2.559 4.748c.324.599 1.205.837 1.782.466.61-.393.812-1.14.467-1.779zm4.954-10.243c-.486-.445-1.368-.552-1.842 0l-3.383 3.935c-.229.266-.381.559-.381.92 0 .319.141.699.381.918.486.445 1.368.552 1.842 0 1.127-1.313 2.253-2.623 3.383-3.934.228-.267.381-.561.381-.921 0-.318-.141-.699-.381-.918zm-6.47.184c-.751-1.446-1.504-2.892-2.252-4.339-.314-.606-1.21-.832-1.782-.466-.617.397-.803 1.132-.467 1.779.751 1.447 1.504 2.893 2.254 4.339.315.607 1.213.833 1.782.466.617-.397.803-1.132.467-1.779h-.002zm12.019-11.02c-.714.181-1.119.819-1.007 1.539.309 1.989.622 3.978.931 5.966.105.673.884 1.173 1.542 1.006.714-.181 1.119-.82 1.007-1.539-.309-1.988-.619-3.977-.931-5.965-.105-.674-.884-1.176-1.542-1.007zm-3.845 5.541c-1.696-.602-3.393-1.206-5.089-1.806-.641-.228-1.456.186-1.634.847-.188.699.162 1.387.848 1.632l5.089 1.808c.643.228 1.455-.186 1.634-.847.188-.7-.162-1.389-.848-1.634zm-2.185-11.642c-.662-.005-1.384.507-1.365 1.232l.136 5.183c.01.35.093.671.334.938.214.235.576.423.9.425.662.005 1.384-.506 1.368-1.234l-.136-5.183c-.01-.35-.093-.671-.334-.938-.214-.235-.576-.423-.9-.425l-.003.002zm-4.673 4.476l-4.586-1.708c-.638-.238-1.458.193-1.634.847-.191.709.164 1.377.848 1.632 1.529.571 3.057 1.139 4.586 1.708.639.237 1.458-.193 1.634-.847.191-.709-.164-1.38-.848-1.634v.002zm-19.613 14.093a1.395 1.395 0 00-.3-.826 3763.27 3763.27 0 01-3.688-4.786 1.044 1.044 0 00-.284-.254 82.763 82.763 0 004.272 5.866zm4.226 4.913l-1.12-1.92c-.176-.302-.405-.542-.745-.661a1.344 1.344 0 00-.496-.069 87.22 87.22 0 002.361 2.647v.003zm2.841-1.861l4.843-.701c.674-.098 1.187-.869 1.025-1.527-.174-.714-.808-1.13-1.532-1.026-1.615.236-3.228.469-4.844.704-.674.098-1.186.869-1.024 1.527.174.712.808 1.128 1.53 1.023h.002zm4.755 3.307c-.651-.345-1.384-.143-1.782.466l-1.558 2.372a96.308 96.308 0 001.941 1.781l1.866-2.837c.374-.571.133-1.463-.467-1.78v-.002zm36.474-9.283c-.65-.344-1.381-.142-1.782.467l-3.318 5.047c-.374.571-.134 1.463.467 1.779.65.345 1.381.141 1.782-.466 1.105-1.684 2.213-3.366 3.318-5.047.374-.571.134-1.463-.467-1.78zm-6.58 1.533l-2.559-4.747c-.324-.6-1.205-.838-1.782-.467-.61.393-.815 1.14-.467 1.78l2.559 4.75c.324.599 1.206.837 1.782.466.608-.392.812-1.139.467-1.779v-.003zm6.194-10.086c-.486-.447-1.367-.552-1.841 0l-3.383 3.934c-.229.264-.381.559-.381.918 0 .319.14.7.381.921.488.447 1.37.549 1.841 0 1.127-1.313 2.254-2.624 3.383-3.934.229-.267.382-.559.382-.919 0-.318-.143-.699-.382-.92zm-6.46.169c-.751-1.447-1.504-2.893-2.254-4.339-.315-.604-1.21-.833-1.782-.466-.617.397-.803 1.132-.467 1.779.75 1.446 1.503 2.893 2.251 4.339.315.606 1.21.835 1.782.466.617-.397.803-1.132.467-1.779h.003zm12.018-11.018c-.715.183-1.122.821-1.008 1.539.31 1.989.619 3.977.931 5.966.105.673.884 1.172 1.542 1.006.712-.181 1.12-.821 1.008-1.539l-.932-5.968c-.107-.673-.884-1.173-1.541-1.006v.002zm-3.846 5.541c-1.696-.602-3.392-1.203-5.089-1.808-.64-.228-1.455.186-1.634.847-.19.7.162 1.389.848 1.634l5.089 1.806c.643.228 1.456-.186 1.637-.847.188-.699-.162-1.389-.848-1.634l-.003.002zm-2.185-11.632c-.66-.005-1.384.506-1.365 1.234l.133 5.181c.01.35.093.671.336.939.214.238.577.424.901.426.66.005 1.384-.509 1.365-1.234l-.136-5.181c-.01-.35-.093-.671-.336-.94-.214-.237-.577-.423-.901-.425h.003zm-4.676 4.464c-1.527-.568-3.056-1.139-4.583-1.708-.641-.238-1.461.193-1.635.847-.19.709.165 1.377.849 1.632 1.527.571 3.056 1.139 4.583 1.708.639.238 1.458-.193 1.635-.847.19-.709-.165-1.377-.849-1.634v.002zm20.264 39.144c-.653-.345-1.384-.143-1.782.466a3664.1 3664.1 0 01-3.319 5.047c-.374.571-.133 1.463.467 1.78.651.342 1.382.14 1.782-.467 1.108-1.681 2.213-3.365 3.319-5.047.374-.571.133-1.463-.467-1.779zm-6.039.04l-2.558-4.748c-.324-.599-1.206-.837-1.782-.466-.61.392-.813 1.139-.467 1.779.853 1.584 1.708 3.166 2.561 4.748.321.599 1.205.839 1.782.466.61-.392.815-1.137.467-1.779h-.003zm4.954-10.242c-.486-.447-1.367-.552-1.841 0l-3.383 3.935c-.229.266-.381.559-.381.918 0 .319.143.702.381.92.486.445 1.367.55 1.841 0 1.13-1.313 2.254-2.623 3.383-3.934.229-.266.382-.559.382-.921 0-.318-.143-.699-.382-.918zm-6.467.183c-.753-1.446-1.504-2.892-2.254-4.338-.315-.607-1.213-.833-1.782-.467-.617.398-.803 1.133-.467 1.78l2.251 4.338c.315.605 1.211.833 1.782.467.617-.398.803-1.133.467-1.78h.003zm12.018-11.022c-.713.18-1.122.82-1.008 1.539l.932 5.968c.104.673.883 1.172 1.541 1.006.715-.183 1.12-.821 1.01-1.539-.31-1.989-.622-3.977-.931-5.966-.105-.673-.884-1.173-1.542-1.006l-.002-.002zm-3.846 5.545l-5.088-1.808c-.641-.228-1.456.186-1.635.847-.19.7.162 1.389.848 1.632 1.697.602 3.39 1.206 5.087 1.805.643.229 1.455-.183 1.634-.846.188-.7-.162-1.39-.848-1.632l.002.002zm-2.178-11.632c-.662-.005-1.387.506-1.365 1.234l.136 5.183c.009.35.092.669.335.938.215.235.575.423.901.425.66.005 1.384-.506 1.365-1.234l-.133-5.183c-.01-.35-.093-.671-.336-.937-.215-.236-.574-.424-.901-.426h-.002zm-4.673 4.466c-1.527-.571-3.057-1.139-4.584-1.71-.641-.238-1.46.195-1.637.847-.19.709.165 1.377.848 1.634l4.584 1.708c.641.24 1.461-.193 1.637-.847.19-.706-.164-1.377-.848-1.632zm-9.186 38.326c.736-.012 1.279-.537 1.339-1.263l.478-6.02c.055-.681-.586-1.347-1.265-1.337-.736.012-1.279.54-1.336 1.263-.162 2.008-.322 4.013-.481 6.018-.055.68.586 1.346 1.265 1.337v.002zm5.024-4.504l4.529 2.936c.572.371 1.46.154 1.787-.448.345-.637.164-1.386-.448-1.781-1.511-.98-3.019-1.958-4.529-2.935-.572-.372-1.46-.157-1.787.444-.345.638-.164 1.387.448 1.784zm-.574 11.83c.643.157 1.465-.174 1.615-.885l1.072-5.072c.072-.342.065-.673-.109-.989-.153-.278-.46-.545-.777-.623-.641-.157-1.465.173-1.615.885l-1.072 5.071c-.072.342-.065.675.107.989.155.281.462.548.777.624h.002zm5.583-3.263c1.354.909 2.709 1.815 4.062 2.724.567.38 1.466.149 1.787-.445.35-.645.16-1.38-.445-1.784l-4.065-2.724c-.564-.38-1.462-.15-1.786.445-.351.645-.16 1.38.447 1.784zm-20.91-27.288c.538-.502.586-1.259.143-1.834l-3.688-4.786c-.417-.543-1.342-.607-1.837-.143-.539.502-.586 1.256-.143 1.834l3.688 4.786c.417.54 1.341.606 1.837.143zm22.7 33.489a1.325 1.325 0 00-1.491-.892l-.653.104c.712.269 1.427.531 2.144.788zm-17.134-25.291c.582-.312.97-1.109.606-1.737l-2.614-4.479c-.174-.302-.402-.542-.743-.661-.303-.105-.708-.095-.996.057-.581.314-.97 1.111-.603 1.737l2.614 4.479c.176.302.405.544.745.661.301.105.708.095.996-.059l-.005.002zm1.947-6.155c1.613-.233 3.229-.469 4.844-.702.676-.098 1.186-.871 1.027-1.53-.174-.711-.808-1.127-1.53-1.022l-4.843.701c-.677.098-1.187.869-1.027 1.527.174.714.808 1.13 1.532 1.023l-.003.003zm-16.869 13.463c.736-.011 1.279-.537 1.339-1.263.16-2.007.319-4.012.481-6.02.053-.678-.588-1.346-1.267-1.337-.736.012-1.28.538-1.337 1.263-.159 2.008-.321 4.013-.479 6.021-.055.68.586 1.346 1.265 1.336h-.002zm6.395-4.758c1.511.978 3.021 1.958 4.529 2.936.572.371 1.461.154 1.787-.445.345-.638.164-1.389-.446-1.784-1.51-.98-3.02-1.958-4.531-2.936-.572-.371-1.46-.154-1.787.445-.345.638-.164 1.389.446 1.784h.002zm-.156 10.383l.898-4.255c.072-.343.065-.673-.107-.99-.155-.28-.46-.545-.776-.623-.641-.157-1.463.174-1.616.882l-.741 3.502c.775.502 1.556.997 2.342 1.482v.002zm3.795-1.559l4.065 2.723c.567.381 1.465.15 1.786-.447.351-.642.16-1.377-.445-1.784-1.356-.909-2.709-1.817-4.064-2.724-.567-.38-1.463-.149-1.787.445-.35.645-.162 1.38.445 1.784v.003zm10.759 9.332c-.221-.621-.814-.971-1.484-.873l-.295.043c.591.28 1.184.559 1.779.83zm.834-23.556c-.651-.343-1.382-.141-1.782.466a4392.217 4392.217 0 01-3.319 5.048c-.374.57-.133 1.462.467 1.779.65.345 1.384.143 1.782-.466 1.105-1.685 2.213-3.366 3.319-5.048.374-.568.133-1.463-.467-1.779zm-20.614-4.163c1.511.977 3.021 1.955 4.529 2.935.572.371 1.46.157 1.787-.445.345-.637.164-1.387-.448-1.784-1.511-.977-3.019-1.957-4.529-2.935-.572-.371-1.46-.157-1.787.447-.345.638-.164 1.387.448 1.784v-.002zm34.507 22.269l2.335-.747-.601-2.538-2.618.839c-.65.21-1.046 1.03-.784 1.665a1.335 1.335 0 001.668.783v-.002zm32.528-51.898c-.65-.342-1.382-.14-1.782.466a3374.317 3374.317 0 01-3.319 5.048c-.374.571-.133 1.463.467 1.779.651.345 1.382.143 1.782-.466 1.106-1.682 2.211-3.366 3.319-5.048.374-.568.134-1.463-.467-1.779zm-3.464-2.522l-2.558-4.748c-.324-.599-1.206-.837-1.783-.466-.609.392-.812 1.137-.466 1.779l2.558 4.748c.324.599 1.206.837 1.782.466.608-.392.813-1.137.467-1.779zm-70.081-25.548c.736-.012 1.279-.54 1.336-1.266.162-2.005.322-4.012.479-6.02.055-.68-.586-1.346-1.265-1.334-.736.012-1.279.537-1.339 1.263l-.479 6.02c-.055.68.589 1.347 1.265 1.337h.003zm5.024-4.511l4.529 2.935c.572.371 1.461.157 1.787-.447.286-.528.212-1.135-.174-1.553a134.578 134.578 0 00-5.703-3.326c-.367.067-.71.28-.889.607a1.33 1.33 0 00.445 1.784h.005zm-.572 11.82c.641.157 1.465-.173 1.615-.882l1.072-5.074c.072-.34.065-.673-.107-.987-.155-.28-.462-.545-.776-.623-.644-.157-1.466.173-1.616.885l-1.072 5.071c-.071.343-.064.673.107.99.155.278.463.544.777.623v-.003zm5.579-3.258c1.356.906 2.709 1.815 4.062 2.724.567.38 1.463.15 1.787-.447.35-.645.159-1.378-.448-1.785a3187.21 3187.21 0 01-4.062-2.723c-.567-.38-1.463-.15-1.787.447-.35.645-.159 1.377.448 1.784zm-4.53 8.729l5.332-.856c.674-.107 1.188-.861 1.026-1.53-.171-.704-.81-1.139-1.529-1.022l-5.332.856c-.674.11-1.186.861-1.027 1.527.172.707.81 1.14 1.532 1.025h-.002zm69.828 3.082c.582-.311.97-1.108.606-1.736l-2.614-4.479c-.176-.302-.405-.542-.746-.661-.302-.105-.707-.095-.995.057-.584.314-.97 1.11-.603 1.736.869 1.494 1.741 2.988 2.611 4.482.176.302.405.542.746.661.3.105.707.095.995-.06zm-14.758 12.279c.736-.012 1.279-.538 1.337-1.263.159-2.008.319-4.013.481-6.018.055-.681-.586-1.347-1.265-1.337-.736.012-1.28.54-1.339 1.263-.16 2.008-.319 4.013-.481 6.02-.055.681.588 1.347 1.267 1.337v-.002zm7.724-10.756c1.51.977 3.021 1.957 4.529 2.935.571.371 1.46.157 1.786-.445.346-.637.165-1.387-.447-1.784a5376.52 5376.52 0 00-4.529-2.935c-.572-.371-1.461-.155-1.787.447-.346.637-.165 1.387.448 1.784v-.002zm-84.08-17.782c.643.157 1.465-.174 1.615-.883l1.072-5.074c.071-.342.067-.673-.107-.99a1.391 1.391 0 00-.593-.558 58.126 58.126 0 00-2.592 4.576l-.279 1.316c-.072.342-.065.675.109.99.153.28.46.544.777.623h-.002zm5.586-3.258c1.355.906 2.708 1.815 4.062 2.721.567.38 1.465.15 1.786-.445.351-.644.16-1.377-.445-1.784-1.356-.906-2.709-1.815-4.064-2.723-.567-.379-1.463-.15-1.787.447-.35.645-.16 1.377.445 1.784h.003zm-5.237 15.427c.538-.502.586-1.259.143-1.834a5391.46 5391.46 0 01-3.688-4.786c-.21-.271-.551-.424-.898-.447a84.478 84.478 0 00-.853 2.435l3.459 4.489c.417.54 1.341.607 1.837.143zm.707-6.711l5.332-.856c.674-.107 1.189-.862 1.027-1.528-.172-.704-.81-1.139-1.53-1.025-1.777.288-3.554.571-5.332.857-.674.109-1.188.863-1.026 1.53a1.33 1.33 0 001.531 1.022h-.002zm7.516 9.155c.582-.31.97-1.108.603-1.736l-2.613-4.479c-.177-.302-.405-.542-.746-.663-.303-.105-.71-.096-.996.059-.581.314-.969 1.108-.603 1.736.872 1.494 1.742 2.988 2.614 4.48.176.302.403.544.743.66.303.105.708.096.996-.059l.002.003zm1.95-6.16c1.615-.232 3.228-.468 4.843-.7.677-.098 1.186-.869 1.027-1.528-.174-.711-.808-1.127-1.53-1.023-1.615.233-3.228.469-4.843.702-.677.098-1.187.868-1.027 1.527.174.714.808 1.13 1.532 1.025l-.002-.002zm86.617 8.099c-.651-.345-1.382-.141-1.782.466a4392.217 4392.217 0 01-3.319 5.048c-.374.57-.133 1.462.467 1.779.65.345 1.384.143 1.782-.466l3.319-5.048c.374-.568.133-1.463-.467-1.779zm-77.218-.282c-.65-.345-1.381-.142-1.782.467-1.107 1.681-2.21 3.365-3.318 5.047-.377.571-.134 1.463.467 1.779.65.345 1.381.143 1.782-.466 1.105-1.684 2.211-3.366 3.316-5.047.376-.571.133-1.463-.467-1.78h.002zm22.352-1.748l-2.558-4.748c-.324-.6-1.206-.837-1.782-.466-.608.392-.813 1.137-.467 1.779.852 1.584 1.705 3.166 2.558 4.748.324.599 1.206.839 1.782.466.61-.392.813-1.137.467-1.78zm-52.941 21.298c.353-.131.646-.398.741-.788l1.239-5.035c.083-.34.088-.671-.076-.992-.146-.286-.444-.562-.756-.65a1.28 1.28 0 00-.217-.04 171.988 171.988 0 00-.931 7.502v.003zm43.436-18.703c.736-.012 1.279-.538 1.336-1.263.162-2.008.32-4.013.482-6.02.054-.681-.589-1.347-1.265-1.338-.737.012-1.282.54-1.339 1.266l-.479 6.02c-.055.681.586 1.347 1.265 1.335zm-8.032 1.625l4.529 2.935c.572.371 1.461.155 1.787-.447.346-.638.165-1.387-.445-1.784-1.511-.98-3.021-1.958-4.532-2.935-.571-.371-1.46-.155-1.786.447-.346.637-.167 1.387.445 1.784h.002zm2.534 5.486c-.65-.343-1.382-.143-1.782.466-1.105 1.684-2.213 3.366-3.319 5.05-.374.571-.131 1.463.467 1.779.651.345 1.382.143 1.782-.466 1.106-1.682 2.211-3.366 3.319-5.05.374-.568.133-1.463-.467-1.779zm39.435 39.102c-.65-.345-1.382-.14-1.782.467l-3.226 4.907 3.681-.866 1.794-2.728c.374-.569.133-1.463-.467-1.78zm-3.467-2.523l-2.559-4.748c-.324-.599-1.206-.837-1.782-.466-.61.393-.812 1.137-.467 1.779l2.559 4.748c.324.6 1.205.838 1.782.467.61-.393.812-1.137.467-1.78zm3.067-26.086c-.65-.342-1.382-.14-1.782.466l-3.316 5.05c-.377.569-.134 1.461.467 1.78.65.344 1.384.142 1.782-.467 1.108-1.681 2.213-3.365 3.318-5.047.374-.571.134-1.463-.467-1.779l-.002-.003zm-3.47-2.525l-1.417-2.631-3.412-2.053c-.195.378-.202.835.022 1.249l2.559 4.748c.324.599 1.205.839 1.782.466.609-.392.812-1.137.466-1.779zm18.295 8.912c.584-.311.97-1.108.603-1.736l-2.613-4.479c-.177-.302-.405-.542-.746-.661-.302-.107-.708-.098-.996.057-.583.314-.972 1.111-.605 1.736.87 1.494 1.742 2.988 2.614 4.482.176.302.405.542.745.661.303.104.708.095.996-.06h.002zm-27.8-6.316c.736-.01 1.279-.538 1.336-1.263.162-2.008.322-4.013.482-6.021.054-.68-.586-1.346-1.265-1.334-.737.01-1.28.538-1.339 1.263l-.479 6.021c-.055.68.588 1.346 1.265 1.334zm16.531 4.273l4.532 2.936c.571.371 1.46.154 1.786-.445.348-.638.165-1.389-.445-1.784l-4.529-2.935c-.572-.371-1.46-.155-1.787.447-.345.635-.164 1.389.446 1.784l-.003-.003zm5.397-6.63c.393-.621.25-1.365-.326-1.81-1.594-1.232-3.188-2.467-4.779-3.699-.541-.416-1.451-.247-1.815.324-.394.621-.251 1.365.326 1.81l4.781 3.699c.541.416 1.451.245 1.813-.326v.002zm-1.077 27.915c.183-.713-.183-1.375-.87-1.622l-5.689-2.053c-.643-.231-1.455.21-1.624.868-.184.712.183 1.375.867 1.623 1.896.685 3.793 1.367 5.689 2.052.641.234 1.455-.211 1.625-.865l.002-.003zm1.657-3.949c1.344-1.197 2.69-2.391 4.033-3.587.51-.452.536-1.365.041-1.839-.524-.502-1.299-.526-1.842-.04-1.343 1.196-2.687 2.39-4.033 3.587-.51.452-.536 1.365-.041 1.838.524.502 1.299.526 1.842.041zm10.651 2.843c.44.493 1.305.683 1.832.183l3.757-3.577c.255-.243.436-.519.471-.878.034-.319-.071-.711-.288-.951-.441-.495-1.305-.685-1.832-.183-1.253 1.191-2.506 2.385-3.757 3.577-.252.24-.436.519-.472.875-.031.319.072.712.289.954zm-18.341-9.719c.181.711.822 1.118 1.542 1.006 1.991-.309 3.983-.621 5.975-.93.674-.105 1.174-.883 1.007-1.542-.183-.713-.821-1.118-1.541-1.006-1.992.309-3.986.621-5.975.93-.674.105-1.174.883-1.008 1.539v.003zm15.228 3.25l-1.808 5.081c-.229.642.186 1.456.848 1.634.7.188 1.391-.162 1.634-.847l1.808-5.081c.227-.642-.185-1.453-.848-1.631-.7-.188-1.391.161-1.636.846l.002-.002zm.167 10.788l-.053-.019-5.689-2.051c-.641-.233-1.456.212-1.625.866-.183.711.184 1.375.867 1.622l1.866.674 4.634-1.09v-.002zm15.458-8.473c-.651-.344-1.382-.142-1.782.467l-3.319 5.047a1.124 1.124 0 00-.178.574l3.444-.812 2.299-3.496c.374-.571.134-1.463-.467-1.78h.003zm1.188-6.273l-2.104-3.903-2.868-.076c.014.183.069.368.164.544l2.559 4.748c.324.599 1.205.837 1.782.466.61-.392.812-1.137.467-1.779zm-9.888 2.59c.736-.009 1.282-.537 1.339-1.263l.429-5.392-2.604-.069-.431 5.39c-.055.68.588 1.346 1.265 1.334h.002zm-9.774-5.045l4.531 2.935c.572.371 1.46.157 1.787-.445.345-.637.164-1.389-.446-1.784-1.51-.98-3.021-1.958-4.529-2.935-.571-.371-1.46-.155-1.786.447-.346.637-.165 1.387.445 1.784l-.002-.002zm23.547 1.574l-2.943 4.477c-.376.571-.133 1.463.467 1.779.651.343 1.385.141 1.782-.466l1.039-1.579-.345-4.211z" fill="#3935D8"/><path d="M368.449 92.143c.095.954.243 1.907.6 2.792a6.46 6.46 0 01-1.865 3.99l-.141.173-11.149-8.723c.626-1.776 1.243-3.572 1.868-5.359.886-2.538 1.796-5.13 3.473-7.238a12.201 12.201 0 017.433-4.405c-.312.39-.545.868-.703 1.455-.312 1.178-.305 2.505-.269 3.77-.252.105-.505.21-.755.312-.562.233-1.129.495-1.589.895-.46.406-.817.96-.841 1.577-.053.953.719 1.803 1.615 2.167.548.216 1.137.294 1.737.302.374.016.746.007 1.12-.007-.365.164-.737.328-1.094.51-.736.382-1.422.834-1.891 1.5-.208.278-.365.606-.382.953-.035.833.798 1.482 1.632 1.56.305.027.601-.006.894-.068.512-.114 1.007-.33 1.484-.547-.522.554-1.058 1.118-1.389 1.803-.026.052-.052.114-.079.173-.321.771-.312 1.725.234 2.35.019.017.033.043.062.062l-.005.003z" fill="#FACDAD"/><path d="M379.219 89.632c-.217 1.006-.582 2.045-1.406 2.652-.746.547-1.727.642-2.656.652v1.43c-.991-.036-1.849-.365-2.19-1.423l-.886-15.571c0-.138.007-.269.007-.407 0-.035.036-.52.079-.882.243-.01.591-.02.591-.02.764-.016 1.527-.035 2.291-.052a.197.197 0 01.105 0v.079c.591.461 1.103 1.042 1.546 1.648 2.473 3.371 3.412 7.82 2.519 11.894zm-4.062-19.02v1.016c-2.397-.043-5.115-.036-6.488 1.74-.312.39-.545.869-.702 1.457-.224.84-.286 1.76-.286 2.678v.069l.062 1.006.764 13.601.034.666.009.036c0 .026 0 .043.007.062.096.685.243 1.353.496 1.986.112.285.252.564.417.833 1.31 2.15 3.438 2.826 5.687 2.861v.79h21.246V70.614c-13.547 5.183-21.246 0-21.246 0v-.002z" fill="#F18D74"/><path d="M367.681 77.57l.062 1.007c-.019.01-.027.01-.043.016-.007-.338-.017-.675-.017-1.023h-.002zm.861 15.276a16.744 16.744 0 01-.085-.711.189.189 0 00.052.043l.033.666v.002z" fill="#F18D74"/><path d="M379.215 89.627c-.216 1.006-.581 2.046-1.405 2.653-.746.547-1.727.642-2.657.651-.062.007-.131.007-.19.007-.67.01-1.33.01-1.997 0a54.481 54.481 0 01-2.153-.062c-.841-.042-1.78-.137-2.361-.744-.026-.017-.043-.043-.062-.062-.546-.623-.555-1.577-.234-2.35.027-.062.053-.121.079-.174.331-.685.867-1.248 1.389-1.803-.479.217-.972.433-1.484.547-.296.06-.591.096-.894.07-.833-.08-1.667-.728-1.632-1.561.017-.347.174-.675.382-.954.469-.668 1.155-1.118 1.891-1.498.358-.183.729-.348 1.094-.512a11.72 11.72 0 01-1.12.007c-.6-.007-1.189-.088-1.737-.302-.893-.364-1.667-1.213-1.615-2.167.026-.616.381-1.17.841-1.577.46-.4 1.024-.659 1.589-.894.253-.105.505-.207.755-.312a25.807 25.807 0 014.386-1.222c0-.138.007-.27.007-.407 0-.036.036-.521.079-.883.243-.01.591-.019.591-.019.765-.016 1.527-.035 2.292-.052a.372.372 0 01.104.078c.591.462 1.103 1.042 1.547 1.649 2.473 3.37 3.411 7.819 2.518 11.893h-.003z" fill="#FACDAD"/><path d="M302.243 43.16c-.729-1.187-1.616-2.297-2.762-3.078-1.155-.797-2.596-1.232-3.976-.996-1.91.32-3.454 1.917-3.976 3.77-.522 1.865-.095 3.9.893 5.556.427.719.946 1.37 1.537 1.951l-.138.138c-4.308 3.38-9.473 5.514-14.823 6.694-.008-.017-.007-.043-.007-.06-.234-7.12-.427-14.246-.591-21.372-.034-1.387-.06-2.79.209-4.153.27-1.361.86-2.705 1.892-3.633 1.346-1.213 3.395-1.577 5.079-.894-.867-1.18-1.746-2.393-2.223-3.79-.486-1.429-.495-3.101.339-4.36 1.077-1.612 3.185-2.13 5.105-2.426a59.92 59.92 0 0119.312.226c-.505-1.96-1.018-3.91-1.527-5.868-.27-1.023-.479-2.279.295-3.009.834-.79 2.232-.373 3.195.262 2.318 1.517 3.933 4.058 4.324 6.796.469-1.856.929-3.711 1.396-5.557.252-1.023.772-2.255 1.822-2.272.877-.01 1.468.885 1.797 1.699a13.016 13.016 0 01.062 9.5c1.405-.442 2.439-1.603 3.657-2.445 1.205-.833 2.968-1.301 4.088-.338.946.823.965 2.288.693 3.518-.712 3.216-2.892 6.078-5.808 7.621-.886.469-1.832.814-2.797 1.085-1.406.407-2.873.65-4.315.911-2.439.442-4.931.937-7.032 2.246-2.102 1.3-3.769 3.589-3.648 6.05.67 3 2.84 13.7 3.595 17.315 6.954.364 12.451 2.41 13.885 2.99 0 .02-.007.036-.007.053a53.065 53.065 0 00-.565 4.724c-.164 2.271-.129 4.55-.453 6.805-.321 2.246-1.041 4.51-2.518 6.242-2.968 3.51-8.569 3.989-12.643 1.846a12.238 12.238 0 01-1.675-1.066c-3.133-2.305-5.217-5.947-6.285-9.726-1.198-4.249-1.277-8.723-1.293-13.135 1.555-3.476 3.611-6.78 5.887-9.822v.002z" fill="#2C2A2A"/><path d="M323.952 43.258l2.508 14.312s-1.772.53-4.298-.183c0 0-.121-.05-.366-.155.695-4.308 1.729-8.592 2.084-12.945.026-.337.053-.685.069-1.03h.003z" fill="#FACDAD"/><path d="M319.317 27.723c3.838 4.006 4.932 9.943 4.639 15.535a41.98 41.98 0 01-.07 1.03c-.354 4.354-1.388 8.638-2.084 12.945-1.432-.58-6.928-2.626-13.885-2.99-.755-3.615-2.925-14.312-3.595-17.314-.121-2.462 1.547-4.75 3.648-6.052 2.101-1.308 4.593-1.802 7.033-2.245 1.441-.262 2.909-.502 4.314-.911v.002zm-15.379 48.113V89.05c-7.64-7.605-23.548-15.25-29.192-17.833l.062-.138a7891.64 7891.64 0 014.177-13.89h.016c5.349-1.18 10.516-3.313 14.824-6.693l.138-.138a9.636 9.636 0 01-1.537-1.95c-.989-1.656-1.415-3.695-.893-5.557.521-1.855 2.065-3.45 3.976-3.77 1.382-.233 2.823.2 3.979.996 1.145.78 2.032 1.889 2.761 3.078-2.275 3.043-4.331 6.344-5.887 9.822.019 4.412.095 8.887 1.293 13.135 1.068 3.78 3.152 7.422 6.285 9.726l-.002-.002z" fill="#FACDAD"/><path d="M322.917 154.035c-5.877-3.349-11.752-6.708-17.491-10.287-5.713-3.561-11.302-7.343-16.567-11.544-5.218-4.165-10.156-8.742-14.456-13.854-4.379-5.209-8.098-11.474-7.96-18.491.064-3.219.991-6.432 2.98-8.999 1.771-2.281 4.286-4.039 7.131-4.657a10.41 10.41 0 012.156-.231c.56-.002.56-.868 0-.866-6.18.033-11.219 5.038-12.634 10.809-1.694 6.915 1.015 13.939 4.991 19.545 4.005 5.645 9.106 10.583 14.371 15.045 5.284 4.477 10.944 8.49 16.769 12.232 5.878 3.775 11.927 7.278 17.992 10.744.76.435 1.52.868 2.28 1.301.486.276.924-.473.438-.749v.002zm26.717-26.23l-23.819.154a394.81 394.81 0 00-11.69-15.823 43.14 43.14 0 00-2.437-7.961c-.212-.507-1.051-.285-.836.231a42.816 42.816 0 012.022 6.149 388.531 388.531 0 00-9.553-11.73 403.76 403.76 0 00-6.88-7.876c-.374-.416-.987.198-.615.614a389.916 389.916 0 0123.252 28.504 390.888 390.888 0 016.104 8.489.416.416 0 00.369.186.387.387 0 00.248.083l23.835-.154c.558-.003.56-.871 0-.869v.003z" fill="#2C2A2A"/><path d="M368.555 92.944h-.007v-.063c0 .027 0 .043.007.063z" fill="#F18D74"/><path d="M396.404 70.612c-13.546 5.183-21.246 0-21.246 0h21.246zm-21.665 21.292a13.47 13.47 0 01-2.814.285c-.855-.004-1.768-.045-2.594-.29-.732-.219-1.113-.79-.982-1.553.136-.806.77-1.43 1.318-1.989a.397.397 0 00.119-.335 14.438 14.438 0 003.347-1.063c.508-.233.067-.98-.438-.747a13.35 13.35 0 01-3.729 1.082c-.643.088-1.37.188-2.013.053-.486-.105-1.074-.452-1.01-1.03.067-.612.7-1.007 1.163-1.328a21.647 21.647 0 015.127-2.619c.524-.183.297-1.023-.232-.835-1.145.405-2.26.892-3.328 1.473-.062.035-.124.071-.186.102-.895-.164-2.008.014-2.758-.564-.87-.668-.086-1.731.567-2.202 1.701-1.223 3.783-2.005 5.817-2.448.546-.119.315-.956-.231-.835a17.968 17.968 0 00-5.334 2.093c-.488.29-.993.605-1.379 1.028-.724.794-.996 2.06-.162 2.885.622.614 1.427.69 2.239.757-.541.338-1.062.706-1.496 1.134-.805.795-.934 2.015 0 2.764.791.638 1.882.605 2.868.486-.526.578-.998 1.225-1.122 2.01-.143.91.181 1.831 1.022 2.285.884.476 2.042.519 3.024.55a14.44 14.44 0 003.428-.31c.548-.113.317-.948-.231-.834v-.005zm20.033-6.147l-1.965 11.32c-.095.545.743.78.838.231.656-3.773 1.311-7.548 1.964-11.32.095-.545-.741-.78-.837-.23zm-1.881 5.953c-.205-.054-.498.072-.533.303a5571.95 5571.95 0 00-.722 4.7c-.036.233.057.466.302.535.205.055.498-.071.534-.304l.722-4.7c.035-.234-.057-.467-.303-.536v.003zM320.41 39.097c-1.537-.055-3.1.157-4.563.62-.65.205-1.131.916-.91 1.601.21.65.908 1.128 1.604.909a12.908 12.908 0 011.92-.442 12.59 12.59 0 011.951-.086c.681.024 1.334-.616 1.301-1.301-.031-.726-.572-1.275-1.301-1.299l-.002-.002zm.323 6.845a2.434 2.434 0 01-2.435 2.43 2.433 2.433 0 01-2.435-2.43 2.434 2.434 0 012.435-2.431 2.433 2.433 0 012.435 2.43z" fill="#2C2A2A"/><path d="M316.655 62.04c-2.256-.649-3.69-2.813-3.468-5.137.021-.233-.217-.433-.434-.433-.255 0-.412.2-.434.433-.259 2.704 1.504 5.226 4.105 5.973.536.154.767-.683.231-.835z" fill="#DCDDDC"/><path d="M420.076 169.584h-58.49v-3.006h63.152a83.498 83.498 0 01-4.662 3.006z" fill="#4D3938"/><path d="M424.74 166.571h-64.748v-8.318h74.902a80.578 80.578 0 01-10.154 8.318z" fill="#684949"/><path d="M441.627 94.473l-14.466 55.918h-65.575l1.518-3.478 61.341-1.405 15.007-51.035h2.175z" fill="#9D9E9E"/><path d="M435.75 156.366v1.042c-.284.283-.57.563-.858.842h-73.306v-1.884h74.164zm0-5.973v1.882h-74.164v-1.882h74.164z" fill="#F18D74"/><path d="M362.165 156.615h72.412v-4.348h-72.412v4.348z" fill="#DCDDDC"/><path d="M390.71 49.931c-.46-3.213-3.686-5.133-6.766-4.876-1.527.126-3.116.704-4.141 1.886-.919 1.059-1.377 2.598-.86 3.942.544 1.413 2.075 2.405 3.591 1.967 1.636-.47 2.394-2.243 1.682-3.76-.236-.505-.984-.065-.751.437.658 1.404-.7 2.88-2.156 2.502-1.253-.323-1.891-1.686-1.663-2.894.565-2.964 4.424-3.747 6.878-2.912 1.258.428 2.342 1.342 2.93 2.536.603 1.22.544 2.61.117 3.875-.931 2.761-3.345 4.583-5.267 6.636-1.963 2.096-3.686 4.934-2.835 7.902.155.535.991.31.838-.23-1.01-3.521 1.952-6.44 4.217-8.676 2.223-2.193 4.672-4.957 4.188-8.332l-.002-.002zm6.08 6.86c-2.42-.915-5.325.37-7.269 1.806-2.246 1.663-3.904 4.036-4.626 6.739-.146.54.691.77.836.23.982-3.682 3.929-6.895 7.643-7.937 1.92-.538 4.274-.238 4.9 1.957.553 1.932-.683 3.768-2.513 4.403-1.048.364-2.537.462-3.395-.378-.365-.357-.6-.96-.379-1.453.217-.483.822-.683 1.263-.38.462.316.898-.436.438-.748-.877-.6-2.142-.126-2.52.838-.458 1.163.316 2.402 1.372 2.897 2.223 1.04 5.27-.195 6.316-2.358 1-2.071.147-4.773-2.068-5.613l.002-.002z" fill="#2C2A2A"/></svg>