<svg width="405" height="261" fill="none" xmlns="http://www.w3.org/2000/svg"><path d="M260.396 247.455l-.113.177H57.241V228.42l168.086-19.275c9.266 14.232 21.76 30.282 35.074 38.314l-.005-.004z" fill="#FBC358"/><path d="M259.215 242.907c-26.275-.077-52.55-.154-78.829-.236l-78.83-.231c-14.792-.045-29.584-.086-44.376-.131-2.262-.005-2.262 3.446 0 3.451l78.829.231c26.275.077 52.55.154 78.825.236 14.793.041 29.585.086 44.377.132 2.257.004 2.262-3.447 0-3.452h.004zm-9.517-9.767a1600.991 1600.991 0 00-75.371-1.32c-24.924.155-49.848.889-74.736 2.209a1602.11 1602.11 0 00-42.454 2.821c-2.335.186-2.358 3.642 0 3.451a1598.601 1598.601 0 01150.02-4.889c14.185.204 28.365.604 42.536 1.184 2.362.095 2.357-3.356 0-3.451l.005-.005zm-17.743-14.268a5162.43 5162.43 0 00-174.446 12.907c-2.23.204-2.253 3.656 0 3.451a5173.509 5173.509 0 01136.03-10.576 5190.004 5190.004 0 0138.416-2.331c2.248-.127 2.262-3.583 0-3.451z" fill="#EAA22D"/><path d="M241.873 118.22l-12.843 13.433-8.359 8.726c-11.125-10.435-37.726-24.109-37.726-24.109 5.739-10.4 26.828-29.348 26.828-29.348l27.979 26.676 4.121 4.617v.005z" fill="#fff"/><path d="M381.361 71.626c10.304.227 8.572 15.973 3.754 21.552-4.819 5.578-9.321 14.522-9.321 14.522-6.51-2.291-14.982-13.307-14.982-13.307 6.346-.53 11.464-9.928 4.891-13.9-6.573-3.983-11.229 7.338-11.229 7.338-2.502-4.137-1.908-8.11-1.908-8.11-18.12 2.758-17.893-8.866-17.893-8.866s-.848.036-2.136-.027c-4.488-.254-14.298-1.896-12.226-11.525 2.679-12.395 20.939-2.666 20.939-2.666s-2.212-3.062 5.046-6.88c7.258-3.82 13.604 8.109 13.604 8.109s2.743-.848 13.442-.925c10.698-.078 8.014 14.685 8.014 14.685h.005z" fill="#2C2A2A"/><path d="M365.127 184.101c-21.632 27.856-42.699 53.104-65.252 63.526l-22.44-63.295 2.176-.784c-1.201-2.848-2.021-5.515-2.389-7.842-3.109-2.744-39.612-35.09-40.736-37.67-.331-.744-.104-2.114.517-3.783 1.541-4.186 5.562-10.245 9.57-13.08.154-.099.304-.199.458-.303 4.148-2.672 33.582 18.213 48.615 29.334l.163-.086 6.46 5.048c.671.521 1.201.925 1.568 1.215.191.141.331.254.431.345.077.05.127.086.154.113l.027.027c8.446-11.977 35.591-30.636 37.26-31.683.027 0 .036-.027.063-.037.014-.013.027-.013.027-.013.431-.327.871-.658 1.315-.975 1.858-1.329 3.704-2.354 5.526-3.111 13.314-5.62 25.16 2.68 29.385 6.249a25.921 25.921 0 011.641 1.492s14.869 17.47-14.525 55.327l-.014-.014z" fill="#9D35C6"/><path d="M349.361 115.785c-5.122 2.05-13.831 3.315-15.893-10.386-.15-1.039-.304-2.05-.431-3.048a146.175 146.175 0 01-1.188-18.1c-.027-8.273.694-13.434.694-13.434 1.287.064 2.135.027 2.135.027s-.227 11.624 17.893 8.867c0 0-.594 3.973 1.909 8.109 0 0 4.651-11.32 11.229-7.338 6.573 3.973 1.455 13.37-4.892 13.9 0 0 8.468 11.017 14.983 13.307l2.212 19.593c-4.225-3.57-16.071-11.865-29.385-6.25l.734-5.252v.005z" fill="#FACDAD"/><path d="M333.039 102.353h-6.827c.104-7.87 5.639-18.1 5.639-18.1.014 5.02.304 11.22 1.188 18.1z" fill="#FACDAD"/><path d="M141.129 223.519l-3.993-2.313s.988-1.506 2.72-4.114c10.707-15.987 50.133-73.413 67.047-77.123 2.87-.63 6.319-.09 10.1 1.266 22.177 8.018 56.15 44.627 56.15 44.627l4.288-1.528 22.44 63.295c-8.106 3.759-16.397 5.578-24.97 4.934-4.868-.367-9.737-2.227-14.515-5.111-13.314-8.032-25.808-24.083-35.074-38.315-9.52-14.635-15.604-27.325-15.604-27.325l-27.599 32.65-18.622 22.037-7.027-4.073-15.336-8.907h-.005z" fill="#FBC358"/><path d="M295.803 150.122l-16.057 7.434-18.26-30.355-.009-.028-12.226-19.787 19.684-9.787 26.868 52.523z" fill="#fff"/><path d="M290.267 153.108l5.54 6.236-16.325 8.232-2.226-9.601s-3.54-.622-10.191-8.676c-6.65-8.06-5.576-22.097-5.576-22.097l10.318 9.552-6.319-15.874c.149 0 3.971.086 10.708 8.79 6.89 8.88 10.317 19.216 10.317 19.216l3.754 4.227v-.005zm-45.381-36.17a140.128 140.128 0 011.681 4.236c-4.007 2.835-8.028 8.894-9.569 13.08 0 0-3.845.544-7.979-2.594l12.843-13.434 3.024-1.288zm-11.762-9.897c1.478-1.252 3.096-2.1 4.452-1.796 2.248.494 5.322 6.93 7.321 11.687l-3.024 1.288-4.121-4.617s-9.053 1.139-9.139-.367c-.05-.934 2.049-4.123 4.515-6.2l-.004.005z" fill="#FACDAD"/><path d="M156.466 232.42l1.755 15.203H96.128c-.467-7.615 39.598-16.631 39.598-16.631l5.399-7.475 15.337 8.908.004-.005z" fill="#fff"/><path d="M57.231 230.974v16.663H28.984l-7.144-48.142s11.47-5.769 20.912 31.675l14.475-.196h.004z" fill="#F18D74"/><path d="M368.873 163.536c-1.682 2.554-3.627 4.962-5.526 7.307a219.99 219.99 0 01-22.653 24.028c-8.183 7.461-16.928 14.454-26.221 20.486-2.362 1.533-4.968 3.034-7.815 3.356-2.562.29-4.955-.589-6.859-2.295-1.741-1.555-3.033-3.537-4.207-5.537-1.496-2.554-2.906-5.157-4.356-7.738-3.033-5.401-6.102-10.785-9.094-16.209-2.611-4.735-5.114-10.182-3.654-15.701.322-1.22.852-2.349 1.568-3.388.422-.608-.571-1.188-.992-.58-3.187 4.58-2.38 10.526-.331 15.388 1.178 2.794 2.72 5.415 4.202 8.055 1.6 2.852 3.201 5.7 4.801 8.553 1.6 2.853 3.2 5.706 4.801 8.554 1.314 2.335 2.561 4.739 4.175 6.884 1.382 1.837 3.051 3.52 5.186 4.45 2.561 1.115 5.381.902 7.956-.059 2.72-1.016 5.131-2.667 7.516-4.295a221.636 221.636 0 0020.481-15.847 219.627 219.627 0 0024.154-24.667c2.611-3.125 5.322-6.309 7.598-9.747-.245-.331-.495-.657-.73-.998z" fill="#2C2A2A"/><path d="M346.893 124.723c.531-.517-.285-1.333-.811-.811-10.395 10.172-20.795 20.341-31.189 30.513-2.852 2.789-5.703 5.583-8.555 8.372l-.19-.19c-2.629-2.603-6.229-5.17-10.055-3.474-.675.299-.091 1.292.58.993 3.736-1.66 7.163 1.778 9.547 4.186l9.099 9.198c.494.499 1.233-.2.87-.726a310.797 310.797 0 0020.609-28.336 326.488 326.488 0 005.24-8.436c.381-.635-.612-1.216-.993-.581a309.535 309.535 0 01-19.588 28.859 300.62 300.62 0 01-6.061 7.655c-2.747-2.785-5.481-5.574-8.246-8.336 10.308-10.086 20.617-20.168 30.921-30.255 2.942-2.875 5.88-5.755 8.822-8.631zM209.109 95.216a115.071 115.071 0 00-17.916 18.975c-.444.59.553 1.166.993.581a114.198 114.198 0 0117.734-18.745c.567-.476-.249-1.287-.811-.811zm3.405 1.71a142.453 142.453 0 00-17.204 19.035c-.444.59.553 1.166.993.581a140.57 140.57 0 0117.023-18.804c.548-.503-.268-1.315-.812-.812zm2.696 3.476l-15.25 17.47c-.485.558.326 1.374.811.812l15.25-17.47c.485-.554-.326-1.37-.816-.812h.005zm-4.072 10.824a9359.66 9359.66 0 01-8.223 9.692c-.476.562.335 1.378.811.811 2.743-3.229 5.481-6.462 8.224-9.692.476-.562-.336-1.378-.812-.811zm1.117 4.995c-.204-.204-.612-.24-.816 0a8183.225 8183.225 0 01-5.662 6.812c-.2.241-.231.581 0 .817.204.204.612.24.811 0 1.891-2.273 3.777-4.545 5.663-6.817.199-.24.231-.58 0-.812h.004zm56.422-11.653l-14.316 7.723c-.653.354-.073 1.347.58.994l14.316-7.724c.653-.349.073-1.347-.58-.993zm-.088 3.452c-3.64 2.096-7.28 4.187-10.921 6.282-.643.367-.063 1.361.581.993 3.64-2.095 7.28-4.186 10.92-6.281.644-.368.064-1.361-.58-.994zm-.265 3.186l-7.584 4.454c-.639.376-.059 1.369.58.993 2.53-1.483 5.055-2.966 7.584-4.454.64-.376.059-1.369-.58-.993zm-1.257 4.125c-.172-.267-.508-.367-.784-.208-.816.462-1.632.925-2.453 1.387-.263.15-.372.527-.204.785.172.263.508.367.784.204l2.448-1.388c.263-.149.377-.53.209-.784v.004zM37.803 246.015c-2.076-3.842-5.426-6.948-9.42-8.708-.67-.295-1.255.694-.58.993a18.899 18.899 0 019.008 8.295c.353.653 1.346.073.992-.58zm-5.336-40.021a13.05 13.05 0 01-3.464 3.502c-1.228.834-3.105 1.995-4.62 1.247-.66-.327-1.246.662-.58.993 1.868.925 3.94-.045 5.54-1.088a14.496 14.496 0 004.117-4.073c.412-.617-.58-1.193-.993-.581zm24.409 27.127l-4.157-.022a.585.585 0 00-.575.576c0 .313.263.571.575.576l4.157.022a.582.582 0 00.576-.576.586.586 0 00-.576-.576zm.214 3.588l-3.53-.408c-.3-.036-.59.29-.577.576.014.34.254.54.576.576l3.532.408c.299.036.589-.29.575-.576-.013-.34-.253-.54-.575-.576zm0 4.027c-1.283-.145-2.566-.29-3.849-.44-.299-.036-.59.29-.575.576.013.34.253.54.575.576 1.283.145 2.566.29 3.849.44.3.036.59-.29.576-.576-.014-.34-.254-.54-.576-.576zm50.124-1.586c-.557-.48-1.373.327-.811.812 2.099 1.819 3.481 4.404 3.753 7.175.032.308.241.576.576.576.286 0 .603-.263.576-.576-.299-3.07-1.75-5.964-4.089-7.987h-.005zm49.912 1.808c-4.71-.63-9.579 1.796-11.982 5.887-.376.639.617 1.22.993.58 2.217-3.773 6.664-5.896 10.989-5.315.73.1.725-1.052 0-1.152zm-12.819-15.598a.583.583 0 00-.784.204c-.748 1.306-1.496 2.612-2.239 3.918a.59.59 0 00.204.79.585.585 0 00.788-.209c.748-1.306 1.492-2.612 2.24-3.919a.586.586 0 00-.209-.789v.005zm3.58 1.748c-.254-.145-.649-.073-.789.208-.766 1.579-1.532 3.152-2.303 4.731-.136.281-.077.621.204.784.254.15.653.073.789-.208l2.303-4.726c.136-.281.077-.621-.209-.789h.005zm4.713 3.007c-.331-.091-.59.113-.707.404l-1.632 3.904c-.123.286.131.635.403.708.331.091.589-.113.707-.399l1.632-3.905c.118-.286-.127-.635-.399-.708l-.004-.004zm3.048 1.427c-.326-.073-.594.1-.707.403l-1.265 3.334c-.109.281.118.644.403.707.327.078.594-.099.708-.403l1.264-3.334c.109-.281-.117-.644-.398-.707h-.005zM342.664 82.3c-1.699-1.892-4.098-2.976-6.605-3.189-.417-.036-.933.218-1.219.504-.299.299-.526.789-.508 1.22.023.444.168.911.508 1.22.354.326.744.462 1.219.508a.57.57 0 01.087.009 8.71 8.71 0 011.722.467c.503.231.979.508 1.428.834.331.268.644.55.93.867.603.67 1.831.662 2.438 0 .662-.721.644-1.724 0-2.44zm-1.653 5.519a2.77 2.77 0 11-2.77-2.772 2.77 2.77 0 012.77 2.772zm.951 14.999c-.213 2.708-1.885 5.189-4.27 6.459-.653.349-.072 1.342.58.993 2.761-1.47 4.597-4.35 4.842-7.452.059-.739-1.093-.734-1.152 0z" fill="#2C2A2A"/><path d="M353.476 98.394a3.956 3.956 0 01-3.958 3.955 3.96 3.96 0 01-3.958-3.955 3.96 3.96 0 013.958-3.96 3.96 3.96 0 013.958 3.96z" fill="#F18D74"/><path d="M295.234 240.58c-14.869 3.156-29.453-3.937-40.464-13.47-11.302-9.783-20.423-21.951-28.637-34.355-4.724-7.125-9.166-14.432-13.609-21.734-.598-.984-1.881-1.102-2.711-.349a464.81 464.81 0 00-42.885 44.542 468.38 468.38 0 00-10.984 13.56c-1.351 1.733 1.075 4.195 2.439 2.445a463.453 463.453 0 0141.176-46.129 465.82 465.82 0 0111.097-10.499c7.87 12.921 15.849 25.815 25.333 37.629 9.393 11.697 20.49 23.126 34.589 28.954 8.064 3.338 16.99 4.558 25.576 2.734 2.172-.462 1.252-3.791-.915-3.328h-.005z" fill="#EAA22D"/><path d="M292.329 228.482c-24.457-6.332-41.135-26.872-56.444-45.548-4.248-5.18-8.509-10.355-13.029-15.298-3.749-4.105-8.545-8.173-14.483-6.204-2.725.902-5.028 2.716-7.095 4.653-2.439 2.286-4.737 4.735-7.086 7.111a21924.256 21924.256 0 01-15.168 15.33l-33.972 34.341c-1.564 1.583.874 4.023 2.438 2.44l29.526-29.842 14.964-15.126 7.281-7.36c2.162-2.186 4.261-4.577 6.75-6.404 2.198-1.619 4.814-2.771 7.552-1.901 2.639.835 4.67 3.03 6.496 5.007 4.42 4.794 8.577 9.824 12.712 14.863 7.992 9.741 15.921 19.633 25.3 28.096 9.602 8.662 20.722 15.901 33.347 19.166 2.149.558 3.069-2.771.916-3.329l-.005.005z" fill="#EAA22D"/><path d="M283.937 204.571c-22.907-10.045-42.808-25.924-57.863-45.883-3.241-4.3-6.75-8.917-11.913-10.971-5.844-2.327-11.533.358-16.048 4.109-5.168 4.29-9.806 9.37-14.453 14.213a444.418 444.418 0 00-13.885 15.166 447.05 447.05 0 00-28.9 36.854c-1.278 1.824 1.709 3.552 2.979 1.742a438.122 438.122 0 0152.269-61.435c3.885-3.797 8.821-8.98 14.828-7.987 5.286.871 8.994 5.896 12.009 9.887 7.257 9.61 15.422 18.395 24.733 26.055 10.477 8.613 22.073 15.792 34.494 21.235 2.013.884 3.772-2.091 1.741-2.985h.009z" fill="#EAA22D"/><path d="M181.863 214.081a37962.45 37962.45 0 01-20.54 19.575 72.096 72.096 0 01-22.798-13.466c-.557-.485-1.373.327-.811.817a73.531 73.531 0 0023.192 13.715c.19.254.567.381.861.099 6.968-6.644 13.936-13.284 20.908-19.928.535-.512-.277-1.324-.812-.812zm78.802 32.943a160.1 160.1 0 01-29.004-28.821 159.828 159.828 0 01-6.755-9.398c-.408-.612-1.405-.036-.993.581a161.074 161.074 0 0027.205 31.248 164.32 164.32 0 008.966 7.384c.59.449 1.161-.549.581-.994zm-47.061-80.371c-1.369 4.004-2.738 8.009-4.112 12.014-.24.703.87 1.002 1.111.308 1.369-4.005 2.738-8.009 4.111-12.014.241-.703-.87-1.002-1.11-.308zm-7.089 2.569c-.131-.73-1.237-.422-1.11.304.512 2.893 1.029 5.782 1.545 8.676.127.73 1.238.422 1.111-.304-.517-2.893-1.029-5.782-1.546-8.676z" fill="#2C2A2A"/><path d="M404.994 156.204c.087 9.851-3.513 75.173-22.14 92.312 0 0 6.677 3.011 1.759 8.272-4.919 5.266-8.609-.884-8.609-.884h-59.223s-11.519-43.262 36.375-58.909c0 0 7.208-53.531 34.263-54.682 0 0-2.022-9.665 5.449-8.79 7.471.884 1.754 9.497 1.754 9.497s10.282 3.338 10.368 13.18l.004.004z" fill="#fff"/><path d="M385.342 190.571c-9.397-.966-19.022 1.319-26.996 6.39-.621.394-.045 1.392.581.993a41.514 41.514 0 0126.415-6.231c.739.077.73-1.075 0-1.152zm-1.745 13.544a52.736 52.736 0 00-22.802-2.82c-.73.072-.739 1.224 0 1.151a51.907 51.907 0 0122.494 2.776c.698.25.997-.862.308-1.107z" fill="#2C2A2A"/><path d="M119.869 239.887v3.546H.168v-3.546h119.701zm-.167 17.554v3.555H0v-3.555h119.702z" fill="#DFDD6D"/><path d="M2.562 257.445h113.863V243.44H2.562v14.005z" fill="#fff"/><path d="M98.9 225.709v2.386H2.561v-2.386H98.9zm-.125 11.791v2.386H2.438V237.5h96.337z" fill="#F18D74"/><path d="M4.948 237.507h91.79v-9.411H4.948v9.411z" fill="#fff"/><path d="M92.023 230.164H8.26c-.634 0-.639.989 0 .989h83.762c.64 0 .64-.989 0-.989zm.367 3.217H40.093c-.634 0-.639.994 0 .994H92.39c.639 0 .639-.994 0-.994zm14.216 12.569H5.505c-.635 0-.64.989 0 .989h101.101c.64 0 .64-.989 0-.989zm4.042 4.314H8.078c-.64 0-.64.993 0 .993h102.57c.634 0 .634-.993 0-.993zm-2.487 4.136H5.681c-.634 0-.639.989 0 .989h102.48c.635 0 .639-.989 0-.989z" fill="#2C2A2A"/><path d="M255.238 253.7v5.415H129.43l-16.696-64.13h85.28l15.295 58.715h41.929z" fill="#C4D3EA"/><path d="M210.033 254.506h-78.608c-.702 0-.702 1.402 0 1.402h78.608c.702 0 .702-1.402 0-1.402zm-80.884-8.914c-1.632-5.629-3.269-11.253-4.905-16.881-.24-.834-1.297-.476-1.047.372 1.632 5.628 3.268 11.252 4.905 16.876.244.834 1.296.476 1.047-.372v.005zm1.255-2.477c-.762-2.771-1.528-5.542-2.29-8.318-.231-.843-1.287-.48-1.051.372.761 2.771 1.527 5.542 2.289 8.313.231.844 1.283.481 1.052-.371v.004z" fill="#2C2A2A"/><path d="M69.889 160.103c0 15.965 12.929 28.899 28.886 28.899a28.736 28.736 0 0015.264-4.363l12.525 8.803-5.97-14.408a28.751 28.751 0 007.063-18.931c0-15.964-12.929-28.899-28.887-28.899-15.957 0-28.886 12.935-28.886 28.899h.005z" fill="#3935D8"/><path d="M103.207 143.038a3.753 3.753 0 11-7.507 0 3.756 3.756 0 013.754-3.755 3.756 3.756 0 013.753 3.755zm1.778 29.161a6.16 6.16 0 01-1.269 1.864 6.017 6.017 0 01-4.261 1.764c-2.466 0-4.602-1.501-5.531-3.628h11.061zm10.99-2.925a1.75 1.75 0 01-1.755 1.755H85.135c-.975 0-1.778-.784-1.778-1.755 0-.975.803-1.755 1.778-1.755h2.325c-.04-.422-.063-.848-.063-1.293v-6.199c0-6.645 5.435-12.064 12.058-12.064 6.641 0 12.059 5.419 12.059 12.064v6.199c0 .445-.023.871-.064 1.293h2.77a1.75 1.75 0 011.755 1.755z" fill="#fff"/></svg>