<svg width="260" height="181" fill="none" xmlns="http://www.w3.org/2000/svg"><path d="M246.481 153.035c-.117.16-.232.32-.35.479l-.355.477-.36.472c-.12.158-.243.315-.365.47l-.368.467a69.5 69.5 0 01-20.945 17.606 64.645 64.645 0 01-8.874 4.02c-.19.07-.38.137-.57.205-.38.135-.763.265-1.148.395-.193.062-.383.127-.575.187-.193.062-.386.122-.578.182-.193.06-.385.12-.58.177l-.581.173a64.642 64.642 0 01-2.336.632c-.588.147-1.175.284-1.768.414h-.003a62.568 62.568 0 01-20.597 1.054c-1.743-.2-3.471-.46-5.187-.774h-.002l-.641-.12h-.002l-.641-.125h-.002a48.073 48.073 0 01-.638-.13h-.002l-.638-.135h-.003c-11.072-2.377-21.627-6.82-32.094-10.998-6.651-2.639-13.329-5.239-20.215-7.234a96.61 96.61 0 00-8.176-2.001h-.002l-.343-.067h-.003l-.342-.065h-.003l-.342-.065h-.003l-.343-.062h-.002l-.343-.063h-.002l-.343-.06h-.002a86.837 86.837 0 00-11.856-1.248c-16.105-.58-32.377 2.417-48.36-.587a56.423 56.423 0 01-11.182-3.336h-.003c-.177-.075-.355-.148-.533-.225h-.002a39.907 39.907 0 01-.53-.23h-.003a29.285 29.285 0 01-.527-.235h-.003l-.123-.057c-7.183-3.259-13.656-7.956-19.068-13.688a66.945 66.945 0 01-4.085-4.744l-.347-.45-.346-.452a67.726 67.726 0 01-7.538-12.641l-.233-.514-.227-.517-.225-.52a65.748 65.748 0 01-3.78-11.807 60.152 60.152 0 01-.655-3.446v-.008l-.005-.007c-1.326-8.244-1.005-16.697.658-24.888l.002.003c.183-.902.38-1.8.596-2.695l.002-.012.038-.158.077-.317.04-.157.065-.265.008-.032.005-.02v-.003l.12-.472.025-.095.017-.062.125-.472.015-.055a80.866 80.866 0 011.611-5.244 85.905 85.905 0 013.577-8.748l.272-.57.276-.567.28-.564.285-.562.287-.56.293-.559v-.002l.295-.557V56.2a93.488 93.488 0 0110.25-15.221l.405-.487.408-.487.413-.482a97.584 97.584 0 014.296-4.682c7.824-7.977 17.053-14.58 26.988-19.874l.15-.08.588-.31.59-.306.59-.305.593-.302a137.035 137.035 0 015.405-2.577c7.238-3.244 14.764-5.41 22.44-7.043 1.396-.37 4.215-.856 4.225-.856 4.887-.947 40.268-4.318 52.742-2.8 4.049.49 8.071 1.152 12.058 1.976l.662.14.663.142.663.145.663.147.66.152.66.155.661.157a146.848 146.848 0 0114.929 4.45l.635.23.636.233h.002l.633.234.633.238c2.533.956 5.04 1.985 7.516 3.079h.005c13.166 5.81 25.454 13.565 36.179 23.002a127.78 127.78 0 018.301 7.994v.005c5.66 5.963 10.705 12.469 14.94 19.448l.237.395.003.005.172.29.063.102.16.272.03.053.278.474.015.028c.537.924 1.06 1.855 1.568 2.794a99.004 99.004 0 012.353 4.635l.276.587.272.59.268.588c3.016 6.708 5.245 13.726 6.568 20.918l.115.634c.037.212.072.424.11.634l.105.637c.035.212.067.425.1.637l.095.637c.433 2.981.71 5.986.82 9.01.251 6.742-.315 13.532-1.745 20.138v.002c-.093.425-.188.852-.288 1.274v.002c-.05.213-.1.425-.153.635v.002c-.052.212-.102.422-.157.634v.003c-.053.21-.108.422-.163.632v.002c-.055.21-.11.42-.167.629v.003l-.173.629v.003c-.06.21-.117.419-.18.627v.002c-.06.21-.123.417-.185.627v.002a71.386 71.386 0 01-6.113 14.475 66.382 66.382 0 01-4.164 6.5l.027-.02z" fill="#7A18A0"/><path d="M35.11 50.748h37.264V8.444a90.332 90.332 0 00-6.52 2.62c-11.173 5.024-21.72 11.58-30.745 19.75v19.934zm43.247.008h37.265V8.37H78.357v42.386zM35.39 98.255h37.266V55.869H35.39v42.386zm43.256 0h37.265V55.869H78.646v42.386z" fill="#9D35C6"/><path d="M30.866 34.897v69.906m0 0h93.408V.34L30.866 104.803z" stroke="#FEFEFE" stroke-width=".106" stroke-miterlimit="10"/><path d="M72.729 144.331h2.459V82.325h-2.459v62.006zm12.175.001h2.47V82.428h-2.47v61.904z" fill="#F18D74"/><path d="M75.188 144.323h9.722V84.306h-9.722v60.017z" fill="#DCDDDC"/><path d="M62.888 144.325h1.655V94.377h-1.656v49.948zm8.182.006h1.656V94.465h-1.655v49.866z" fill="#377BFF"/><path d="M64.539 144.33h6.53V95.634h-6.53v48.696z" fill="#DCDDDC"/><path d="M87.377 144.325h.773V94.377h-.773v49.948zm3.814.006h.77V94.465h-.77v49.866z" fill="#DFDD6D"/><path d="M88.147 144.33h3.04V95.634h-3.04v48.696z" fill="#DCDDDC"/><path d="M65.546 96.156v44.679c0 .539.84.539.84 0V96.156c0-.539-.84-.539-.84 0zm3.503.533v24.243c0 .54.84.54.84 0V96.689c0-.54-.84-.54-.84 0zm-.074 26.662v17.329c0 .539.84.542.84 0v-17.329c0-.539-.84-.539-.84 0zm7.783-37.842v57.03c0 .539.84.539.84 0v-57.03c0-.54-.84-.54-.84 0zm2.022 1.553v41.492c0 .539.84.542.84 0V87.062c0-.54-.84-.54-.84 0z" fill="#2C2A2A"/><path d="M28.16 112.605c1.521 4.485 3.04 8.98 4.56 13.466h-3.67c-1.485-4.318-4.526-7.984-7.843-11.161-3.611-3.456-7.633-6.49-11.002-10.189C4.452 98.383.808 90.147 0 81.629c4.887 3.087 9.767 6.174 14.654 9.265 2.519 1.593 5.055 3.197 7.221 5.242.755.72 1.478 1.49 2.101 2.322 1.026 4.798 2.604 9.492 4.182 14.147h.002zm32.034-31.36c-4.837 3.816-7.206 9.944-8.684 15.93-1.486 5.979-2.351 12.202-5.107 17.711a28.244 28.244 0 01-10.188 11.177h-1.143c5.703-9.322 7.97-20.712 6.216-31.502a8.514 8.514 0 00-.085-.495c4.577-6.298 11.395-11 18.989-12.82h.002z" fill="#0C802C"/><path d="M41.203 94.07c.035.168.06.328.085.495 1.756 10.791-.512 22.178-6.215 31.503h-2.351c-1.52-4.485-3.042-8.98-4.56-13.465-1.578-4.655-3.156-9.35-4.182-14.147a53.06 53.06 0 01-.922-5.894c-1.034-10.825 2.04-21.986 8.473-30.748 1.956 11.067 7.751 21.189 9.675 32.257h-.003z" fill="#0C802C"/><path d="M43.593 126.067l-2.519 20.485h-8.789a62.484 62.484 0 01-8.654-7.614 74.064 74.064 0 01-1.276-1.386l-1.413-11.485h22.65z" fill="#FBC358"/><path d="M39.878 105.037c-1.603 3.206-3.206 6.418-4.807 9.624.025-3.126-.195-6.263-.558-9.367a132.28 132.28 0 00-.503-3.733l4.698-9.328c.242-.479-.483-.906-.726-.422-1.395 2.767-2.789 5.537-4.184 8.306-.7-4.54-1.523-9.062-2.111-13.62 0 0 .002 0 .002-.002 1.078-2.11 2.159-4.218 3.237-6.328.245-.48-.48-.904-.726-.422l-2.7 5.281c-.026-.222-.06-.444-.086-.666-.438-3.993-.623-8.02-.315-12.03.04-.537-.798-.534-.84 0-.303 3.946-.113 7.887.305 11.81l-3.49-5.989c-.272-.467-.997-.045-.725.425 1.483 2.547 2.97 5.094 4.452 7.642.298 2.372.66 4.74 1.046 7.094.355 2.18.723 4.363 1.06 6.55-1.703-2.864-3.406-5.728-5.11-8.59-.275-.465-1.003-.042-.725.422 2.019 3.391 4.037 6.785 6.055 10.176.023.038.06.06.095.09.573 3.973 1.008 7.962 1.03 11.982.003.392-.002.782-.01 1.171a22938.96 22938.96 0 01-5.947-10.728c-.262-.472-.988-.05-.725.422l6.625 11.947c-.137 2.947-.532 5.874-1.28 8.733-.135.522.673.744.81.222.778-2.976 1.163-6.016 1.296-9.067l5.585-11.183c.24-.482-.485-.907-.726-.422h-.002zm13.964-19.833c-4.622 3.497-6.317 9.275-7.288 14.73-.565 3.181-.97 6.402-1.846 9.519a33.961 33.961 0 01-3.324 7.854 34.359 34.359 0 01-6.035 7.636c-.393.372.203.967.593.592a35.127 35.127 0 009.009-14.042c2.008-5.866 1.953-12.224 4.112-18.043 1.068-2.886 2.716-5.64 5.205-7.524.425-.322.007-1.051-.426-.724v.002zM23.04 109.411c-4.15-4.827-9.099-8.895-13.218-13.747-2.256-2.657-4.24-5.554-5.608-8.77-.21-.498-.935-.068-.725.421 4.93 11.6 16.975 17.808 23.17 28.531 1.669 2.885 2.87 6.059 3.194 9.39.053.532.893.537.84 0-.585-6.013-3.784-11.327-7.653-15.83v.005z" fill="#2C2A2A"/><path d="M51.046 94.498c-.153-.153-.445-.17-.596 0l-3.669 4.185c-.15.17-.167.424 0 .592.153.152.446.17.596 0l3.669-4.186c.15-.17.167-.427 0-.591zm-2.78 12.54a.423.423 0 00-.593 0l-2.963 2.712c-.168.152-.155.437 0 .592a.425.425 0 00.592 0l2.964-2.712c.168-.153.155-.437 0-.592zm-3.226 7.752c-.113-.173-.388-.292-.575-.15-.856.647-1.711 1.294-2.57 1.94-.174.133-.284.367-.15.572.113.175.389.292.576.153.855-.647 1.713-1.297 2.569-1.941.175-.132.285-.369.15-.574zm-17.635 1.269l-3.974-1.773c-.208-.093-.45-.06-.576.15-.105.179-.057.482.15.574 1.326.589 2.65 1.181 3.975 1.773.207.092.45.06.575-.152.105-.18.058-.48-.15-.572zm-4.478-6.517c-2.048-.62-4.097-1.241-6.148-1.866-.517-.157-.74.652-.222.809l6.148 1.866c.518.157.74-.652.222-.809zm-7.629-7.93l-5.137-1.783c-.513-.177-.73.632-.223.809l5.137 1.783c.51.178.73-.631.223-.809z" fill="#2C2A2A"/><path d="M46.617 154.234h59.503v-2.909H40.012a58.528 58.528 0 006.603 2.909h.002z" fill="#4D3938"/><path d="M40.011 151.326h67.651v-8.046H28.155a60.66 60.66 0 0011.856 8.046z" fill="#684949"/><path d="M28.415 89.2l13.992 54.084h63.424l-1.471-3.361-59.327-1.359-14.515-49.363h-2.103z" fill="#9D9E9E"/><path d="M250.813 128.484c-2.706 6.747-5.207 15.697-5.735 26.413a69.397 69.397 0 01-21.34 18.11c-11.472 6.273-24.538 8.948-37.614 7.445l-.691-.083v-66.132h55.781c7.356 0 12.328 7.419 9.599 14.247z" fill="#F18D74"/><path d="M115.884 135.914l-.673-7.757-.1-1.116 50.893-8.383 24.664-33.054c.008.06.025.11.035.167a31.293 31.293 0 00-1.268 7.152c-.05.957-.042 1.988.538 2.75.638.829 1.813 1.099 2.839.914 1.033-.177 1.948-.72 2.846-1.266 7.448-4.56 12.643-8.973 19.219-14.742.017.025.032.043.05.068 0 0 14.852 4.168 15.439 23.394.581 19.237-4.442 51.284-4.442 51.284l4.688 13.383a69.244 69.244 0 01-6.869 4.3c-11.472 6.273-24.538 8.948-37.614 7.444-3.294-.377-6.538-.976-9.74-1.738l1.896-21.356a32.978 32.978 0 01-5.115.529c-6.771.175-58.057-12.042-58.057-12.042l.133-1.66.645-8.134-.007-.142v.005z" fill="#FBC358"/><path d="M207.645 64.1a56.21 56.21 0 01-2.839-10.295c-1.068-6.139-1.151-12.611-3.939-18.178-2.789-5.586-8.339-9.577-14.427-10.858.488-5.736 5.047-10.926 10.707-12.092 5.763-1.191 12.146 1.888 14.8 7.135 1.966 3.916 2.166 8.955 5.575 11.705 2.191 1.778 5.207 2.12 7.701 3.446 3.501 1.853 5.802 5.776 5.71 9.734-.093 3.958-2.579 7.767-6.163 9.457 3.964.664 7.231 4.136 7.876 8.091.648 3.968-1.225 8.166-4.467 10.541-3.241 2.383-7.676 2.927-11.488 1.653-2.486-.839-4.684-2.407-6.375-4.412a51.685 51.685 0 01-2.671-5.929v.003z" fill="#2C2A2A"/><path d="M165.952 73.113a51.92 51.92 0 01-5.082-11.085 50.947 50.947 0 01-2.309-11.648l-.017-.092c2.143-.477 4.192-1.349 6.308-1.945 7.181-2.013 15.234-.645 21.34 3.63-1.283-2.374-1.386-5.863.925-7.286 1.678-1.04 4.057-.42 5.358 1.08 1.293 1.492 1.645 3.63 1.353 5.592-.295 1.963-1.151 3.781-2.034 5.56 3.687 4.779 4.37 7.049 10.39 6.68l12.693 16.983c-6.575 5.769-11.77 10.18-19.218 14.742-.898.547-1.814 1.088-2.847 1.266-1.025.184-2.201-.083-2.839-.914-.58-.762-.587-1.796-.537-2.75.142-2.425.57-4.83 1.268-7.152.032-.117.075-.242.11-.362l-.143.192a33.554 33.554 0 00-3.014-8.2c-1.208 1.46-2.543 2.784-4.124 3.833-2.879 1.92-6.786 2.692-9.825 1.04-1.393-.763-2.493-1.97-3.501-3.193a50.532 50.532 0 01-4.247-5.971h-.008z" fill="#FACDAD"/><path d="M186.441 24.768c6.088 1.284 11.64 5.274 14.426 10.858 2.787 5.57 2.872 12.04 3.94 18.178.612 3.514-3.895 6.463-2.627 9.79-6.02.369-6.703-1.901-10.389-6.681.883-1.778 1.738-3.596 2.033-5.559.293-1.963-.06-4.1-1.353-5.591-1.301-1.501-3.679-2.123-5.357-1.082-2.312 1.426-2.209 4.915-.926 7.287-6.105-4.277-14.159-5.643-21.34-3.63-2.116.594-4.164 1.465-6.308 1.945-.142.042-.292.067-.437.102-2.301.462-4.855.377-6.811-.921-1.956-1.301-3.031-4.076-1.881-6.121.535-.947 1.443-1.626 2.326-2.265 3.704-2.71 7.409-5.407 11.113-8.109 4.855-3.538 9.909-7.16 15.797-8.3 2.579-.503 5.233-.438 7.794.1z" fill="#2C2A2A"/><path d="M165.951 73.106l-4.494 1.199c-.193-4.093-.393-8.194-.588-12.284a51.973 51.973 0 005.082 11.085zm-64.306 57.534c4.72 1.788 9.304 4.236 14.234 5.267l.008.142-.646 8.134a22.141 22.141 0 01-12.42 2.23 22.06 22.06 0 01-12.086-5.452 896.831 896.831 0 00-3.024 2.675c-.587.519-1.385 1.074-2.09.729-.741-.369-.741-1.443-.42-2.197.327-.765.855-1.484.83-2.305-1.596.879-3.192 1.76-4.788 2.642-.712.384-1.706.736-2.233.125-.47-.537-.16-1.366.21-1.971a16.237 16.237 0 013.391-3.983c-1.688.402-3.376.807-5.064 1.216-.453.11-1.008.185-1.303-.177-.343-.41-.043-1.024.277-1.458 3.737-4.982 10.02-7.949 16.25-7.689 3.074.134 5.995.981 8.867 2.07l.007.002z" fill="#FACDAD"/><path d="M115.209 128.152l.673 7.757c-4.93-1.032-9.515-3.479-14.234-5.267 4.527-.829 9.044-1.658 13.563-2.49h-.002z" fill="#FACDAD"/><path d="M114.77 136.272l-11.618-5.589c-.485-.235-.91.489-.422.724l11.618 5.589c.485.232.91-.49.422-.724zm-19.408-1.108c-3.402-.19-6.806 1.216-9.08 3.751-.36.399.233.996.593.592a10.645 10.645 0 018.484-3.504c.54.03.538-.809 0-.839h.003zm-4.433-2.384a32.932 32.932 0 00-8.217 3.067c-.475.254-.052.979.425.724a32.029 32.029 0 018.014-2.984c.528-.118.305-.927-.222-.809v.002zm100.445-62.525a19.483 19.483 0 01-3.507 6.636c-.337.417.253 1.014.593.594a20.514 20.514 0 003.722-7.007c.155-.517-.653-.74-.811-.222h.003zm-14.472-.585c-.13-.525-.94-.303-.807.222.567 2.272-.271 4.742-2.066 6.233-.416.347.182.936.595.594 2.023-1.68 2.916-4.507 2.281-7.05h-.003zm-8.087-14.374c-1.761-.09-3.557.15-5.235.692-.625.202-1.096.881-.881 1.548.203.624.878 1.096 1.549.88a12.806 12.806 0 011.78-.453c.09-.017.183-.032.273-.047.035-.005.398-.05.2-.03.073-.01.175-.02.193-.023.09-.01.182-.017.275-.025a13.819 13.819 0 011.841-.028c.66.036 1.29-.601 1.26-1.255-.032-.712-.552-1.222-1.26-1.259h.005zm.953 5.984a2.353 2.353 0 01-4.707 0 2.352 2.352 0 012.353-2.35 2.353 2.353 0 012.354 2.35z" fill="#2C2A2A"/><path d="M185.438 63.63a4.433 4.433 0 01-4.437 4.43 4.435 4.435 0 01-4.44-4.43 4.436 4.436 0 014.44-4.434 4.435 4.435 0 014.437 4.433z" fill="#F18D74"/><path d="M206.353 179.466l-18.674.12-6.948.045c1.781.332 3.576.607 5.39.814 6.82.785 13.641.43 20.232-.979zm22.209-16.606a646.365 646.365 0 01-38.793 1.773c-4.047.062-8.094.085-12.141.072l-.222 2.515a645.87 645.87 0 0049.405-1.711c.87-.062 1.741-.13 2.608-.197l-.857-2.452zm-1.545-15.158a993.071 993.071 0 01-30.422 4.11 1013.895 1013.895 0 01-37.784 3.796c3.559.714 6.748 1.311 9.266 1.718a1018.244 1018.244 0 0058.585-7.04c.11-.786.23-1.648.355-2.582v-.002zm1.47-11.976l-35.724.48c-17.193.23-34.384.462-51.574.694l-25.397.342-.2 2.518 48.24-.65c17.193-.232 34.383-.464 51.574-.694l12.796-.172c.095-.824.192-1.663.287-2.52l-.002.002zm1.342-14.391a1183.217 1183.217 0 00-111.652 5.202l-3.073.507.1 1.116.102 1.169a1183.966 1183.966 0 0143.6-3.394 1188.875 1188.875 0 0170.73-2.083c.068-.839.133-1.678.193-2.514v-.003zm.576-14.712c-4.157.13-8.311.242-12.468.34-14.519.344-29.044.507-43.568.479l-1.873 2.51a1712.187 1712.187 0 0057.899-.817c.012-.854.015-1.693.01-2.514v.002zm-1.775-12.126a1513.378 1513.378 0 00-46.849 3.017l-1.998 2.677a1504.867 1504.867 0 0149.613-3.219 27.514 27.514 0 00-.766-2.477v.002z" fill="#EAA22D"/><path d="M204.116 91.927a817.763 817.763 0 01-26.487 29.365c-2.556 2.702-5.237 5.586-7.828 8.253-.063.063.012-.07 0 0-6.804.57-13.607 1.141-20.407 1.713-6.986.587-13.972 1.177-20.957 1.763-3.927.33-7.854.66-11.783.992-.533.045-.541.884 0 .836l20.854-1.753c6.986-.587 13.972-1.173 20.957-1.763l11.01-.924c.311-.027 1.161-.617 1.161-.617a817.033 817.033 0 0034.078-37.271c.35-.407-.24-1.004-.593-.594h-.005zm17.764 25.916a404.902 404.902 0 01-16.128 15.973 400.846 400.846 0 01-26.897 23.037c-.425.332.173.924.593.592a401.973 401.973 0 0043.025-39.012c.372-.392-.221-.984-.593-.592v.002z" fill="#2C2A2A"/><path d="M187.728 90.607a105.979 105.979 0 00-12.2 26.648 106.06 106.06 0 00-2.051 7.999c-.113.527.695.752.808.225a105.333 105.333 0 019.994-27.318 106.398 106.398 0 014.172-7.13c.293-.457-.435-.876-.725-.422l.002-.002z" fill="#2C2A2A"/></svg>