<?xml version="1.0" encoding="utf-8"?><svg viewBox="0 0 674 461" xmlns="http://www.w3.org/2000/svg" xmlns:xlink="http://www.w3.org/1999/xlink"><style>:root>svg{display:none}:root>svg:target{display:block}</style><svg fill="none" viewBox="0 0 8 14" id="arrow-right-black" xmlns="http://www.w3.org/2000/svg"><path d="M1 1l6 6-6 6" stroke="#141923" stroke-width="1.5" stroke-linecap="round" stroke-linejoin="round"/></svg><svg fill="none" viewBox="0 0 8 14" id="arrow-right-white" xmlns="http://www.w3.org/2000/svg"><path d="M1 1l6 6-6 6" stroke="#fff" stroke-width="1.5" stroke-linecap="round" stroke-linejoin="round"/></svg><svg fill="none" viewBox="0 0 674 461" id="background-paper" xmlns="http://www.w3.org/2000/svg"><path d="M343.946 277.744c-26.5 1.673-64.6 11.512-78.927 28.841-10.019 12.13-12.372 21.637-3.585 37.79 0 0 2.298-42.535 82.512-66.626v-.005z" fill="#F5F9FC"/><path d="M365.878 298.045c-3.48-16.241-14.41-19.368-18.569-20.064-8.042-1.37-45.523.614-72.957 20.218 43.667-17.92 91.526-.149 91.526-.149v-.005z" fill="#F5F9FC"/><path d="M525.665 216.95c-18.447-5.883-47.859-33.293-76.767-38.248 0 0-21.922 16.92-40.226 16.042 0 0 53.509 21.902 62.888 30.73 14.36 2.988 24.965-6.419 54.105-8.524z" fill="#fff"/><path d="M440.464 208.564c6.865.255 15.006 1.16 23.661 2.751 14.482 2.663 26.959 6.596 34.084 10.402 7.147-1.917 15.808-3.927 27.456-4.767-18.447-5.883-47.859-33.293-76.767-38.249 0 0-21.922 16.921-40.226 16.042 0 0 15.84 6.48 31.792 13.821zM673.085 78.05s-54.154 14.838-82.936 35.437c0 0-23.298-7.503-43.254-2.655 0 0 54.532-28.994 89.885-34.71 35.355-5.712 36.303 1.924 36.303 1.924l.002.005zM415.624 19.175s58.601-6.408 94.713 1.983c0 0 19.784-15.644 41.137-18.577 0 0-64.501-6.585-101.197 1.281-36.703 7.867-34.653 15.313-34.653 15.313zM382.697 309.014l-60.596 41.221s23.938 38.955 45.202 94.549l66.406-43.977s-15.305-34.337-51.018-91.793h.006z" fill="#F5F9FC"/><path d="M384.707 379.53c-.944 22.449-4.441 43.214-9.599 60.079l58.601-38.806s-15.305-34.338-51.018-91.793l-4.43 3.016c5.016 17.937 7.529 41.568 6.446 67.498v.006z" fill="#fff"/><path d="M405.541 373.404l-14.134 9.341.448 1.293 14.283-9.639-.597-.995zM396.941 356.722l-9.08 5.955.834 1.248 9.102-5.844-.856-1.359zM386.322 363.613l-2.546 1.806.828 1.243 2.58-1.679-.862-1.37zM402.172 381.211l-9.284 5.966.486 1.459 9.24-6.082-.442-1.343zM380.538 397.086l11.345-7.469-.486-1.469-11.4 7.325.541 1.613zM379.076 398.056l-.541-1.63-4.822 3.099-.061 2.105 5.424-3.574zM404.105 381.58l4.579-3.01-.823-1.006-4.187 2.702.431 1.314zM375.104 389.987l12.902-8.568-.475-1.453-12.875 8.679.448 1.342zM396.36 374.211l-7.103 4.646.492 1.475 7.147-4.502-.536-1.619zM397.823 373.238l.541 1.63 5.347-3.961-.47-1.237-5.418 3.568zM359.309 383.201l7.744-5.027-.486-1.453-7.705 5.143.447 1.337zM375.369 370.966l-7.103 4.645.491 1.47 7.147-4.502-.535-1.613zM376.858 369.986l.542 1.635 5.357-3.955-.475-1.248-5.424 3.568zM349.708 371.734l7.749-5.021-.486-1.453-7.71 5.137.447 1.337zM365.773 359.504l-7.108 4.64.497 1.475 7.147-4.508-.536-1.607zM367.242 358.525l.541 1.63 5.341-3.955-.464-1.243-5.418 3.568zM400.886 388.062l-11.118 7.148.563 1.685 11.069-7.292-.514-1.541zM379.986 403.711l8.881-5.839-.574-1.707-8.915 5.734.608 1.812zM402.387 387.128l.503 1.502 8.771-5.767-.917-1.127-8.473 5.442.116-.05zM378.49 404.683l-.608-1.828-5.496 3.53-.061 2.364 6.165-4.066zM389.642 343.782l-14.134 9.353.447 1.281 14.283-9.639-.596-.995zM386.31 351.605l-9.29 5.966.486 1.453 9.246-6.088-.442-1.331zM364.671 367.465l11.351-7.463-.492-1.475-11.4 7.325.541 1.613zM363.176 368.445l-.536-1.64-4.821 3.104-.061 2.099 5.418-3.563zM388.244 351.959l4.578-3.005-.823-1.006-4.192 2.696.437 1.315zM359.231 360.365l12.913-8.562-.486-1.453-12.863 8.684.436 1.331zM380.454 344.595l-7.097 4.651.486 1.469 7.153-4.507-.542-1.613zM381.956 343.622l.541 1.629 5.352-3.961-.475-1.242-5.418 3.574zM385.025 358.451l-11.119 7.153.564 1.68 11.068-7.287-.513-1.546zM364.13 374.099l8.876-5.845-.569-1.695-8.915 5.728.608 1.812zM386.526 357.522l.497 1.497 8.776-5.773-.922-1.121-8.467 5.447.116-.05zM362.628 375.077l-.614-1.834-5.49 3.53-.066 2.359 6.17-4.055zM392.527 364.898l-9.28 5.971.486 1.453 9.246-6.088-.452-1.336zM377.106 376.596l5.143-3.304-.492-1.464-5.181 3.149.53 1.619zM374.416 378.362l-.552-1.635-9.82 6.48-.061 2.099 10.433-6.944zM394.476 365.262l4.573-3.011-.823-1-4.187 2.69.437 1.321zM392.616 370.496l-10.56 6.789.53 1.602 10.511-6.916-.481-1.475zM372.757 385.355l8.434-5.546-.541-1.613-8.462 5.441.569 1.718zM394.05 369.613l.475 1.43 8.323-5.485-.873-1.061-8.041 5.16.116-.044zM371.361 386.283l-.58-1.74-5.225 3.353-.055 2.243 5.86-3.856z" fill="#D0D0E4"/><path d="M393.293 91.898l-64.12-35.486s-23.96 38.938-63.976 82.998l69.201 39.436s23.733-29.15 58.895-86.948z" fill="#F5F9FC"/><path d="M331.272 125.512c-20.458 9.286-40.563 15.533-57.939 18.538l61.065 34.796s23.733-29.15 58.895-86.948l-4.695-2.596c-13.737 12.567-33.698 25.477-57.326 36.21z" fill="#fff"/><path d="M346.14 141.319l-14.714-8.402-.95.984 15.045 8.396.619-.978zM357.145 126.139l-9.406-5.419-.74 1.315 9.318 5.491.828-1.387zM346.218 119.773l-2.762-1.458-.734 1.303 2.667 1.547.829-1.392zM337.642 141.855l-9.511-5.596-1.077 1.089 9.593 5.507.995-1zM313.723 129.71l11.781 6.756 1.094-1.1-11.682-6.866-1.193 1.21zM312.19 128.828l1.209-1.221-4.943-2.906-1.906.895 5.64 3.232zM338.207 143.729l4.745 2.735.524-1.188-4.297-2.519-.972.972zM317.616 121.656l13.46 7.656 1.083-1.082-13.549-7.579-.994 1.005zM341.283 133.494l-7.346-4.243-1.099 1.105 7.247 4.347 1.198-1.209zM342.822 134.378l-1.21 1.215 5.938 2.983.9-.972-5.628-3.226zM316.527 104.471l7.975 4.645 1.077-1.088-8.058-4.557-.994 1zM334.704 113.297l-7.346-4.237-1.094 1.099 7.241 4.353 1.199-1.215zM336.237 114.18l-1.204 1.216 5.938 2.994.9-.978-5.634-3.232zM322.435 90.726l7.975 4.657 1.083-1.089-8.07-4.568-.988 1zM340.579 99.564l-7.346-4.253-1.099 1.104 7.252 4.353 1.193-1.204zM342.118 100.442l-1.21 1.216 5.943 2.988.895-.978-5.628-3.226zM330.945 143.8l-11.389-6.695-1.254 1.26 11.5 6.595 1.143-1.16zM307.538 132.197l9.224 5.292 1.259-1.276-9.136-5.375-1.347 1.359zM332.471 144.718l-1.116 1.127 9.108 5.226.586-1.326-8.677-5.11.099.083zM306.009 131.31l1.359-1.37-5.622-3.309-2.138 1.011 6.401 3.668zM365.408 113.789l-14.72-8.402-.95.983 15.051 8.397.619-.978zM356.91 114.325l-9.517-5.596-1.077 1.088 9.605 5.507.989-.999zM332.991 102.178l11.781 6.761 1.094-1.104-11.682-6.872-1.193 1.215zM331.447 101.287l1.221-1.215-4.949-2.906-1.895.895 5.623 3.226zM357.475 116.209l4.745 2.724.525-1.182-4.297-2.53-.973.988zM336.884 94.12l13.466 7.662 1.077-1.089-13.549-7.562-.994.989zM360.552 105.958l-7.357-4.243-1.089 1.105 7.247 4.348 1.199-1.21zM362.085 106.841l-1.21 1.221 5.943 2.988.9-.983-5.633-3.226zM350.213 116.275l-11.4-6.7-1.248 1.259 11.499 6.596 1.149-1.155zM326.812 104.667l9.218 5.286 1.259-1.276-9.135-5.369-1.342 1.359zM351.734 117.187l-1.11 1.127 9.107 5.226.586-1.331-8.683-5.104.1.082zM325.278 103.785l1.359-1.376-5.628-3.309-2.132 1.006 6.401 3.679zM347.863 125.88l-9.511-5.591-1.083 1.088 9.605 5.502.989-.999zM330.467 117.39l5.264 3.105 1.088-1.099-5.153-3.21-1.199 1.204zM327.654 115.799l1.215-1.232-10.212-5.844-1.9.895 10.897 6.181zM348.385 127.764l4.75 2.724.525-1.183-4.297-2.524-.978.983zM342.889 128.483l-10.825-6.364-1.188 1.199 10.914 6.259 1.099-1.094zM320.678 117.457l8.754 5.016 1.199-1.205-8.677-5.098-1.276 1.287zM344.337 129.353l-1.055 1.066 8.644 4.955.558-1.254-8.235-4.85.088.083zM319.196 116.622l1.292-1.304-5.346-3.149-2.027.967 6.081 3.486z" fill="#D0D0E4"/><path d="M55.675 460.539l63.385-37.508S93.017 384.948 69.488 331L0 370.95s16.824 33.387 55.675 89.589z" fill="#F5F9FC"/><path d="M52.256 392.924c.585-21.467 3.91-41.243 9.058-57.229L0 370.949s16.824 33.388 55.675 89.589l4.64-2.745c-5.64-17.34-8.733-40.061-8.06-64.864v-.005z" fill="#fff"/><path d="M30.338 398.121l14.791-8.485-.497-1.254-14.946 8.767.652.972zM39.71 414.381l9.5-5.408-.91-1.232-9.528 5.303.939 1.337zM50.834 408.115l2.662-1.64-.912-1.221-2.69 1.525.94 1.336zM33.74 390.738l9.716-5.408-.541-1.409-9.666 5.519.492 1.298zM56.364 376.255l-11.875 6.778.542 1.425 11.935-6.645-.602-1.558zM57.883 375.37l.602 1.575 5.049-2.807.022-2.016-5.673 3.248zM31.699 390.331l-4.794 2.734.889.989 4.385-2.441-.48-1.282zM62.224 383.236l-13.505 7.778.53 1.403 13.46-7.894-.485-1.287zM40.034 397.646l7.434-4.22-.547-1.426-7.483 4.077.596 1.569zM38.5 398.526l-.607-1.58-5.584 3.618.519 1.199 5.672-3.237zM79.111 390.243l-8.108 4.563.536 1.403 8.064-4.674-.492-1.292zM62.318 401.435l7.428-4.221-.54-1.414-7.485 4.077.597 1.558zM60.752 402.32l-.602-1.585-5.595 3.618.52 1.204 5.677-3.237zM89.462 401.538l-8.12 4.557.548 1.409 8.07-4.673-.498-1.293zM72.69 412.731l7.44-4.22-.552-1.426-7.478 4.083.59 1.563zM71.13 413.615l-.607-1.58-5.59 3.618.52 1.199 5.678-3.237zM34.955 384.222l11.637-6.48-.618-1.63-11.588 6.624.569 1.486zM56.84 369.919l-9.296 5.303.635 1.657 9.329-5.203-.668-1.757zM33.393 385.066l-.553-1.453-9.185 5.243 1 1.104 8.865-4.933-.127.039zM58.392 369.036l.679 1.773 5.75-3.198.022-2.265-6.451 3.69zM47.682 427.009l14.791-8.496-.497-1.249-14.94 8.761.646.984zM51.09 419.631l9.721-5.408-.541-1.419-9.671 5.529.491 1.298zM73.675 405.141L61.8 411.914l.547 1.43 11.93-6.645-.602-1.558zM75.233 404.246l.596 1.586 5.054-2.812.022-2.011-5.672 3.237zM49.043 419.213l-4.789 2.734.884.984 4.391-2.442-.486-1.276zM79.579 412.118l-13.51 7.778.547 1.403 13.454-7.888-.491-1.293zM57.39 426.523l7.428-4.22-.547-1.426-7.484 4.088.602 1.558zM55.818 427.408l-.608-1.58-5.59 3.618.525 1.21 5.673-3.248zM52.31 413.109l11.643-6.485-.63-1.629-11.588 6.617.575 1.497zM74.184 398.806l-9.29 5.303.635 1.651 9.328-5.198-.673-1.756zM50.74 413.949l-.557-1.459-9.18 5.248.995 1.105 8.87-4.939-.127.045zM75.703 397.913l.684 1.778 5.745-3.198.027-2.265-6.456 3.685zM44.243 406.685l9.716-5.413-.542-1.403-9.67 5.524.496 1.292zM60.364 395.986l-5.38 2.994.548 1.42 5.429-2.845-.596-1.569zM63.17 394.377l.608 1.586 10.284-5.883.022-2.011-10.914 6.308zM42.19 406.278l-4.788 2.734.89.984 4.385-2.442-.486-1.276zM44.047 401.317l11.052-6.154-.59-1.552-10.998 6.281.536 1.425zM64.823 387.741l-8.82 5.032.596 1.563 8.865-4.927-.64-1.668zM42.563 402.116l-.53-1.381-8.705 4.983.944 1.044 8.412-4.685-.121.039zM66.265 386.894l.646 1.685 5.457-3.038.028-2.144-6.131 3.497z" fill="#D0D0E4"/></svg><svg fill="none" viewBox="0 0 22 12" id="caret" xmlns="http://www.w3.org/2000/svg"><path d="M21 1L11 11 1 1" stroke="#3935D8" stroke-width="1.5" stroke-linecap="round" stroke-linejoin="round"/></svg><svg fill="none" viewBox="0 0 47 44" id="icon-github" xmlns="http://www.w3.org/2000/svg"><path d="M23.053 0C10.316 0 0 10.1 0 22.558c0 9.969 6.605 18.423 15.763 21.403 1.152.212 1.575-.486 1.575-1.085 0-.535-.02-1.955-.029-3.835-6.413 1.36-7.765-3.027-7.765-3.027-1.049-2.603-2.565-3.3-2.565-3.3-2.088-1.398.162-1.37.162-1.37 2.315.158 3.53 2.325 3.53 2.325 2.056 3.45 5.397 2.453 6.715 1.877.207-1.46.801-2.453 1.46-3.017-5.12-.564-10.5-2.504-10.5-11.147 0-2.462.893-4.475 2.372-6.053-.26-.57-1.038-2.864.201-5.97 0 0 1.931-.605 6.34 2.312 1.844-.5 3.804-.75 5.764-.761 1.959.011 3.919.26 5.763.761 4.38-2.917 6.31-2.313 6.31-2.313 1.24 3.107.462 5.4.231 5.971 1.47 1.578 2.363 3.59 2.363 6.053 0 8.666-5.389 10.573-10.518 11.128.807.677 1.556 2.06 1.556 4.174 0 3.019-.029 5.444-.029 6.177 0 .591.404 1.297 1.585 1.071 9.223-2.961 15.822-11.42 15.822-21.374C46.106 10.101 35.784 0 23.053 0z" fill="#141923"/></svg><svg fill="none" viewBox="0 0 19 16" id="icon-love" xmlns="http://www.w3.org/2000/svg"><g opacity=".3" fill="#141923"><path d="M9.433 1.874C.126-5.097-6.042 9.124 9.433 16c15.475-6.876 9.307-21.097 0-14.126z"/><path d="M12.855.17c4.751 1.313 5.475 9.938-4.755 15.192.425.219.87.432 1.333.638C22.901 10.016 19.976-1.531 12.855.17z"/></g></svg><svg fill="none" viewBox="0 0 39 40" id="schema-api" xmlns="http://www.w3.org/2000/svg"><path d="M21.956 18.827a1.563 1.563 0 01-.687-2.967l6.875-3.36a1.563 1.563 0 011.372 2.809l-6.875 3.36c-.221.107-.455.158-.685.158zm-3.168 21.17a1.563 1.563 0 10-.073-3.124 6.386 6.386 0 01-3.085-.715l-9.062-4.703a6.365 6.365 0 01-3.443-5.67V14.162a6.365 6.365 0 013.443-5.67l8.965-4.653a6.386 6.386 0 015.822-.025l9.061 4.604a6.358 6.358 0 013.492 5.695v6.745a1.563 1.563 0 103.126 0v-6.745a9.469 9.469 0 00-5.202-8.481L22.77 1.028a9.518 9.518 0 00-8.677.037L5.128 5.718A9.48 9.48 0 000 14.162v11.623a9.48 9.48 0 005.128 8.444l9.062 4.703a9.525 9.525 0 004.598 1.065zm-2.777-22.04a1.563 1.563 0 00-.708-2.094l-6.798-3.36a1.562 1.562 0 10-1.384 2.802l6.797 3.36a1.563 1.563 0 002.093-.709zm4.068 14.23v-9.844a1.563 1.563 0 00-3.125 0v9.844a1.563 1.563 0 003.125 0z" fill="#fff"/><path d="M37.034 28.671h-5.626a1.563 1.563 0 110-3.125h5.626a1.563 1.563 0 010 3.125zm-11.798.39a1.953 1.953 0 100-3.906 1.953 1.953 0 000 3.907zm6.72 3.517c0-.863-.7-1.563-1.563-1.563h-5.548a1.563 1.563 0 000 3.125h5.548c.863 0 1.562-.7 1.562-1.562zm4.687 1.953a1.953 1.953 0 100-3.906 1.953 1.953 0 000 3.906zm1.953 3.516c0-.863-.7-1.563-1.562-1.563h-5.547a1.563 1.563 0 000 3.125h5.547c.863 0 1.562-.7 1.562-1.562zm-11.407 0a1.953 1.953 0 10-3.906 0 1.953 1.953 0 003.906 0z" fill="#fff"/></svg><svg fill="none" viewBox="0 0 33 34" id="schema-arrow-down" xmlns="http://www.w3.org/2000/svg"><path opacity=".5" fill-rule="evenodd" clip-rule="evenodd" d="M1.046 11.6c.423-.125.853-.236 1.288-.332 9.195-2.039 18.338 3.171 21.44 11.813l-8.232-1.451-.53 3.01 12.146 2.141 2.141-12.145-3.01-.531-.899 5.102C20.947 10.871 11.335 6.142 1.673 8.284A21.61 21.61 0 000 8.726L1.046 11.6z" fill="#141923"/></svg><svg fill="none" viewBox="0 0 33 34" id="schema-arrow-down-black" xmlns="http://www.w3.org/2000/svg"><path fill-rule="evenodd" clip-rule="evenodd" d="M1.046 11.875c.423-.125.853-.236 1.288-.333 9.195-2.038 18.338 3.172 21.44 11.814l-8.232-1.452-.53 3.01 12.146 2.142 2.141-12.146-3.01-.53-.899 5.101C20.947 11.145 11.335 6.416 1.673 8.558A21.61 21.61 0 000 9l1.046 2.875z" fill="#141923"/></svg><svg fill="none" viewBox="0 0 24 18" id="schema-arrow-down-l" xmlns="http://www.w3.org/2000/svg"><path opacity=".5" d="M1.983 7.095l-.04.145.146.039 16.639 4.458-4.542 2.622-.13.075.075.13.63 1.091.075.13.13-.075 6.718-3.878.13-.075-.075-.13-3.879-6.718-.075-.13-.13.075-1.09.63-.13.075.074.13 2.622 4.541L2.492 5.772l-.145-.039-.038.145-.326 1.217z" fill="#141923" stroke="#141923" stroke-width=".3"/></svg><svg fill="none" viewBox="0 0 42 24" id="schema-arrow-right" xmlns="http://www.w3.org/2000/svg"><path d="M.85 10.71v-.15h34.964l-7.672-7.672-.106-.106.106-.106L29.924.894l.105-.106.107.106 10.97 10.97.106.106-.106.106-10.97 10.971-.107.106-.105-.106-1.782-1.782-.106-.106.106-.106 7.672-7.673H.85v-2.67z" fill="#3935D8" stroke="#3935D8" stroke-width=".3"/></svg><svg fill="none" viewBox="0 0 42 24" id="schema-arrow-right-grey" xmlns="http://www.w3.org/2000/svg"><path opacity=".5" d="M.85 10.71v-.15h34.964l-7.672-7.672-.106-.106.106-.106L29.924.894l.105-.106.107.106 10.97 10.97.106.106-.106.106-10.97 10.971-.107.106-.105-.106-1.782-1.782-.106-.106.106-.106 7.672-7.673H.85v-2.67z" fill="#141923" stroke="#141923" stroke-width=".3"/></svg><svg fill="none" viewBox="0 0 42 24" id="schema-arrow-right-pink" xmlns="http://www.w3.org/2000/svg"><path d="M.85 10.71v-.15h34.964l-7.672-7.672-.106-.106.106-.106L29.924.894l.105-.106.107.106 10.97 10.97.106.106-.106.106-10.97 10.971-.107.106-.105-.106-1.782-1.782-.106-.106.106-.106 7.672-7.673H.85v-2.67z" fill="#9D35C6" stroke="#9D35C6" stroke-width=".3"/></svg><svg fill="none" viewBox="0 0 33 34" id="schema-arrow-top" xmlns="http://www.w3.org/2000/svg"><path opacity=".5" fill-rule="evenodd" clip-rule="evenodd" d="M1.046 21.797c.423.125.853.236 1.288.333 9.195 2.038 18.338-3.172 21.44-11.814l-8.232 1.451-.53-3.01 12.146-2.14 2.141 12.145-3.01.53-.899-5.102c-4.443 8.337-14.055 13.066-23.717 10.924A21.628 21.628 0 010 24.672l1.046-2.875z" fill="#141923"/></svg><svg fill="none" viewBox="0 0 33 34" id="schema-arrow-top-black" xmlns="http://www.w3.org/2000/svg"><path fill-rule="evenodd" clip-rule="evenodd" d="M1.046 22.125c.423.125.853.236 1.288.333 9.195 2.038 18.338-3.172 21.44-11.814l-8.232 1.452-.53-3.01 12.146-2.142 2.141 12.146-3.01.53-.899-5.101c-4.443 8.336-14.055 13.065-23.717 10.923A21.628 21.628 0 010 25l1.046-2.875z" fill="#141923"/></svg><svg fill="none" viewBox="0 0 24 18" id="schema-arrow-top-l" xmlns="http://www.w3.org/2000/svg"><path opacity=".5" d="M1.983 10.905l-.04-.145.146-.039 16.639-4.458-4.542-2.622-.13-.075.075-.13.63-1.091.075-.13.13.075 6.718 3.878.13.075-.075.13-3.879 6.718-.075.13-.13-.075-1.09-.63-.13-.075.074-.13 2.623-4.541-16.64 4.458-.144.039-.04-.145-.325-1.217z" fill="#141923" stroke="#141923" stroke-width=".3"/></svg><svg fill="none" viewBox="0 0 39 40" id="schema-classification" xmlns="http://www.w3.org/2000/svg"><path d="M9.318 32.855c-1.837-.952-3.068-2.857-3.068-4.936V11.882c0-2.082 1.236-3.99 3.077-4.94l-.011-1.736-4.753 2.451c-1.842.95-3 2.858-3 4.941v14.606a5.556 5.556 0 002.99 4.935l4.77 2.485-.005-1.77z" fill="#CEE1F2"/><path d="M30.233 13.218a1.563 1.563 0 01-.717 2.09l-6.876 3.36a1.563 1.563 0 01-1.372-2.808l6.875-3.36a1.563 1.563 0 012.09.718zm-13.279 9.124v9.845c.082 2.073 3.043 2.071 3.125 0v-9.845c-.082-2.073-3.043-2.071-3.125 0zM18.689 40zM8.505 12.504a1.563 1.563 0 00-1.384 2.801l6.797 3.36a1.563 1.563 0 001.385-2.802l-6.798-3.36zm28.528 1.609v6.745c-.082 2.073-3.043 2.072-3.125 0v-6.745c0-2.419-1.338-4.601-3.492-5.695l-9.062-4.604a6.386 6.386 0 00-5.822.025L6.568 8.492a6.365 6.365 0 00-3.443 5.67v11.623a6.365 6.365 0 003.443 5.67l9.062 4.703c1.536.74 3.044.894 4.726.521a1.563 1.563 0 01.696 3.047 10.27 10.27 0 01-2.38.273c-1.518 0-3.133-.367-4.482-1.068l-9.062-4.703A9.48 9.48 0 010 25.785V14.161a9.48 9.48 0 015.128-8.443l8.965-4.653a9.518 9.518 0 018.677-.037l9.061 4.604a9.468 9.468 0 015.202 8.48zM18.674 39.999c.001 0 0 0 0 0zm0 0h-.001z" fill="#3935D8"/><path d="M24.845 35.312c-.863 0-1.563-.7-1.563-1.563v-4.375a4.693 4.693 0 014.688-4.688h4.453c2.074.083 2.072 3.044 0 3.125H27.97c-.861 0-1.562.701-1.562 1.563v4.375c0 .863-.7 1.563-1.563 1.563zm13.215 4.23c.61-.61.61-1.6 0-2.21l-6.72-6.72c-1.524-1.407-3.616.688-2.209 2.21l6.72 6.72c.304.305.704.457 1.104.457.4 0 .8-.152 1.105-.457z" fill="#3935D8"/></svg><svg fill="none" viewBox="0 0 40 41" id="schema-img" xmlns="http://www.w3.org/2000/svg"><path d="M12.5 30.703V18.984a7.812 7.812 0 017.813-7.812h-4.688a7.812 7.812 0 00-7.813 7.812v11.72a7.812 7.812 0 007.813 7.812h4.688a7.813 7.813 0 01-7.813-7.813z" fill="#201DAD"/><path d="M30.625 40.078h-15c-5.17 0-9.375-4.206-9.375-9.375V18.984c0-5.169 4.206-9.375 9.375-9.375h15c5.17 0 9.375 4.206 9.375 9.375v11.72c0 5.169-4.206 9.374-9.375 9.374zm-15-27.344a6.257 6.257 0 00-6.25 6.25v11.72a6.257 6.257 0 006.25 6.25h15a6.257 6.257 0 006.25-6.25v-11.72a6.257 6.257 0 00-6.25-6.25h-15zm11.803 8.438a1.953 1.953 0 100-3.906 1.953 1.953 0 000 3.906zM3.125 25.074V9.375a6.257 6.257 0 016.25-6.25h15a6.26 6.26 0 015.136 2.689 1.563 1.563 0 002.566-1.784A9.385 9.385 0 0024.375 0h-15C4.205 0 0 4.206 0 9.375v15.7a1.562 1.562 0 103.125 0z" fill="#fff"/><path d="M14.068 31.016a1.563 1.563 0 01-1.131-2.64l3.892-4.085c.028-.03.057-.058.087-.084a5.456 5.456 0 017.05-.224l.02.016 2.375 1.944c1.123.884 2.005.827 2.943-.19l2.248-2.635a1.562 1.562 0 112.377 2.028l-2.265 2.656a1.452 1.452 0 01-.035.04c-1.344 1.472-2.731 1.817-3.658 1.848-1.198.038-2.43-.412-3.558-1.304a1.563 1.563 0 01-.02-.016l-2.375-1.943a2.338 2.338 0 00-2.973.068L15.2 30.531c-.307.323-.72.485-1.132.485z" fill="#fff"/></svg><svg fill="none" viewBox="0 0 40 40" id="schema-json" xmlns="http://www.w3.org/2000/svg"><path d="M30.625 40H9.375C4.205 40 0 35.794 0 30.625V9.375C0 4.205 4.206 0 9.375 0h21.25C35.795 0 40 4.206 40 9.375v21.25C40 35.795 35.794 40 30.625 40zM9.375 3.125a6.257 6.257 0 00-6.25 6.25v21.25a6.257 6.257 0 006.25 6.25h21.25a6.257 6.257 0 006.25-6.25V9.375a6.257 6.257 0 00-6.25-6.25H9.375zm7.11 4.766c0-.863-.7-1.563-1.563-1.563H8.359a1.562 1.562 0 100 3.125h6.563c.863 0 1.562-.7 1.562-1.562zM30.78 26.094c0-.863-.7-1.563-1.562-1.563H16.172a1.563 1.563 0 000 3.125h13.047c.863 0 1.562-.7 1.562-1.562zm2.11 6.093c0-.862-.7-1.562-1.563-1.562h-3.437a1.562 1.562 0 100 3.125h3.437c.863 0 1.563-.7 1.563-1.563z" fill="#fff"/><path d="M31.563 21.563H20.547a1.562 1.562 0 110-3.125h11.015a1.562 1.562 0 110 3.125zm-3.907-7.579c0-.863-.7-1.562-1.562-1.562h-14.61a1.562 1.562 0 100 3.125h14.61c.863 0 1.562-.7 1.562-1.563z" fill="#fff"/></svg><svg fill="none" viewBox="0 0 40 39" id="schema-models" xmlns="http://www.w3.org/2000/svg"><path d="M23.36 20.782a1.344 1.344 0 01-1.271 0L6.604 12.8a.521.521 0 01.003-.921l15.19-8.127a1.344 1.344 0 011.256 0l9.129 2.994-7.688-4.066a9.613 9.613 0 00-8.988 0L3.552 9.002C.908 10.4.898 14.175 3.532 15.59l11.925 6.396a9.613 9.613 0 009.086 0l4.304-2.309-5.488 1.106z" fill="#CEE1F2"/><path d="M20 24.692c-1.814 0-3.628-.443-5.281-1.33L2.794 16.966A5.285 5.285 0 010 12.286 5.285 5.285 0 012.821 7.62l11.955-6.323a11.164 11.164 0 0110.448 0L37.18 7.62a5.285 5.285 0 012.82 4.664 5.285 5.285 0 01-2.793 4.68L25.28 23.363A11.165 11.165 0 0120 24.692zm0-21.567a8.043 8.043 0 00-3.763.935L4.283 10.383a2.138 2.138 0 00-1.158 1.911 2.138 2.138 0 001.147 1.918l11.924 6.396a8.03 8.03 0 007.608 0l11.925-6.396a2.138 2.138 0 001.146-1.918 2.138 2.138 0 00-1.157-1.91L23.763 4.06A8.043 8.043 0 0020 3.125zm-4.494-.446h.001zm9.775 34.823l13.895-7.452a1.562 1.562 0 00-1.477-2.754l-13.895 7.452a8.033 8.033 0 01-7.614-.003L2.295 27.371A1.562 1.562 0 10.83 30.13l13.889 7.371A11.162 11.162 0 0020 38.832c1.814 0 3.628-.443 5.281-1.33z" fill="#3935D8"/><path d="M20 31.801c-1.814 0-3.628-.443-5.281-1.33L.83 23.1a1.562 1.562 0 111.465-2.76l13.895 7.374a8.033 8.033 0 007.614.003L37.7 20.265a1.562 1.562 0 111.477 2.753L25.28 30.471A11.164 11.164 0 0120 31.801z" fill="#3935D8"/></svg><svg fill="none" viewBox="0 0 40 40" id="schema-upload" xmlns="http://www.w3.org/2000/svg"><path d="M20.673 28.542L7.436 15.276c-1.185-1.187-1.185-2.865-.408-4.054a3.125 3.125 0 01-.852.12h-1.38c-2.868 0-4.307 3.465-2.28 5.496l13.236 13.266a5.996 5.996 0 008.342.142 5.97 5.97 0 01-3.421-1.704z" fill="#201DAD"/><path d="M38.432 39.988H1.568a1.562 1.562 0 110-3.124h36.864a1.562 1.562 0 010 3.124zm-13.083-8.78l13.24-13.266c1.394-1.397 1.79-3.398 1.032-5.224-.756-1.823-2.448-2.955-4.417-2.955h-1.458a1.556 1.556 0 01-1.562-1.546V1.562a1.562 1.562 0 10-3.124 0v6.655c0 2.575 2.102 4.67 4.686 4.67h1.458c1.025 0 1.431.787 1.531 1.028.1.242.372 1.09-.356 1.82L23.137 29a4.406 4.406 0 01-3.139 1.303A4.407 4.407 0 0116.858 29L3.621 15.734c-.728-.73-.457-1.577-.356-1.82.1-.24.506-1.027 1.53-1.027h1.381c2.584 0 4.686-2.095 4.686-4.67V1.562a1.562 1.562 0 10-3.124 0v6.655c0 .852-.7 1.546-1.562 1.546h-1.38c-1.968 0-3.66 1.132-4.417 2.954-.757 1.826-.363 3.828 1.03 5.224l13.238 13.267a7.51 7.51 0 005.35 2.22h.001a7.51 7.51 0 005.35-2.22z" fill="#fff"/></svg></svg>