<?xml version="1.0" encoding="utf-8"?><svg viewBox="0 0 47 44" xmlns="http://www.w3.org/2000/svg" xmlns:xlink="http://www.w3.org/1999/xlink"><style>:root>svg{display:none}:root>svg:target{display:block}</style><svg fill="none" viewBox="0 0 8 14" id="arrow-right-black" xmlns="http://www.w3.org/2000/svg"><path d="M1 1l6 6-6 6" stroke="#141923" stroke-width="1.5" stroke-linecap="round" stroke-linejoin="round"/></svg><svg fill="none" viewBox="0 0 8 14" id="arrow-right-white" xmlns="http://www.w3.org/2000/svg"><path d="M1 1l6 6-6 6" stroke="#fff" stroke-width="1.5" stroke-linecap="round" stroke-linejoin="round"/></svg><svg fill="none" viewBox="0 0 47 44" id="icon-github" xmlns="http://www.w3.org/2000/svg"><path d="M23.053 0C10.316 0 0 10.1 0 22.558c0 9.969 6.605 18.423 15.763 21.403 1.152.212 1.575-.486 1.575-1.085 0-.535-.02-1.955-.029-3.835-6.413 1.36-7.765-3.027-7.765-3.027-1.049-2.603-2.565-3.3-2.565-3.3-2.088-1.398.162-1.37.162-1.37 2.315.158 3.53 2.325 3.53 2.325 2.056 3.45 5.397 2.453 6.715 1.877.207-1.46.801-2.453 1.46-3.017-5.12-.564-10.5-2.504-10.5-11.147 0-2.462.893-4.475 2.372-6.053-.26-.57-1.038-2.864.201-5.97 0 0 1.931-.605 6.34 2.312 1.844-.5 3.804-.75 5.764-.761 1.959.011 3.919.26 5.763.761 4.38-2.917 6.31-2.313 6.31-2.313 1.24 3.107.462 5.4.231 5.971 1.47 1.578 2.363 3.59 2.363 6.053 0 8.666-5.389 10.573-10.518 11.128.807.677 1.556 2.06 1.556 4.174 0 3.019-.029 5.444-.029 6.177 0 .591.404 1.297 1.585 1.071 9.223-2.961 15.822-11.42 15.822-21.374C46.106 10.101 35.784 0 23.053 0z" fill="#141923"/></svg><svg fill="none" viewBox="0 0 19 16" id="icon-love" xmlns="http://www.w3.org/2000/svg"><g opacity=".3" fill="#141923"><path d="M9.433 1.874C.126-5.097-6.042 9.124 9.433 16c15.475-6.876 9.307-21.097 0-14.126z"/><path d="M12.855.17c4.751 1.313 5.475 9.938-4.755 15.192.425.219.87.432 1.333.638C22.901 10.016 19.976-1.531 12.855.17z"/></g></svg><svg fill="none" viewBox="0 0 39 40" id="schema-api" xmlns="http://www.w3.org/2000/svg"><path d="M21.956 18.827a1.563 1.563 0 01-.687-2.967l6.875-3.36a1.563 1.563 0 011.372 2.809l-6.875 3.36c-.221.107-.455.158-.685.158zm-3.168 21.17a1.563 1.563 0 10-.073-3.124 6.386 6.386 0 01-3.085-.715l-9.062-4.703a6.365 6.365 0 01-3.443-5.67V14.162a6.365 6.365 0 013.443-5.67l8.965-4.653a6.386 6.386 0 015.822-.025l9.061 4.604a6.358 6.358 0 013.492 5.695v6.745a1.563 1.563 0 103.126 0v-6.745a9.469 9.469 0 00-5.202-8.481L22.77 1.028a9.518 9.518 0 00-8.677.037L5.128 5.718A9.48 9.48 0 000 14.162v11.623a9.48 9.48 0 005.128 8.444l9.062 4.703a9.525 9.525 0 004.598 1.065zm-2.777-22.04a1.563 1.563 0 00-.708-2.094l-6.798-3.36a1.562 1.562 0 10-1.384 2.802l6.797 3.36a1.563 1.563 0 002.093-.709zm4.068 14.23v-9.844a1.563 1.563 0 00-3.125 0v9.844a1.563 1.563 0 003.125 0z" fill="#fff"/><path d="M37.034 28.671h-5.626a1.563 1.563 0 110-3.125h5.626a1.563 1.563 0 010 3.125zm-11.798.39a1.953 1.953 0 100-3.906 1.953 1.953 0 000 3.907zm6.72 3.517c0-.863-.7-1.563-1.563-1.563h-5.548a1.563 1.563 0 000 3.125h5.548c.863 0 1.562-.7 1.562-1.562zm4.687 1.953a1.953 1.953 0 100-3.906 1.953 1.953 0 000 3.906zm1.953 3.516c0-.863-.7-1.563-1.562-1.563h-5.547a1.563 1.563 0 000 3.125h5.547c.863 0 1.562-.7 1.562-1.562zm-11.407 0a1.953 1.953 0 10-3.906 0 1.953 1.953 0 003.906 0z" fill="#fff"/></svg><svg fill="none" viewBox="0 0 33 34" id="schema-arrow-down" xmlns="http://www.w3.org/2000/svg"><path opacity=".5" fill-rule="evenodd" clip-rule="evenodd" d="M1.046 11.6c.423-.125.853-.236 1.288-.332 9.195-2.039 18.338 3.171 21.44 11.813l-8.232-1.451-.53 3.01 12.146 2.141 2.141-12.145-3.01-.531-.899 5.102C20.947 10.871 11.335 6.142 1.673 8.284A21.61 21.61 0 000 8.726L1.046 11.6z" fill="#141923"/></svg><svg fill="none" viewBox="0 0 24 18" id="schema-arrow-down-l" xmlns="http://www.w3.org/2000/svg"><path d="M1.983 7.095l-.04.145.146.039 16.639 4.458-4.542 2.622-.13.075.075.13.63 1.091.075.13.13-.075 6.718-3.878.13-.075-.075-.13-3.879-6.718-.075-.13-.13.075-1.09.63-.13.075.074.13 2.622 4.541L2.492 5.772l-.145-.039-.038.145-.326 1.217z" fill="#141923" stroke="#141923" stroke-width=".3"/></svg><svg fill="none" viewBox="0 0 42 24" id="schema-arrow-right" xmlns="http://www.w3.org/2000/svg"><path opacity=".5" d="M.85 10.71v-.15h34.964l-7.672-7.672-.106-.106.106-.106L29.924.894l.105-.106.107.106 10.97 10.97.106.106-.106.106-10.97 10.971-.107.106-.105-.106-1.782-1.782-.106-.106.106-.106 7.672-7.673H.85v-2.67z" fill="#141923" stroke="#3935D8" stroke-width=".3"/></svg><svg fill="none" viewBox="0 0 33 34" id="schema-arrow-top" xmlns="http://www.w3.org/2000/svg"><path opacity=".5" fill-rule="evenodd" clip-rule="evenodd" d="M1.046 21.797c.423.125.853.236 1.288.333 9.195 2.038 18.338-3.172 21.44-11.814l-8.232 1.451-.53-3.01 12.146-2.14 2.141 12.145-3.01.53-.899-5.102c-4.443 8.337-14.055 13.066-23.717 10.924A21.628 21.628 0 010 24.672l1.046-2.875z" fill="#141923"/></svg><svg fill="none" viewBox="0 0 24 18" id="schema-arrow-top-l" xmlns="http://www.w3.org/2000/svg"><path opacity=".5" d="M1.983 10.905l-.04-.145.146-.039 16.639-4.458-4.542-2.622-.13-.075.075-.13.63-1.091.075-.13.13.075 6.718 3.878.13.075-.075.13-3.879 6.718-.075.13-.13-.075-1.09-.63-.13-.075.074-.13 2.623-4.541-16.64 4.458-.144.039-.04-.145-.325-1.217z" fill="#141923" stroke="#141923" stroke-width=".3"/></svg><svg fill="none" viewBox="0 0 39 40" id="schema-classification" xmlns="http://www.w3.org/2000/svg"><path d="M9.318 32.855c-1.837-.952-3.068-2.857-3.068-4.936V11.882c0-2.082 1.236-3.99 3.077-4.94l-.011-1.736-4.753 2.451c-1.842.95-3 2.858-3 4.941v14.606a5.556 5.556 0 002.99 4.935l4.77 2.485-.005-1.77z" fill="#CEE1F2"/><path d="M30.233 13.218a1.563 1.563 0 01-.717 2.09l-6.876 3.36a1.563 1.563 0 01-1.372-2.808l6.875-3.36a1.563 1.563 0 012.09.718zm-13.279 9.124v9.845c.082 2.073 3.043 2.071 3.125 0v-9.845c-.082-2.073-3.043-2.071-3.125 0zM18.689 40zM8.505 12.504a1.563 1.563 0 00-1.384 2.801l6.797 3.36a1.563 1.563 0 001.385-2.802l-6.798-3.36zm28.528 1.609v6.745c-.082 2.073-3.043 2.072-3.125 0v-6.745c0-2.419-1.338-4.601-3.492-5.695l-9.062-4.604a6.386 6.386 0 00-5.822.025L6.568 8.492a6.365 6.365 0 00-3.443 5.67v11.623a6.365 6.365 0 003.443 5.67l9.062 4.703c1.536.74 3.044.894 4.726.521a1.563 1.563 0 01.696 3.047 10.27 10.27 0 01-2.38.273c-1.518 0-3.133-.367-4.482-1.068l-9.062-4.703A9.48 9.48 0 010 25.785V14.161a9.48 9.48 0 015.128-8.443l8.965-4.653a9.518 9.518 0 018.677-.037l9.061 4.604a9.468 9.468 0 015.202 8.48zM18.674 39.999c.001 0 0 0 0 0zm0 0h-.001z" fill="#3935D8"/><path d="M24.845 35.312c-.863 0-1.563-.7-1.563-1.563v-4.375a4.693 4.693 0 014.688-4.688h4.453c2.074.083 2.072 3.044 0 3.125H27.97c-.861 0-1.562.701-1.562 1.563v4.375c0 .863-.7 1.563-1.563 1.563zm13.215 4.23c.61-.61.61-1.6 0-2.21l-6.72-6.72c-1.524-1.407-3.616.688-2.209 2.21l6.72 6.72c.304.305.704.457 1.104.457.4 0 .8-.152 1.105-.457z" fill="#3935D8"/></svg><svg fill="none" viewBox="0 0 40 41" id="schema-img" xmlns="http://www.w3.org/2000/svg"><path d="M12.5 30.703V18.984a7.812 7.812 0 017.813-7.812h-4.688a7.812 7.812 0 00-7.813 7.812v11.72a7.812 7.812 0 007.813 7.812h4.688a7.813 7.813 0 01-7.813-7.813z" fill="#201DAD"/><path d="M30.625 40.078h-15c-5.17 0-9.375-4.206-9.375-9.375V18.984c0-5.169 4.206-9.375 9.375-9.375h15c5.17 0 9.375 4.206 9.375 9.375v11.72c0 5.169-4.206 9.374-9.375 9.374zm-15-27.344a6.257 6.257 0 00-6.25 6.25v11.72a6.257 6.257 0 006.25 6.25h15a6.257 6.257 0 006.25-6.25v-11.72a6.257 6.257 0 00-6.25-6.25h-15zm11.803 8.438a1.953 1.953 0 100-3.906 1.953 1.953 0 000 3.906zM3.125 25.074V9.375a6.257 6.257 0 016.25-6.25h15a6.26 6.26 0 015.136 2.689 1.563 1.563 0 002.566-1.784A9.385 9.385 0 0024.375 0h-15C4.205 0 0 4.206 0 9.375v15.7a1.562 1.562 0 103.125 0z" fill="#fff"/><path d="M14.068 31.016a1.563 1.563 0 01-1.131-2.64l3.892-4.085c.028-.03.057-.058.087-.084a5.456 5.456 0 017.05-.224l.02.016 2.375 1.944c1.123.884 2.005.827 2.943-.19l2.248-2.635a1.562 1.562 0 112.377 2.028l-2.265 2.656a1.452 1.452 0 01-.035.04c-1.344 1.472-2.731 1.817-3.658 1.848-1.198.038-2.43-.412-3.558-1.304a1.563 1.563 0 01-.02-.016l-2.375-1.943a2.338 2.338 0 00-2.973.068L15.2 30.531c-.307.323-.72.485-1.132.485z" fill="#fff"/></svg><svg fill="none" viewBox="0 0 40 40" id="schema-json" xmlns="http://www.w3.org/2000/svg"><path d="M30.625 40H9.375C4.205 40 0 35.794 0 30.625V9.375C0 4.205 4.206 0 9.375 0h21.25C35.795 0 40 4.206 40 9.375v21.25C40 35.795 35.794 40 30.625 40zM9.375 3.125a6.257 6.257 0 00-6.25 6.25v21.25a6.257 6.257 0 006.25 6.25h21.25a6.257 6.257 0 006.25-6.25V9.375a6.257 6.257 0 00-6.25-6.25H9.375zm7.11 4.766c0-.863-.7-1.563-1.563-1.563H8.359a1.562 1.562 0 100 3.125h6.563c.863 0 1.562-.7 1.562-1.562zM30.78 26.094c0-.863-.7-1.563-1.562-1.563H16.172a1.563 1.563 0 000 3.125h13.047c.863 0 1.562-.7 1.562-1.562zm2.11 6.093c0-.862-.7-1.562-1.563-1.562h-3.437a1.562 1.562 0 100 3.125h3.437c.863 0 1.563-.7 1.563-1.563z" fill="#fff"/><path d="M31.563 21.563H20.547a1.562 1.562 0 110-3.125h11.015a1.562 1.562 0 110 3.125zm-3.907-7.579c0-.863-.7-1.562-1.562-1.562h-14.61a1.562 1.562 0 100 3.125h14.61c.863 0 1.562-.7 1.562-1.563z" fill="#fff"/></svg><svg fill="none" viewBox="0 0 40 39" id="schema-models" xmlns="http://www.w3.org/2000/svg"><path d="M23.36 20.782a1.344 1.344 0 01-1.271 0L6.604 12.8a.521.521 0 01.003-.921l15.19-8.127a1.344 1.344 0 011.256 0l9.129 2.994-7.688-4.066a9.613 9.613 0 00-8.988 0L3.552 9.002C.908 10.4.898 14.175 3.532 15.59l11.925 6.396a9.613 9.613 0 009.086 0l4.304-2.309-5.488 1.106z" fill="#CEE1F2"/><path d="M20 24.692c-1.814 0-3.628-.443-5.281-1.33L2.794 16.966A5.285 5.285 0 010 12.286 5.285 5.285 0 012.821 7.62l11.955-6.323a11.164 11.164 0 0110.448 0L37.18 7.62a5.285 5.285 0 012.82 4.664 5.285 5.285 0 01-2.793 4.68L25.28 23.363A11.165 11.165 0 0120 24.692zm0-21.567a8.043 8.043 0 00-3.763.935L4.283 10.383a2.138 2.138 0 00-1.158 1.911 2.138 2.138 0 001.147 1.918l11.924 6.396a8.03 8.03 0 007.608 0l11.925-6.396a2.138 2.138 0 001.146-1.918 2.138 2.138 0 00-1.157-1.91L23.763 4.06A8.043 8.043 0 0020 3.125zm-4.494-.446h.001zm9.775 34.823l13.895-7.452a1.562 1.562 0 00-1.477-2.754l-13.895 7.452a8.033 8.033 0 01-7.614-.003L2.295 27.371A1.562 1.562 0 10.83 30.13l13.889 7.371A11.162 11.162 0 0020 38.832c1.814 0 3.628-.443 5.281-1.33z" fill="#3935D8"/><path d="M20 31.801c-1.814 0-3.628-.443-5.281-1.33L.83 23.1a1.562 1.562 0 111.465-2.76l13.895 7.374a8.033 8.033 0 007.614.003L37.7 20.265a1.562 1.562 0 111.477 2.753L25.28 30.471A11.164 11.164 0 0120 31.801z" fill="#3935D8"/></svg><svg fill="none" viewBox="0 0 40 40" id="schema-upload" xmlns="http://www.w3.org/2000/svg"><path d="M20.673 28.542L7.436 15.276c-1.185-1.187-1.185-2.865-.408-4.054a3.125 3.125 0 01-.852.12h-1.38c-2.868 0-4.307 3.465-2.28 5.496l13.236 13.266a5.996 5.996 0 008.342.142 5.97 5.97 0 01-3.421-1.704z" fill="#201DAD"/><path d="M38.432 39.988H1.568a1.562 1.562 0 110-3.124h36.864a1.562 1.562 0 010 3.124zm-13.083-8.78l13.24-13.266c1.394-1.397 1.79-3.398 1.032-5.224-.756-1.823-2.448-2.955-4.417-2.955h-1.458a1.556 1.556 0 01-1.562-1.546V1.562a1.562 1.562 0 10-3.124 0v6.655c0 2.575 2.102 4.67 4.686 4.67h1.458c1.025 0 1.431.787 1.531 1.028.1.242.372 1.09-.356 1.82L23.137 29a4.406 4.406 0 01-3.139 1.303A4.407 4.407 0 0116.858 29L3.621 15.734c-.728-.73-.457-1.577-.356-1.82.1-.24.506-1.027 1.53-1.027h1.381c2.584 0 4.686-2.095 4.686-4.67V1.562a1.562 1.562 0 10-3.124 0v6.655c0 .852-.7 1.546-1.562 1.546h-1.38c-1.968 0-3.66 1.132-4.417 2.954-.757 1.826-.363 3.828 1.03 5.224l13.238 13.267a7.51 7.51 0 005.35 2.22h.001a7.51 7.51 0 005.35-2.22z" fill="#fff"/></svg></svg>