<svg width="48" height="48" fill="none" xmlns="http://www.w3.org/2000/svg"><path d="M36.385 15.829l-1.488-.871a8.59 8.59 0 00.457-2.77 8.59 8.59 0 00-.456-2.768l1.49-.875a1.875 1.875 0 00-1.9-3.233l-1.54.905a8.625 8.625 0 00-4.345-2.449V1.875a1.875 1.875 0 00-3.75 0v1.893a8.626 8.626 0 00-4.417 2.527l-1.673-.983a1.875 1.875 0 00-1.9 3.233l1.662.977a8.593 8.593 0 00-.422 2.666c0 .93.15 1.828.424 2.669l-1.661.972a1.875 1.875 0 101.894 3.236l1.679-.982a8.627 8.627 0 004.415 2.524V22.5a1.875 1.875 0 103.75 0v-1.893a8.624 8.624 0 004.34-2.447l1.547.905a1.874 1.874 0 101.894-3.237zm-9.656 1.233a4.88 4.88 0 01-4.875-4.875 4.88 4.88 0 014.875-4.874 4.88 4.88 0 014.875 4.875 4.88 4.88 0 01-4.875 4.874zm-1.697 23.626c-.029 0 .07 0 0 0zm22.369-4.918c-1.222-2.348-3.99-3.338-6.58-2.356-1.807.686-4.015 1.524-6.42 2.187.222-1.067.111-2.198-.332-3.273-.647-1.567-1.975-2.733-3.646-3.199-.854-.238-1.78-.291-2.754-.159-6.424.874-10.25-1.298-13.624-3.215-2.269-1.288-4.411-2.505-6.92-2.505-2.927 0-5.81 1.023-5.81 1.023a1.875 1.875 0 101.12 3.579S4.833 27 7.126 27c1.518 0 3.085.89 5.068 2.016 2.97 1.686 6.868 3.9 12.664 3.9a24.61 24.61 0 003.317-.23c.458-.063.888-.043 1.242.055.395.11.922.377 1.186 1.017.205.498.216.963.03 1.383-.226.515-.743.943-1.455 1.203-1.025.375-2.487.575-4.145.593-1.784.012-3.525-.192-5.055-.594a1.875 1.875 0 10-.953 3.627c1.792.47 3.851.718 6.008.718 7.128-.031 13.23-2.291 17.12-3.768.651-.247 1.549-.136 1.94.615a1.4 1.4 0 01-.577 1.875c-4.706 2.514-10.167 4.84-18.191 4.84-7.144 0-13.724-2.757-17.986-5.07-3.284-1.78-5.683-1.218-5.945-1.148l.003.012a1.874 1.874 0 101 3.61c.32-.037 1.476-.087 3.153.823C10.193 44.997 17.393 48 25.324 48c10.07 0 16.748-3.568 19.958-5.283 2.474-1.322 3.415-4.457 2.12-6.946z" fill="#BDBDD8"/></svg>