<svg width="47" height="48" fill="none" xmlns="http://www.w3.org/2000/svg"><path d="M26.347 22.593a1.875 1.875 0 01-.825-3.56L33.772 15a1.875 1.875 0 011.647 3.37l-8.25 4.03c-.265.13-.546.192-.822.192zm-3.802 25.404a1.875 1.875 0 10-.088-3.75 7.662 7.662 0 01-3.701-.857L7.882 37.746a7.638 7.638 0 01-4.132-6.804V16.994a7.638 7.638 0 014.132-6.804l10.757-5.583a7.663 7.663 0 016.986-.03L36.5 10.1a7.629 7.629 0 014.19 6.834v8.095a1.875 1.875 0 103.75 0v-8.095c0-4.321-2.392-8.22-6.242-10.177L27.324 1.233a11.422 11.422 0 00-10.413.045L6.155 6.862A11.376 11.376 0 000 16.994v13.948c0 4.28 2.358 8.162 6.154 10.133l10.874 5.643a11.428 11.428 0 005.517 1.279zm-3.332-26.45a1.875 1.875 0 00-.85-2.511l-8.156-4.032a1.875 1.875 0 10-1.662 3.362l8.157 4.032a1.875 1.875 0 002.512-.85zm4.882 17.077V26.811a1.875 1.875 0 10-3.75 0v11.813a1.875 1.875 0 103.75 0z" fill="#BDBDD8"/><path d="M44.44 34.405h-6.75a1.875 1.875 0 110-3.75h6.75a1.875 1.875 0 110 3.75zm-14.157.47a2.344 2.344 0 100-4.689 2.344 2.344 0 000 4.688zm8.063 4.218c0-1.036-.84-1.875-1.875-1.875h-6.656a1.875 1.875 0 100 3.75h6.656c1.036 0 1.875-.84 1.875-1.875zm5.626 2.344a2.344 2.344 0 100-4.688 2.344 2.344 0 000 4.688zm2.343 4.22a1.875 1.875 0 00-1.875-1.876h-6.656a1.875 1.875 0 100 3.75h6.656c1.036 0 1.876-.84 1.876-1.875zm-13.688 0a2.344 2.344 0 10-4.688 0 2.344 2.344 0 004.688 0z" fill="#BDBDD8"/></svg>