<svg width="48" height="48" fill="none" xmlns="http://www.w3.org/2000/svg"><path d="M20.248 3.75h-1.5c-2.487-.1-2.485-3.652 0-3.75h1.5c2.488.099 2.486 3.652 0 3.75zm1.875 27.185c0-1.035-.84-1.875-1.875-1.875h-1.5c-2.487.1-2.485 3.652 0 3.75h1.5c1.036 0 1.875-.84 1.875-1.875zm-9 0a1.874 1.874 0 00-1.874-1.875c-4.135 0-7.5-3.364-7.5-7.5V11.25c0-4.136 3.365-7.5 7.5-7.5a1.875 1.875 0 100-3.75C5.046 0 0 5.046 0 11.25v10.31c0 6.204 5.046 11.25 11.25 11.25 1.035 0 1.874-.84 1.874-1.875zm18.382-7.293l3.631-3.599c2.134-2.028 2.134-5.686 0-7.715l-.012-.011-3.631-3.536a1.875 1.875 0 10-2.616 2.686l3.624 3.53c.66.631.657 1.754-.004 2.383l-3.632 3.599c-1.19 1.174-.33 3.217 1.32 3.207.477 0 .954-.181 1.32-.544zm-2.539-7.612a1.874 1.874 0 00-1.874-1.875H13.124c-2.488.1-2.486 3.652 0 3.75h13.968c1.035 0 1.874-.84 1.874-1.875zM12.73 46.101a3.698 3.698 0 00-.046-3.766l-2.823-4.71c-1.391-2.407-5.018-2.407-6.409 0L.63 42.336c-1.513 2.43.342 5.71 3.204 5.661h5.645a3.694 3.694 0 003.25-1.895zm-6.073-6.528l2.8 4.673H3.856l2.8-4.673z" fill="#BDBDD8"/><path d="M29.248 3.75h-1.5a1.875 1.875 0 110-3.75h1.5a1.875 1.875 0 010 3.75zm1.874 27.185a1.875 1.875 0 00-1.874-1.875h-1.5a1.875 1.875 0 100 3.75h1.5c1.035 0 1.874-.84 1.874-1.875zm16.385 15.166a3.698 3.698 0 00-.046-3.766l-2.822-4.71a3.706 3.706 0 00-3.205-1.815 3.706 3.706 0 00-3.204 1.816l-2.823 4.709a3.698 3.698 0 00-.046 3.766 3.694 3.694 0 003.25 1.895h5.646a3.695 3.695 0 003.25-1.895zm-6.073-6.528l2.801 4.673h-5.602l2.801-4.673zm6.562-18.012V11.249C47.996 5.046 42.95 0 36.747 0a1.875 1.875 0 000 3.75c4.135 0 7.5 3.364 7.5 7.5v10.31c0 4.136-3.365 7.5-7.5 7.5a1.875 1.875 0 000 3.75c6.203 0 11.25-5.047 11.25-11.25z" fill="#BDBDD8"/></svg>