<svg width="90" height="76" fill="none" xmlns="http://www.w3.org/2000/svg"><path d="M.879 9.419L0 11.663v47.578c0 1.96 1.574 3.55 3.516 3.55h82.968c1.942 0 3.516-1.59 3.516-3.55V11.663l-.879-2.244H.88z" fill="#fff"/><path d="M75.508 35.352c-1.12-.36-2.36-.792-3.044-1.279-.17-.121-.244-.43-.177-.749.035-.167.2-.718.82-.898 1.142-.333 1.896.145 2.078.248.144.083.382.192.395.205 1.457.705 2.815-1.066 1.579-2.058-.393-.329-1.11-.73-2.04-.936v-.343c0-.71-.635-1.286-1.419-1.286s-1.42.576-1.42 1.286v.423c-1.428.393-2.494 1.497-2.782 2.883-.267 1.282.199 2.527 1.215 3.25 1.004.714 2.444 1.229 3.85 1.68 1.107.354 1.14 1.123 1.06 1.55-.131.712-.793 1.482-1.932 1.49-1.19.008-1.53-.042-2.429-.575-.706-.419-1.67-.194-2.054.516-.32.593-.06 1.308.552 1.667.952.558 1.674.804 2.52.904v.384c0 .71.636 1.286 1.42 1.286.784 0 1.42-.576 1.42-1.286v-.517c1.85-.516 3.033-1.99 3.303-3.443.363-1.958-.808-3.727-2.915-4.402z" fill="#3935D8"/><path d="M11.062 51.275a6.281 6.281 0 01-1.643-4.244V24.098a6.31 6.31 0 016.313-6.307h22.954A6.31 6.31 0 0145 24.098v22.933a6.28 6.28 0 01-1.643 4.244c-.005.005-32.29.006-32.295 0z" fill="#F1F6FC"/><path d="M86.45 0H3.55C1.59 0 0 1.606 0 3.586v8.972h90V3.586C90 1.606 88.41 0 86.45 0z" fill="#3935D8"/><path d="M68.546 7.326a1.57 1.57 0 100-3.14 1.57 1.57 0 000 3.14zm6.28 0a1.57 1.57 0 100-3.14 1.57 1.57 0 000 3.14zm6.279 0a1.57 1.57 0 100-3.14 1.57 1.57 0 000 3.14z" fill="#fff"/><path d="M86.592 0h-1.825v12.558H90V3.586C90 1.606 88.474 0 86.592 0z" fill="#201DAD"/><path d="M66.727 24.07H51.53c-.716 0-1.297-.703-1.297-1.57 0-.867.58-1.57 1.297-1.57h15.198c.716 0 1.296.703 1.296 1.57 0 .867-.58 1.57-1.296 1.57zm11.412 0h-6.627c-.77 0-1.396-.703-1.396-1.57 0-.867.625-1.57 1.396-1.57h6.627c.77 0 1.396.703 1.396 1.57 0 .867-.625 1.57-1.396 1.57zm-14.562 5.232H51.54c-.722 0-1.306-.468-1.306-1.046 0-.578.584-1.047 1.306-1.047h12.038c.722 0 1.307.469 1.307 1.047s-.585 1.046-1.307 1.046zm0 6.279H51.54c-.722 0-1.306-.702-1.306-1.57 0-.866.584-1.57 1.306-1.57h12.038c.722 0 1.307.704 1.307 1.57 0 .868-.585 1.57-1.307 1.57z" fill="#3935D8"/><path d="M33.31 43.968c-.862-.124-1.496-.901-1.496-1.802v-.508c0-.1.079-.182.176-.182h6.873c.312 0 .489-.37.3-.626l-.867-1.18a11.237 11.237 0 01-2.166-6.649v-.786c0-5.087-3.984-9.212-8.899-9.212-4.914 0-8.899 4.125-8.899 9.212v.418c0 2.402-.76 4.737-2.165 6.649l-1.138 1.548c-.189.256-.012.626.3.626h6.873a.18.18 0 01.176.182v.543c0 .89-.619 1.66-1.468 1.797-4.172.67-7.661 3.472-9.398 7.296l.014.016c1.122 1.267 2.734 2.062 4.526 2.062h22.315c1.791 0 3.404-.795 4.526-2.063l.014-.016c-1.765-3.884-5.338-6.714-9.597-7.325z" fill="#C4D3EA"/><path d="M72.463 75.834H43.418A3.418 3.418 0 0140 72.416V54.418A3.418 3.418 0 0143.418 51h29.045a3.418 3.418 0 013.418 3.418v17.998a3.418 3.418 0 01-3.418 3.418z" fill="#3935D8"/><path d="M75.881 72.416V54.418A3.418 3.418 0 0072.463 51h-1.945v17.712a1.76 1.76 0 01-1.76 1.76H40v1.944a3.418 3.418 0 003.418 3.418h29.045a3.419 3.419 0 003.418-3.418z" fill="#201DAD"/><path d="M52.182 63.283h-5.836a1.554 1.554 0 01-1.553-1.554V57.3c0-.858.696-1.554 1.554-1.554h5.835c.858 0 1.554.696 1.554 1.554v4.43c0 .858-.696 1.554-1.554 1.554z" fill="#F1F6FC"/><path d="M53.736 61.729v-4.43c0-.859-.696-1.554-1.554-1.554h-1.265v3.166c0 .858-.695 1.553-1.553 1.553h-4.571v1.265c0 .858.696 1.554 1.554 1.554h5.835c.858 0 1.553-.696 1.554-1.554zm-9.35 7.517a1.177 1.177 0 01.832-2.01h3.141a1.176 1.176 0 110 2.354h-3.141a1.17 1.17 0 01-.832-.344zm7.457 0a1.177 1.177 0 01.832-2.01h3.142a1.177 1.177 0 010 2.355h-3.141c-.325 0-.62-.132-.833-.345zm7.458 0a1.177 1.177 0 01.832-2.01h3.142a1.177 1.177 0 010 2.355h-3.142c-.325 0-.619-.132-.832-.345zm7.459 0a1.177 1.177 0 01.832-2.01l3.14.001a1.177 1.177 0 110 2.354h-3.14c-.326 0-.62-.132-.833-.345z" fill="#fff"/><path d="M70.733 67.237h-.215v1.475c0 .32-.087.62-.236.879h.45a1.177 1.177 0 000-2.354z" fill="#3935D8"/><path d="M66.76 57.998a1.177 1.177 0 01.832-2.01l3.14.001a1.177 1.177 0 110 2.354h-3.14c-.326 0-.62-.132-.833-.345z" fill="#fff"/><path d="M70.518 55.99v2.353h.215a1.177 1.177 0 100-2.353h-.215z" fill="#3935D8"/><path d="M48.34 55.736h2.331v7.534h-2.33v-7.534z" fill="#C4D3EA"/></svg>