<svg width="81" height="90" fill="none" xmlns="http://www.w3.org/2000/svg"><path d="M80.641 0H8.618v90H80.64V0z" fill="#fff"/><path d="M66.583 78.52a1.582 1.582 0 01-1.504-2.074 4.28 4.28 0 00.202-1.08c-1.01 1.523-2.294 2.723-3.8 3.053-1.048.23-2.627.142-4.192-1.588-2.611-2.885-.83-6.12.47-8.484 1.532-2.786 1.489-3.227.66-3.77-.637-.42-1.726-.155-2.528.14-5.05 1.862-11.944 9.511-12.522 11.495a1.582 1.582 0 01-3.038-.886c.943-3.23 8.746-11.469 14.466-13.577 2.159-.796 3.962-.735 5.359.182 1.551 1.018 2.22 2.476 1.936 4.216-.208 1.265-.896 2.516-1.562 3.726-1.796 3.265-1.641 4.01-.895 4.834.662.732 1.043.649 1.168.622.95-.209 2.472-2.146 3.374-5.025a1.581 1.581 0 012.866-.341c.126.21.78 1.349 1.153 2.927.466-.892.867-1.902 1.225-2.883a1.583 1.583 0 012.435-.724c.723.542 3.095 2.512 3.28 5.106.066.934-.136 2.329-1.476 3.669a1.582 1.582 0 11-2.237-2.238c.537-.537.575-.946.556-1.207-.028-.405-.23-.833-.504-1.235-.983 2.174-2.257 4.075-4.222 4.994a1.58 1.58 0 01-.67.149z" fill="#3935D8"/><path d="M45.859 81.078c-.025 0-.05 0-.077-.002a1.582 1.582 0 01-1.504-1.656c.084-1.771 2.68-5.05 3.2-5.69 1.547-1.903 3.84-4.233 5.973-4.521a1.582 1.582 0 11.423 3.136c-.616.083-2.062 1.115-3.78 3.186-1.571 1.892-2.54 3.628-2.66 4.104a1.582 1.582 0 01-1.575 1.443z" fill="#3935D8"/><path d="M69.859 14.602h-50.46a1.582 1.582 0 010-3.164h50.46a1.582 1.582 0 010 3.164zM69.86 22H50.956a1.582 1.582 0 010-3.164H69.86a1.582 1.582 0 010 3.164zm-23.755 0H19.4a1.582 1.582 0 010-3.164h26.706a1.582 1.582 0 110 3.164zm23.754 7.399h-50.46a1.582 1.582 0 010-3.164h50.46a1.582 1.582 0 010 3.164zm0 7.398H58.34a1.582 1.582 0 010-3.164h11.52a1.582 1.582 0 010 3.164zm-16.37 0h-34.09a1.582 1.582 0 010-3.164h34.09a1.582 1.582 0 010 3.164zm16.37 7.398H41.676a1.582 1.582 0 010-3.164h28.183a1.582 1.582 0 010 3.164zm-32.824 0H19.4a1.582 1.582 0 010-3.164h17.635a1.582 1.582 0 010 3.164zm20.04 7.398H19.4a1.582 1.582 0 010-3.164h37.675a1.582 1.582 0 010 3.164z" fill="#C4D3EA"/><path d="M31.097 82.114c-.405 0-.81-.154-1.119-.464l-3.216-3.216A1.582 1.582 0 1129 76.197l3.216 3.216a1.582 1.582 0 01-1.119 2.7z" fill="#5C6670"/><path opacity=".3" d="M29 76.197a1.582 1.582 0 10-2.238 2.237l1.065 1.064 2.237-2.237L29 76.197z" fill="#000"/><path d="M7.13 69.883L.464 63.216a1.582 1.582 0 010-2.237l2.861-2.861 2.238 2.237-1.743 1.743 5.55 5.548-2.238 2.237z" fill="#5C6670"/><path opacity=".2" d="M4.193 61.723l1.367-1.368-2.237-2.237-1.368 1.367 2.238 2.238z" fill="#000"/><path d="M25.03 80.167l5.702-5.702L9.974 53.707 4.272 59.41 25.03 80.166z" fill="#3935D8"/><path d="M4.272 59.41l5.703-5.703-3.695-3.694-5.702 5.702 3.694 3.694z" fill="#5C6670"/><path d="M16.751 71.888l2.237 2.237 5.703-5.702-2.238-2.237-5.702 5.702zm-4.039-4.04l2.237 2.237 5.702-5.702-2.237-2.237-5.702 5.702z" fill="#fff"/></svg>