<svg width="90" height="81" fill="none" xmlns="http://www.w3.org/2000/svg"><path d="M71.63 70.947H25.533a2.778 2.778 0 01-2.777-2.778V2.778A2.778 2.778 0 0125.534 0H71.63a2.778 2.778 0 012.778 2.778v65.391a2.778 2.778 0 01-2.778 2.778z" fill="#3935D8"/><path d="M42.363 16.22H29.766a1.428 1.428 0 110-2.856h12.597a1.428 1.428 0 110 2.856zm0 7.863H29.766a1.428 1.428 0 110-2.856h12.597a1.428 1.428 0 110 2.856zm0 7.863H29.766a1.428 1.428 0 110-2.856h12.597a1.428 1.428 0 110 2.856zm0 7.864H29.766a1.428 1.428 0 110-2.856h12.597a1.428 1.428 0 110 2.856zm0 7.863H29.766a1.428 1.428 0 110-2.856h12.597a1.428 1.428 0 110 2.856zm0 7.863H29.766a1.428 1.428 0 110-2.856h12.597a1.428 1.428 0 110 2.856z" fill="#fff"/><path d="M71.237 9.998h-30.03a2.857 2.857 0 00-2.858 2.856v65.234a2.857 2.857 0 002.857 2.857h45.937A2.857 2.857 0 0090 78.088V28.761a3.81 3.81 0 00-1.116-2.694L73.93 11.113a3.81 3.81 0 00-2.693-1.115z" fill="#F1F6FC"/><path d="M88.884 26.068L73.93 11.114a3.806 3.806 0 00-1.907-1.032V26.07c0 1.052.853 1.905 1.905 1.905h15.988a3.808 3.808 0 00-1.032-1.907zm-8.801 22.599a1.428 1.428 0 100-2.856H51.81v-5.007h28.272a1.428 1.428 0 100-2.856H51.81v-1.902a1.428 1.428 0 10-2.856 0v1.902h-4.158a1.428 1.428 0 100 2.856h4.158v5.007h-4.158a1.428 1.428 0 100 2.856h4.158v5.007h-4.158a1.428 1.428 0 100 2.856h4.158v5.007h-4.158a1.428 1.428 0 100 2.857h4.158v1.9a1.428 1.428 0 102.856 0v-1.9h28.272a1.428 1.428 0 000-2.857H51.81V56.53h28.272a1.428 1.428 0 100-2.856H51.81v-5.007h28.272z" fill="#C4D3EA"/><path fill-rule="evenodd" clip-rule="evenodd" d="M.901 75.223H63.34a.905.905 0 00.901-.901v-49.72a.904.904 0 00-.901-.897H.9a.901.901 0 00-.901.897v49.72c0 .498.404.901.901.901z" fill="#fff"/><path fill-rule="evenodd" clip-rule="evenodd" d="M.901 75.223h18.436l8.278-6.28 4.29-6.288L20.14 50.89c-.54-.535-1.024-.57-1.594 0L0 69.436v4.886c0 .497.404.901.901.901z" fill="#3935D8"/><path fill-rule="evenodd" clip-rule="evenodd" d="M19.337 75.223H63.34a.904.904 0 00.901-.9v-21.49L53.777 42.375c-.515-.518-1.063-.527-1.59 0l-32.85 32.85z" fill="#3935D8"/><path fill-rule="evenodd" clip-rule="evenodd" d="M64.24 57.332v-4.498l-10.463-10.46c-.515-.518-1.063-.527-1.59 0l-1.455 1.454L64.24 57.332zm-34.583 7.572l2.249-2.25L20.14 50.89c-.54-.535-1.025-.57-1.594 0l-1.454 1.454 12.564 12.56z" fill="#201DAD"/><circle cx="17.492" cy="37.17" r="7.253" fill="#F1F6FC"/></svg>