<svg width="84" height="90" fill="none" xmlns="http://www.w3.org/2000/svg"><path opacity=".5" d="M64.668 2.719h-4.062A2.719 2.719 0 0057.887 0H10.596a2.719 2.719 0 00-2.72 2.719v72.263a2.72 2.72 0 002.72 2.72c51.55 0 47.532.158 48.42-.248a2.727 2.727 0 001.457-1.635h4.195v-73.1z" fill="#C4D3EA"/><path d="M63.54 0h-5.653a2.719 2.719 0 012.719 2.719v72.263a2.719 2.719 0 01-2.719 2.72h5.652a2.719 2.719 0 002.72-2.72V2.72A2.719 2.719 0 0063.538 0z" fill="#F1F6FC"/><path d="M70.712 19.326l-6.372-3.979-5.502-9.28h-37.81a3.758 3.758 0 00-3.758 3.759v67.2a3.758 3.758 0 003.758 3.758H70.64c.025 0 .049-.003.073-.003V19.326z" fill="#fff"/><path d="M74.398 21.627l-5.652-3.529v58.928a3.759 3.759 0 01-3.759 3.759h5.652a3.758 3.758 0 003.759-3.759V21.627z" fill="#F1F6FC"/><path d="M62.596 21.627h11.802l-15.56-15.56V17.87a3.758 3.758 0 003.758 3.758zm2.782 8.517H26.29a1.36 1.36 0 110-2.719h39.088a1.36 1.36 0 110 2.72zm0 8.995H26.29a1.36 1.36 0 110-2.719h39.088a1.36 1.36 0 010 2.719z" fill="#C4D3EA"/><path d="M80.192 45h-2.946a3.636 3.636 0 00-3.14-1.822h-45.64l-4.773-7.896H20.8a2.718 2.718 0 00-2.176-1.091H2.719A2.719 2.719 0 000 36.91v49.465A3.625 3.625 0 003.625 90h70.481c.599 0 1.208-.155 1.746-.453h.007a3.642 3.642 0 001.161-1.02h3.172V45z" fill="#3935D8"/><path d="M21.033 35.65l3.94 7.528h5.652l-3.94-7.529a2.719 2.719 0 00-2.409-1.458h-5.652a2.72 2.72 0 012.41 1.458zm58.725 7.528h-5.652a3.625 3.625 0 013.626 3.625v39.572A3.625 3.625 0 0174.106 90h5.653a3.625 3.625 0 003.625-3.625V46.803a3.625 3.625 0 00-3.626-3.625z" fill="#201DAD"/></svg>